SplineFontDB: 3.2
FontName: RisingSun-BoldItalic
FullName: Rising Sun Bold Italic
FamilyName: Rising Sun
Weight: Bold
Copyright: Copyright (c) 2012, The Raleway Project Authors (matt@pixelspread.com)
Version: 4.322
ItalicAngle: -12
UnderlinePosition: -125
UnderlineWidth: 50
Ascent: 800
Descent: 200
InvalidEm: 0
sfntRevision: 0x0004526e
LayerCount: 2
Layer: 0 1 "Back" 1
Layer: 1 1 "Fore" 0
XUID: [1021 158 994486733 11058082]
StyleMap: 0x0021
FSType: 0
OS2Version: 4
OS2_WeightWidthSlopeOnly: 0
OS2_UseTypoMetrics: 1
CreationTime: 1683073834
ModificationTime: 1710186712
PfmFamily: 81
TTFWeight: 700
TTFWidth: 5
LineGap: 21
VLineGap: 0
Panose: 0 0 0 0 0 0 0 0 0 0
OS2TypoAscent: 923
OS2TypoAOffset: 0
OS2TypoDescent: -213
OS2TypoDOffset: 0
OS2TypoLinegap: 21
OS2WinAscent: 944
OS2WinAOffset: 0
OS2WinDescent: 234
OS2WinDOffset: 0
HheadAscent: 923
HheadAOffset: 0
HheadDescent: -213
HheadDOffset: 0
OS2SubXSize: 650
OS2SubYSize: 600
OS2SubXOff: 0
OS2SubYOff: 75
OS2SupXSize: 650
OS2SupYSize: 600
OS2SupXOff: 0
OS2SupYOff: 350
OS2StrikeYSize: 50
OS2StrikeYPos: 300
OS2CapHeight: 710
OS2XHeight: 524
OS2Vendor: '    '
OS2CodePages: 2000019f.00000000
OS2UnicodeRanges: a00002ff.4000205b.00000000.00000000
Lookup: 1 0 0 "'aalt' Access All Alternates lookup 0" { "'aalt' Access All Alternates lookup 0 subtable"  } ['aalt' ('DFLT' <'dflt' > 'cyrl' <'BGR ' 'MKD ' 'SRB ' 'dflt' > 'latn' <'AZE ' 'CAT ' 'CRT ' 'KAZ ' 'MOL ' 'ROM ' 'TAT ' 'TRK ' 'dflt' > ) ]
Lookup: 3 0 0 "'aalt' Access All Alternates lookup 1" { "'aalt' Access All Alternates lookup 1 subtable"  } ['aalt' ('DFLT' <'dflt' > 'cyrl' <'BGR ' 'MKD ' 'SRB ' 'dflt' > 'latn' <'AZE ' 'CAT ' 'CRT ' 'KAZ ' 'MOL ' 'ROM ' 'TAT ' 'TRK ' 'dflt' > ) ]

StartChar: .notdef
Encoding: 65536 -1 0
Width: 608
GlyphClass: 1
Flags: W
LayerCount: 2
Fore
SplineSet
558 689 m 2,0,1
 558 699 558 699 553 704.5 c 128,-1,2
 548 710 548 710 540 710 c 2,3,-1
 69 710 l 2,4,5
 61 710 61 710 55.5 704 c 128,-1,6
 50 698 50 698 50 687 c 2,7,-1
 50 25 l 2,8,9
 50 12 50 12 55.5 6 c 128,-1,10
 61 0 61 0 77 0 c 2,11,-1
 525 0 l 2,12,13
 542 0 542 0 550 6.5 c 128,-1,14
 558 13 558 13 558 29 c 2,15,-1
 558 689 l 2,0,1
506 74 m 2,16,17
 506 61 506 61 499 55.5 c 128,-1,18
 492 50 492 50 478 50 c 2,19,-1
 125 50 l 2,20,21
 111 50 111 50 106.5 55 c 128,-1,22
 102 60 102 60 102 71 c 2,23,-1
 102 641 l 2,24,25
 102 650 102 650 106.5 655 c 128,-1,26
 111 660 111 660 118 660 c 2,27,-1
 491 660 l 2,28,29
 498 660 498 660 502 655 c 128,-1,30
 506 650 506 650 506 642 c 2,31,-1
 506 74 l 2,16,17
538 33 m 1,32,-1
 123 696 l 1,33,-1
 71 669 l 1,34,-1
 478 28 l 1,35,-1
 538 33 l 1,32,-1
EndSplineSet
EndChar

StartChar: exclam
Encoding: 33 33 4
Width: 301
GlyphClass: 1
Flags: W
LayerCount: 2
Fore
SplineSet
11 83 m 256,0,1
 7 64 7 64 10.5 47 c 128,-1,2
 14 30 14 30 24 17.5 c 128,-1,3
 34 5 34 5 49.5 -2.5 c 128,-1,4
 65 -10 65 -10 84 -10 c 256,5,6
 103 -10 103 -10 121.5 -2.5 c 128,-1,7
 140 5 140 5 155.5 17.5 c 128,-1,8
 171 30 171 30 181.5 47 c 128,-1,9
 192 64 192 64 196 83 c 256,10,11
 200 102 200 102 196.5 118.5 c 128,-1,12
 193 135 193 135 183 147.5 c 128,-1,13
 173 160 173 160 157.5 167.5 c 128,-1,14
 142 175 142 175 123 175 c 256,15,16
 104 175 104 175 86 167.5 c 128,-1,17
 68 160 68 160 52 147.5 c 128,-1,18
 36 135 36 135 25.5 118.5 c 128,-1,19
 15 102 15 102 11 83 c 256,0,1
197 276 m 1,20,-1
 273 530 l 1,21,-1
 313 717 l 1,22,-1
 164 717 l 1,23,-1
 124 530 l 1,24,-1
 92 276 l 1,25,-1
 197 276 l 1,20,-1
EndSplineSet
EndChar

StartChar: quotedbl
Encoding: 34 34 5
Width: 454
GlyphClass: 1
Flags: W
LayerCount: 2
Fore
SplineSet
115 503 m 1,0,-1
 182 503 l 1,1,-1
 335 726 l 1,2,-1
 207 726 l 1,3,-1
 115 503 l 1,0,-1
282 503 m 1,4,-1
 348 503 l 1,5,-1
 501 726 l 1,6,-1
 374 726 l 1,7,-1
 282 503 l 1,4,-1
EndSplineSet
EndChar

StartChar: numbersign
Encoding: 35 35 6
Width: 702
GlyphClass: 1
Flags: W
LayerCount: 2
Fore
SplineSet
713 521 m 1,0,-1
 594 521 l 1,1,-1
 680 710 l 1,2,-1
 560 710 l 1,3,-1
 477 521 l 1,4,-1
 386 521 l 1,5,-1
 471 710 l 1,6,-1
 351 710 l 1,7,-1
 268 521 l 1,8,-1
 129 521 l 1,9,-1
 106 417 l 1,10,-1
 220 417 l 1,11,-1
 168 294 l 1,12,-1
 34 294 l 1,13,-1
 11 182 l 1,14,-1
 117 182 l 1,15,-1
 36 0 l 1,16,-1
 156 0 l 1,17,-1
 236 182 l 1,18,-1
 326 182 l 1,19,-1
 245 0 l 1,20,-1
 364 0 l 1,21,-1
 445 182 l 1,22,-1
 595 182 l 1,23,-1
 618 294 l 1,24,-1
 495 294 l 1,25,-1
 547 417 l 1,26,-1
 690 417 l 1,27,-1
 713 521 l 1,0,-1
287 294 m 1,28,-1
 338 417 l 1,29,-1
 429 417 l 1,30,-1
 376 294 l 1,31,-1
 287 294 l 1,28,-1
EndSplineSet
EndChar

StartChar: dollar
Encoding: 36 36 7
Width: 616
GlyphClass: 1
Flags: W
LayerCount: 2
Fore
SplineSet
189 -120 m 1,0,-1
 254 -120 l 1,1,-1
 295 72 l 1,2,-1
 230 73 l 1,3,-1
 189 -120 l 1,0,-1
287 88 m 1,4,-1
 402 628 l 1,5,-1
 356 617 l 1,6,-1
 244 90 l 1,7,-1
 287 88 l 1,4,-1
349 631 m 1,8,-1
 416 643 l 1,9,-1
 453 815 l 1,10,-1
 388 815 l 1,11,-1
 349 631 l 1,8,-1
624 637 m 1,12,13
 605 651 605 651 581 665.5 c 128,-1,14
 557 680 557 680 528.5 691 c 128,-1,15
 500 702 500 702 467 709 c 128,-1,16
 434 716 434 716 399 716 c 0,17,18
 340 716 340 716 285.5 697.5 c 128,-1,19
 231 679 231 679 189 645 c 128,-1,20
 147 611 147 611 121 561 c 128,-1,21
 95 511 95 511 95 448 c 0,22,23
 95 418 95 418 104.5 394.5 c 128,-1,24
 114 371 114 371 133 353 c 128,-1,25
 152 335 152 335 179.5 320.5 c 128,-1,26
 207 306 207 306 243 293 c 0,27,28
 273 283 273 283 299.5 274.5 c 128,-1,29
 326 266 326 266 345.5 256 c 128,-1,30
 365 246 365 246 376.5 233.5 c 128,-1,31
 388 221 388 221 388 203 c 0,32,33
 388 187 388 187 382 173.5 c 128,-1,34
 376 160 376 160 363.5 150 c 128,-1,35
 351 140 351 140 332 135 c 128,-1,36
 313 130 313 130 287 130 c 0,37,38
 248 130 248 130 212.5 140.5 c 128,-1,39
 177 151 177 151 149.5 165.5 c 128,-1,40
 122 180 122 180 104 194 c 128,-1,41
 86 208 86 208 82 215 c 1,42,-1
 -13 82 l 1,43,44
 12 61 12 61 43 44 c 128,-1,45
 74 27 74 27 108.5 15.5 c 128,-1,46
 143 4 143 4 180 -2 c 128,-1,47
 217 -8 217 -8 255 -8 c 0,48,49
 312 -8 312 -8 366.5 6 c 128,-1,50
 421 20 421 20 464 51 c 128,-1,51
 507 82 507 82 533.5 130.5 c 128,-1,52
 560 179 560 179 560 249 c 0,53,54
 560 286 560 286 547.5 312.5 c 128,-1,55
 535 339 535 339 512.5 358.5 c 128,-1,56
 490 378 490 378 458 393 c 128,-1,57
 426 408 426 408 387 420 c 0,58,59
 358 429 358 429 335 436.5 c 128,-1,60
 312 444 312 444 296 453 c 128,-1,61
 280 462 280 462 271.5 473 c 128,-1,62
 263 484 263 484 263 500 c 0,63,64
 263 518 263 518 270 533 c 128,-1,65
 277 548 277 548 290 558 c 128,-1,66
 303 568 303 568 322 574 c 128,-1,67
 341 580 341 580 365 580 c 0,68,69
 395 580 395 580 424 571.5 c 128,-1,70
 453 563 453 563 475.5 551 c 128,-1,71
 498 539 498 539 513 528 c 128,-1,72
 528 517 528 517 530 511 c 1,73,-1
 624 637 l 1,12,13
EndSplineSet
EndChar

StartChar: percent
Encoding: 37 37 8
Width: 778
GlyphClass: 1
Flags: W
LayerCount: 2
Fore
SplineSet
221 414 m 0,0,1
 260 414 260 414 295.5 428 c 128,-1,2
 331 442 331 442 358 466.5 c 128,-1,3
 385 491 385 491 402 524 c 128,-1,4
 419 557 419 557 419 592 c 0,5,6
 419 620 419 620 409.5 643 c 128,-1,7
 400 666 400 666 382 683 c 128,-1,8
 364 700 364 700 340 710 c 128,-1,9
 316 720 316 720 286 720 c 0,10,11
 248 720 248 720 212 705.5 c 128,-1,12
 176 691 176 691 149 666.5 c 128,-1,13
 122 642 122 642 105 610 c 128,-1,14
 88 578 88 578 88 541 c 0,15,16
 88 514 88 514 98 491 c 128,-1,17
 108 468 108 468 125 450.5 c 128,-1,18
 142 433 142 433 166.5 423.5 c 128,-1,19
 191 414 191 414 221 414 c 0,0,1
237 487 m 0,20,21
 216 487 216 487 204 505 c 128,-1,22
 192 523 192 523 192 548 c 0,23,24
 192 568 192 568 199.5 585.5 c 128,-1,25
 207 603 207 603 218 616.5 c 128,-1,26
 229 630 229 630 243 638.5 c 128,-1,27
 257 647 257 647 270 647 c 0,28,29
 291 647 291 647 303 629 c 128,-1,30
 315 611 315 611 315 585 c 0,31,32
 315 566 315 566 307.5 548 c 128,-1,33
 300 530 300 530 289 516.5 c 128,-1,34
 278 503 278 503 264 495 c 128,-1,35
 250 487 250 487 237 487 c 0,20,21
515 -10 m 0,36,37
 553 -10 553 -10 588.5 4.5 c 128,-1,38
 624 19 624 19 651.5 43.5 c 128,-1,39
 679 68 679 68 695.5 100.5 c 128,-1,40
 712 133 712 133 712 169 c 0,41,42
 712 196 712 196 702.5 219 c 128,-1,43
 693 242 693 242 675.5 259.5 c 128,-1,44
 658 277 658 277 634 286.5 c 128,-1,45
 610 296 610 296 580 296 c 0,46,47
 542 296 542 296 506 282 c 128,-1,48
 470 268 470 268 443 243.5 c 128,-1,49
 416 219 416 219 399 186.5 c 128,-1,50
 382 154 382 154 382 118 c 0,51,52
 382 91 382 91 391.5 67.5 c 128,-1,53
 401 44 401 44 418.5 27 c 128,-1,54
 436 10 436 10 460.5 0 c 128,-1,55
 485 -10 485 -10 515 -10 c 0,36,37
530 63 m 0,56,57
 510 63 510 63 498 81 c 128,-1,58
 486 99 486 99 486 125 c 0,59,60
 486 144 486 144 493 162 c 128,-1,61
 500 180 500 180 511 193.5 c 128,-1,62
 522 207 522 207 536 215 c 128,-1,63
 550 223 550 223 564 223 c 0,64,65
 584 223 584 223 596 205 c 128,-1,66
 608 187 608 187 608 162 c 0,67,68
 608 142 608 142 601 124.5 c 128,-1,69
 594 107 594 107 583 93 c 128,-1,70
 572 79 572 79 558 71 c 128,-1,71
 544 63 544 63 530 63 c 0,56,57
101 -8 m 1,72,-1
 427 339 l 1,73,-1
 754 659 l 1,74,-1
 700 719 l 1,75,-1
 384 378 l 1,76,-1
 47 52 l 1,77,-1
 101 -8 l 1,72,-1
EndSplineSet
EndChar

StartChar: ampersand
Encoding: 38 38 9
Width: 706
GlyphClass: 1
Flags: W
LayerCount: 2
Fore
SplineSet
200 -10 m 0,0,1
 261 -10 261 -10 326 18 c 128,-1,2
 391 46 391 46 449 100 c 128,-1,3
 507 154 507 154 552 233.5 c 128,-1,4
 597 313 597 313 618 416 c 1,5,-1
 495 416 l 1,6,7
 484 345 484 345 457.5 287.5 c 128,-1,8
 431 230 431 230 395.5 189 c 128,-1,9
 360 148 360 148 319.5 126 c 128,-1,10
 279 104 279 104 240 104 c 0,11,12
 205 104 205 104 182 123.5 c 128,-1,13
 159 143 159 143 159 183 c 0,14,15
 159 207 159 207 169 226 c 128,-1,16
 179 245 179 245 199 262.5 c 128,-1,17
 219 280 219 280 250.5 298.5 c 128,-1,18
 282 317 282 317 324 337 c 1,19,-1
 258 434 l 1,20,21
 213 408 213 408 169.5 382 c 128,-1,22
 126 356 126 356 91.5 325.5 c 128,-1,23
 57 295 57 295 35.5 256.5 c 128,-1,24
 14 218 14 218 14 167 c 0,25,26
 14 132 14 132 26 100 c 128,-1,27
 38 68 38 68 61 43.5 c 128,-1,28
 84 19 84 19 119 4.5 c 128,-1,29
 154 -10 154 -10 200 -10 c 0,0,1
437 0 m 1,30,-1
 629 0 l 1,31,-1
 332 429 l 2,32,33
 315 453 315 453 303 470 c 128,-1,34
 291 487 291 487 283.5 499.5 c 128,-1,35
 276 512 276 512 272.5 522.5 c 128,-1,36
 269 533 269 533 269 543 c 0,37,38
 269 557 269 557 275.5 569.5 c 128,-1,39
 282 582 282 582 292.5 591 c 128,-1,40
 303 600 303 600 316.5 605 c 128,-1,41
 330 610 330 610 344 610 c 0,42,43
 371 610 371 610 394 590.5 c 128,-1,44
 417 571 417 571 428 533 c 1,45,-1
 532 585 l 1,46,47
 524 619 524 619 506.5 644 c 128,-1,48
 489 669 489 669 466 685.5 c 128,-1,49
 443 702 443 702 414.5 710.5 c 128,-1,50
 386 719 386 719 356 719 c 0,51,52
 312 719 312 719 271 704 c 128,-1,53
 230 689 230 689 198.5 662 c 128,-1,54
 167 635 167 635 148.5 598.5 c 128,-1,55
 130 562 130 562 130 518 c 0,56,57
 130 498 130 498 134 480 c 128,-1,58
 138 462 138 462 146.5 442 c 128,-1,59
 155 422 155 422 168.5 399.5 c 128,-1,60
 182 377 182 377 201 350 c 2,61,-1
 437 0 l 1,30,-1
491 311 m 1,62,-1
 663 311 l 1,63,-1
 678 416 l 1,64,-1
 506 416 l 1,65,-1
 491 311 l 1,62,-1
EndSplineSet
EndChar

StartChar: quotesingle
Encoding: 39 39 10
Width: 244
GlyphClass: 1
Flags: W
LayerCount: 2
Fore
SplineSet
141 501 m 1,0,-1
 294 725 l 1,1,-1
 167 725 l 1,2,-1
 75 501 l 1,3,-1
 141 501 l 1,0,-1
EndSplineSet
EndChar

StartChar: parenleft
Encoding: 40 40 11
Width: 313
GlyphClass: 1
Flags: W
LayerCount: 2
Fore
SplineSet
32 264 m 0,0,1
 32 224 32 224 37.5 182 c 128,-1,2
 43 140 43 140 52.5 98.5 c 128,-1,3
 62 57 62 57 74.5 17.5 c 128,-1,4
 87 -22 87 -22 102 -56 c 1,5,-1
 223 -3 l 1,6,7
 212 32 212 32 202.5 67.5 c 128,-1,8
 193 103 193 103 186 138 c 128,-1,9
 179 173 179 173 175.5 207 c 128,-1,10
 172 241 172 241 172 272 c 0,11,12
 172 322 172 322 188 376 c 128,-1,13
 204 430 204 430 231.5 486.5 c 128,-1,14
 259 543 259 543 297 600.5 c 128,-1,15
 335 658 335 658 378 714 c 1,16,-1
 275 761 l 1,17,18
 224 696 224 696 180 634.5 c 128,-1,19
 136 573 136 573 103 513 c 128,-1,20
 70 453 70 453 51 391 c 128,-1,21
 32 329 32 329 32 264 c 0,0,1
EndSplineSet
EndChar

StartChar: parenright
Encoding: 41 41 12
Width: 312
GlyphClass: 1
Flags: W
LayerCount: 2
Fore
SplineSet
300 431 m 0,0,1
 300 509 300 509 280.5 594.5 c 128,-1,2
 261 680 261 680 234 761 c 1,3,-1
 109 714 l 1,4,5
 116 696 116 696 124.5 665 c 128,-1,6
 133 634 133 634 141 594.5 c 128,-1,7
 149 555 149 555 154 511 c 128,-1,8
 159 467 159 467 159 425 c 0,9,10
 159 368 159 368 144 315.5 c 128,-1,11
 129 263 129 263 102.5 211 c 128,-1,12
 76 159 76 159 39.5 106.5 c 128,-1,13
 3 54 3 54 -39 -3 c 1,14,-1
 58 -56 l 1,15,16
 105 -1 105 -1 148.5 57.5 c 128,-1,17
 192 116 192 116 226 176.5 c 128,-1,18
 260 237 260 237 280 300.5 c 128,-1,19
 300 364 300 364 300 431 c 0,0,1
EndSplineSet
EndChar

StartChar: asterisk
Encoding: 42 42 13
Width: 342
GlyphClass: 1
Flags: W
LayerCount: 2
Fore
SplineSet
164 478 m 1,0,-1
 225 554 l 1,1,-1
 253 478 l 1,2,-1
 317 515 l 1,3,-1
 287 587 l 1,4,-1
 358 609 l 1,5,-1
 353 672 l 1,6,-1
 276 639 l 1,7,-1
 298 718 l 1,8,-1
 221 718 l 1,9,-1
 210 639 l 1,10,-1
 147 672 l 1,11,-1
 114 609 l 1,12,-1
 177 587 l 1,13,-1
 117 515 l 1,14,-1
 164 478 l 1,0,-1
EndSplineSet
EndChar

StartChar: plus
Encoding: 43 43 14
Width: 430
GlyphClass: 1
Flags: W
LayerCount: 2
Fore
SplineSet
292 414 m 1,0,-1
 292 523 l 1,1,-1
 158 523 l 1,2,-1
 158 414 l 1,3,-1
 60 414 l 1,4,-1
 60 296 l 1,5,-1
 158 296 l 1,6,-1
 158 187 l 1,7,-1
 292 187 l 1,8,-1
 292 296 l 1,9,-1
 390 296 l 1,10,-1
 390 414 l 1,11,-1
 292 414 l 1,0,-1
EndSplineSet
EndChar

StartChar: comma
Encoding: 44 44 15
Width: 239
GlyphClass: 1
Flags: W
LayerCount: 2
Fore
SplineSet
54 -160 m 1,0,-1
 223 100 l 1,1,-1
 95 100 l 1,2,-1
 -13 -160 l 1,3,-1
 54 -160 l 1,0,-1
EndSplineSet
EndChar

StartChar: hyphen
Encoding: 45 45 16
Width: 401
GlyphClass: 1
Flags: W
LayerCount: 2
Fore
SplineSet
327 208 m 1,0,-1
 355 342 l 1,1,-1
 63 342 l 1,2,-1
 35 208 l 1,3,-1
 327 208 l 1,0,-1
EndSplineSet
EndChar

StartChar: period
Encoding: 46 46 17
Width: 233
GlyphClass: 1
Flags: W
LayerCount: 2
Fore
SplineSet
36 69 m 0,0,1
 30 36 30 36 47.5 13 c 128,-1,2
 65 -10 65 -10 98 -10 c 256,3,4
 131 -10 131 -10 159 13 c 128,-1,5
 187 36 187 36 194 69 c 0,6,7
 201 101 201 101 183 124.5 c 128,-1,8
 165 148 165 148 132 148 c 256,9,10
 99 148 99 148 71 124.5 c 128,-1,11
 43 101 43 101 36 69 c 0,0,1
EndSplineSet
EndChar

StartChar: slash
Encoding: 47 47 18
Width: 714
GlyphClass: 1
Flags: W
LayerCount: 2
Fore
SplineSet
602 710 m 1,0,-1
 -27 0 l 1,1,-1
 137 0 l 1,2,-1
 767 710 l 1,3,-1
 602 710 l 1,0,-1
EndSplineSet
Substitution2: "'frac' Diagonal Fractions lookup 23 subtable" fraction
Substitution2: "'aalt' Access All Alternates lookup 0 subtable" fraction
EndChar

StartChar: zero
Encoding: 48 48 19
Width: 679
GlyphClass: 1
Flags: W
LayerCount: 2
Fore
SplineSet
274 -10 m 0,0,1
 353 -10 353 -10 423 29 c 128,-1,2
 493 68 493 68 545 130 c 128,-1,3
 597 192 597 192 627 268.5 c 128,-1,4
 657 345 657 345 657 418 c 0,5,6
 657 469 657 469 644 521 c 128,-1,7
 631 573 631 573 603 615 c 128,-1,8
 575 657 575 657 531 683.5 c 128,-1,9
 487 710 487 710 426 710 c 0,10,11
 347 710 347 710 277 670.5 c 128,-1,12
 207 631 207 631 155 568.5 c 128,-1,13
 103 506 103 506 72.5 429.5 c 128,-1,14
 42 353 42 353 42 279 c 0,15,16
 42 227 42 227 55.5 175.5 c 128,-1,17
 69 124 69 124 97 83 c 128,-1,18
 125 42 125 42 169 16 c 128,-1,19
 213 -10 213 -10 274 -10 c 0,0,1
302 126 m 0,20,21
 274 126 274 126 254 138 c 128,-1,22
 234 150 234 150 221.5 170.5 c 128,-1,23
 209 191 209 191 203.5 217.5 c 128,-1,24
 198 244 198 244 198 274 c 0,25,26
 198 315 198 315 211.5 367.5 c 128,-1,27
 225 420 225 420 250.5 465.5 c 128,-1,28
 276 511 276 511 313 542.5 c 128,-1,29
 350 574 350 574 398 574 c 0,30,31
 425 574 425 574 444.5 560 c 128,-1,32
 464 546 464 546 477 523 c 128,-1,33
 490 500 490 500 495.5 471 c 128,-1,34
 501 442 501 442 501 411 c 0,35,36
 501 370 501 370 487.5 320.5 c 128,-1,37
 474 271 474 271 448.5 227.5 c 128,-1,38
 423 184 423 184 386 155 c 128,-1,39
 349 126 349 126 302 126 c 0,20,21
EndSplineSet
Substitution2: "'frac' Diagonal Fractions lookup 24 subtable" zero.numr
Substitution2: "'dnom' Denominators lookup 22 subtable" zero.dnom
Substitution2: "'numr' Numerators lookup 21 subtable" zero.numr
Substitution2: "'sups' Superscript lookup 20 subtable" uni2070
Substitution2: "'sinf' Scientific Inferiors lookup 19 subtable" zero.subs
Substitution2: "'subs' Subscript lookup 18 subtable" uni2080
AlternateSubs2: "'aalt' Access All Alternates lookup 1 subtable" uni2080 zero.subs uni2070 zero.numr zero.dnom
EndChar

StartChar: one
Encoding: 49 49 20
Width: 442
GlyphClass: 1
Flags: W
LayerCount: 2
Fore
SplineSet
133 0 m 1,0,-1
 285 0 l 1,1,-1
 437 716 l 1,2,-1
 285 716 l 2,3,4
 284 715 284 715 266 699.5 c 128,-1,5
 248 684 248 684 222 666.5 c 128,-1,6
 196 649 196 649 166 634.5 c 128,-1,7
 136 620 136 620 110 620 c 1,8,-1
 81 483 l 1,9,10
 100 483 100 483 125.5 492 c 128,-1,11
 151 501 151 501 176 514.5 c 128,-1,12
 201 528 201 528 222.5 542.5 c 128,-1,13
 244 557 244 557 254 569 c 1,14,-1
 133 0 l 1,0,-1
EndSplineSet
Substitution2: "'frac' Diagonal Fractions lookup 24 subtable" one.numr
Substitution2: "'dnom' Denominators lookup 22 subtable" one.dnom
Substitution2: "'numr' Numerators lookup 21 subtable" one.numr
Substitution2: "'sups' Superscript lookup 20 subtable" onesuperior
Substitution2: "'sinf' Scientific Inferiors lookup 19 subtable" one.subs
Substitution2: "'subs' Subscript lookup 18 subtable" uni2081
AlternateSubs2: "'aalt' Access All Alternates lookup 1 subtable" uni2081 one.subs onesuperior one.numr one.dnom
EndChar

StartChar: two
Encoding: 50 50 21
Width: 594
GlyphClass: 1
Flags: W
LayerCount: 2
Fore
SplineSet
-22 0 m 1,0,-1
 480 0 l 1,1,-1
 508 134 l 1,2,-1
 188 134 l 1,3,4
 192 157 192 157 211 176.5 c 128,-1,5
 230 196 230 196 258 213.5 c 128,-1,6
 286 231 286 231 319.5 247 c 128,-1,7
 353 263 353 263 386 279 c 0,8,9
 433 304 433 304 471 328.5 c 128,-1,10
 509 353 509 353 535.5 383.5 c 128,-1,11
 562 414 562 414 576.5 453 c 128,-1,12
 591 492 591 492 591 546 c 0,13,14
 591 585 591 585 578.5 617 c 128,-1,15
 566 649 566 649 542 671.5 c 128,-1,16
 518 694 518 694 482 706 c 128,-1,17
 446 718 446 718 399 718 c 0,18,19
 350 718 350 718 305.5 707 c 128,-1,20
 261 696 261 696 223.5 678 c 128,-1,21
 186 660 186 660 156.5 640 c 128,-1,22
 127 620 127 620 107 602 c 1,23,-1
 179 503 l 1,24,25
 195 518 195 518 215 532 c 128,-1,26
 235 546 235 546 257 558 c 128,-1,27
 279 570 279 570 303 577.5 c 128,-1,28
 327 585 327 585 350 585 c 0,29,30
 366 585 366 585 378.5 580.5 c 128,-1,31
 391 576 391 576 399.5 567 c 128,-1,32
 408 558 408 558 413 545.5 c 128,-1,33
 418 533 418 533 418 517 c 0,34,35
 418 479 418 479 401 452 c 128,-1,36
 384 425 384 425 356 405 c 128,-1,37
 328 385 328 385 292.5 368.5 c 128,-1,38
 257 352 257 352 219 335 c 0,39,40
 162 309 162 309 123 279.5 c 128,-1,41
 84 250 84 250 56.5 211 c 128,-1,42
 29 172 29 172 11 120.5 c 128,-1,43
 -7 69 -7 69 -22 0 c 1,0,-1
EndSplineSet
Substitution2: "'frac' Diagonal Fractions lookup 24 subtable" two.numr
Substitution2: "'dnom' Denominators lookup 22 subtable" two.dnom
Substitution2: "'numr' Numerators lookup 21 subtable" two.numr
Substitution2: "'sups' Superscript lookup 20 subtable" twosuperior
Substitution2: "'sinf' Scientific Inferiors lookup 19 subtable" two.subs
Substitution2: "'subs' Subscript lookup 18 subtable" uni2082
AlternateSubs2: "'aalt' Access All Alternates lookup 1 subtable" uni2082 two.subs twosuperior two.numr two.dnom
EndChar

StartChar: three
Encoding: 51 51 22
Width: 544
GlyphClass: 1
Flags: W
LayerCount: 2
Fore
SplineSet
182 -9 m 0,0,1
 249 -9 249 -9 305 8.5 c 128,-1,2
 361 26 361 26 401.5 58 c 128,-1,3
 442 90 442 90 464.5 134.5 c 128,-1,4
 487 179 487 179 487 234 c 0,5,6
 487 288 487 288 460.5 327 c 128,-1,7
 434 366 434 366 387 375 c 1,8,9
 420 381 420 381 449 399 c 128,-1,10
 478 417 478 417 500 443 c 128,-1,11
 522 469 522 469 534.5 501 c 128,-1,12
 547 533 547 533 547 567 c 0,13,14
 547 600 547 600 534 627 c 128,-1,15
 521 654 521 654 496.5 673.5 c 128,-1,16
 472 693 472 693 436.5 703.5 c 128,-1,17
 401 714 401 714 356 714 c 0,18,19
 318 714 318 714 281 707 c 128,-1,20
 244 700 244 700 210 686.5 c 128,-1,21
 176 673 176 673 147.5 655 c 128,-1,22
 119 637 119 637 99 615 c 1,23,-1
 170 508 l 1,24,25
 200 546 200 546 236.5 566 c 128,-1,26
 273 586 273 586 312 586 c 0,27,28
 344 586 344 586 362 571.5 c 128,-1,29
 380 557 380 557 380 529 c 0,30,31
 380 506 380 506 370.5 487 c 128,-1,32
 361 468 361 468 343 453.5 c 128,-1,33
 325 439 325 439 300.5 431 c 128,-1,34
 276 423 276 423 246 423 c 2,35,-1
 197 423 l 1,36,-1
 174 314 l 1,37,-1
 219 314 l 2,38,39
 279 314 279 314 307 294 c 128,-1,40
 335 274 335 274 335 237 c 0,41,42
 335 211 335 211 326.5 190.5 c 128,-1,43
 318 170 318 170 302 156 c 128,-1,44
 286 142 286 142 261.5 134.5 c 128,-1,45
 237 127 237 127 204 127 c 0,46,47
 158 127 158 127 128.5 143 c 128,-1,48
 99 159 99 159 79 189 c 1,49,-1
 -24 83 l 1,50,51
 7 37 7 37 58 14 c 128,-1,52
 109 -9 109 -9 182 -9 c 0,0,1
EndSplineSet
Substitution2: "'frac' Diagonal Fractions lookup 24 subtable" three.numr
Substitution2: "'dnom' Denominators lookup 22 subtable" three.dnom
Substitution2: "'numr' Numerators lookup 21 subtable" three.numr
Substitution2: "'sups' Superscript lookup 20 subtable" threesuperior
Substitution2: "'sinf' Scientific Inferiors lookup 19 subtable" three.subs
Substitution2: "'subs' Subscript lookup 18 subtable" uni2083
AlternateSubs2: "'aalt' Access All Alternates lookup 1 subtable" uni2083 three.subs threesuperior three.numr three.dnom
EndChar

StartChar: four
Encoding: 52 52 23
Width: 567
GlyphClass: 1
Flags: W
LayerCount: 2
Fore
SplineSet
380 1 m 1,0,-1
 413 155 l 1,1,-1
 497 155 l 1,2,-1
 525 289 l 1,3,-1
 441 289 l 1,4,-1
 531 711 l 1,5,-1
 429 711 l 1,6,-1
 24 288 l 1,7,-1
 -4 155 l 1,8,-1
 264 155 l 1,9,-1
 231 1 l 1,10,-1
 380 1 l 1,0,-1
173 289 m 1,11,-1
 351 486 l 1,12,-1
 309 289 l 1,13,-1
 173 289 l 1,11,-1
EndSplineSet
Substitution2: "'frac' Diagonal Fractions lookup 24 subtable" four.numr
Substitution2: "'dnom' Denominators lookup 22 subtable" four.dnom
Substitution2: "'numr' Numerators lookup 21 subtable" four.numr
Substitution2: "'sups' Superscript lookup 20 subtable" uni2074
Substitution2: "'sinf' Scientific Inferiors lookup 19 subtable" four.subs
Substitution2: "'subs' Subscript lookup 18 subtable" uni2084
AlternateSubs2: "'aalt' Access All Alternates lookup 1 subtable" uni2084 four.subs uni2074 four.numr four.dnom
EndChar

StartChar: five
Encoding: 53 53 24
Width: 550
GlyphClass: 1
Flags: W
LayerCount: 2
Fore
SplineSet
190 -9 m 0,0,1
 254 -9 254 -9 310.5 12.5 c 128,-1,2
 367 34 367 34 409.5 72.5 c 128,-1,3
 452 111 452 111 477 163 c 128,-1,4
 502 215 502 215 502 278 c 0,5,6
 502 318 502 318 489 352 c 128,-1,7
 476 386 476 386 452.5 410 c 128,-1,8
 429 434 429 434 395.5 447.5 c 128,-1,9
 362 461 362 461 321 461 c 0,10,11
 293 461 293 461 274.5 454 c 128,-1,12
 256 447 256 447 247 438 c 1,13,-1
 296 574 l 1,14,-1
 523 574 l 1,15,-1
 552 711 l 1,16,-1
 217 711 l 1,17,18
 208 688 208 688 194.5 655 c 128,-1,19
 181 622 181 622 166 582.5 c 128,-1,20
 151 543 151 543 134 501 c 128,-1,21
 117 459 117 459 101.5 418.5 c 128,-1,22
 86 378 86 378 72 343 c 128,-1,23
 58 308 58 308 48 283 c 1,24,-1
 177 283 l 1,25,26
 195 307 195 307 220.5 320 c 128,-1,27
 246 333 246 333 273 333 c 0,28,29
 290 333 290 333 303 327 c 128,-1,30
 316 321 316 321 325.5 310.5 c 128,-1,31
 335 300 335 300 340 285 c 128,-1,32
 345 270 345 270 345 252 c 0,33,34
 345 224 345 224 335 200.5 c 128,-1,35
 325 177 325 177 308 159.5 c 128,-1,36
 291 142 291 142 268.5 132 c 128,-1,37
 246 122 246 122 219 122 c 0,38,39
 180 122 180 122 147.5 143.5 c 128,-1,40
 115 165 115 165 97 202 c 1,41,-1
 -7 111 l 1,42,43
 13 54 13 54 65 22.5 c 128,-1,44
 117 -9 117 -9 190 -9 c 0,0,1
EndSplineSet
Substitution2: "'frac' Diagonal Fractions lookup 24 subtable" five.numr
Substitution2: "'dnom' Denominators lookup 22 subtable" five.dnom
Substitution2: "'numr' Numerators lookup 21 subtable" five.numr
Substitution2: "'sups' Superscript lookup 20 subtable" uni2075
Substitution2: "'sinf' Scientific Inferiors lookup 19 subtable" five.subs
Substitution2: "'subs' Subscript lookup 18 subtable" uni2085
AlternateSubs2: "'aalt' Access All Alternates lookup 1 subtable" uni2085 five.subs uni2075 five.numr five.dnom
EndChar

StartChar: six
Encoding: 54 54 25
Width: 592
GlyphClass: 1
Flags: W
LayerCount: 2
Fore
SplineSet
236 -10 m 0,0,1
 189 -10 189 -10 153 6.5 c 128,-1,2
 117 23 117 23 92.5 53.5 c 128,-1,3
 68 84 68 84 55 128 c 128,-1,4
 42 172 42 172 42 227 c 0,5,6
 42 328 42 328 68.5 417 c 128,-1,7
 95 506 95 506 143 572.5 c 128,-1,8
 191 639 191 639 257.5 677.5 c 128,-1,9
 324 716 324 716 405 716 c 0,10,11
 468 716 468 716 516 688 c 128,-1,12
 564 660 564 660 593 608 c 1,13,-1
 488 513 l 1,14,15
 472 548 472 548 442.5 567 c 128,-1,16
 413 586 413 586 375 586 c 0,17,18
 347 586 347 586 321 574.5 c 128,-1,19
 295 563 295 563 273 539.5 c 128,-1,20
 251 516 251 516 233 483 c 128,-1,21
 215 450 215 450 204 407 c 1,22,23
 217 423 217 423 233.5 435 c 128,-1,24
 250 447 250 447 269.5 456 c 128,-1,25
 289 465 289 465 310 469 c 128,-1,26
 331 473 331 473 351 473 c 0,27,28
 394 473 394 473 430 458.5 c 128,-1,29
 466 444 466 444 491 418 c 128,-1,30
 516 392 516 392 529.5 357 c 128,-1,31
 543 322 543 322 543 280 c 0,32,33
 543 222 543 222 517.5 169 c 128,-1,34
 492 116 492 116 449.5 76 c 128,-1,35
 407 36 407 36 351.5 13 c 128,-1,36
 296 -10 296 -10 236 -10 c 0,0,1
263 116 m 0,37,38
 287 116 287 116 311.5 127.5 c 128,-1,39
 336 139 336 139 355 159 c 128,-1,40
 374 179 374 179 386 205.5 c 128,-1,41
 398 232 398 232 398 260 c 0,42,43
 398 280 398 280 392 297.5 c 128,-1,44
 386 315 386 315 374.5 328 c 128,-1,45
 363 341 363 341 347.5 348.5 c 128,-1,46
 332 356 332 356 313 356 c 0,47,48
 288 356 288 356 264 344.5 c 128,-1,49
 240 333 240 333 221 313.5 c 128,-1,50
 202 294 202 294 190.5 268.5 c 128,-1,51
 179 243 179 243 179 215 c 0,52,53
 179 195 179 195 185 176.5 c 128,-1,54
 191 158 191 158 202 145 c 128,-1,55
 213 132 213 132 228.5 124 c 128,-1,56
 244 116 244 116 263 116 c 0,37,38
EndSplineSet
Substitution2: "'frac' Diagonal Fractions lookup 24 subtable" six.numr
Substitution2: "'dnom' Denominators lookup 22 subtable" six.dnom
Substitution2: "'numr' Numerators lookup 21 subtable" six.numr
Substitution2: "'sups' Superscript lookup 20 subtable" uni2076
Substitution2: "'sinf' Scientific Inferiors lookup 19 subtable" six.subs
Substitution2: "'subs' Subscript lookup 18 subtable" uni2086
AlternateSubs2: "'aalt' Access All Alternates lookup 1 subtable" uni2086 six.subs uni2076 six.numr six.dnom
EndChar

StartChar: seven
Encoding: 55 55 26
Width: 557
GlyphClass: 1
Flags: W
LayerCount: 2
Fore
SplineSet
-10 1 m 1,0,-1
 158 1 l 1,1,-1
 643 711 l 1,2,-1
 121 711 l 1,3,-1
 92 574 l 1,4,-1
 378 574 l 1,5,-1
 -10 1 l 1,0,-1
EndSplineSet
Substitution2: "'frac' Diagonal Fractions lookup 24 subtable" seven.numr
Substitution2: "'dnom' Denominators lookup 22 subtable" seven.dnom
Substitution2: "'numr' Numerators lookup 21 subtable" seven.numr
Substitution2: "'sups' Superscript lookup 20 subtable" uni2077
Substitution2: "'sinf' Scientific Inferiors lookup 19 subtable" seven.subs
Substitution2: "'subs' Subscript lookup 18 subtable" uni2087
AlternateSubs2: "'aalt' Access All Alternates lookup 1 subtable" uni2087 seven.subs uni2077 seven.numr seven.dnom
EndChar

StartChar: eight
Encoding: 56 56 27
Width: 585
GlyphClass: 1
Flags: W
LayerCount: 2
Fore
SplineSet
526 246 m 0,0,1
 526 292 526 292 506.5 326.5 c 128,-1,2
 487 361 487 361 461 379 c 1,3,4
 481 390 481 390 501 406.5 c 128,-1,5
 521 423 521 423 536.5 444 c 128,-1,6
 552 465 552 465 561 490.5 c 128,-1,7
 570 516 570 516 570 542 c 0,8,9
 570 583 570 583 553 614.5 c 128,-1,10
 536 646 536 646 509 667 c 128,-1,11
 482 688 482 688 447.5 699 c 128,-1,12
 413 710 413 710 378 710 c 0,13,14
 336 710 336 710 287.5 695 c 128,-1,15
 239 680 239 680 198 651 c 128,-1,16
 157 622 157 622 130.5 580 c 128,-1,17
 104 538 104 538 104 484 c 0,18,19
 104 451 104 451 118 422.5 c 128,-1,20
 132 394 132 394 155 379 c 1,21,22
 133 367 133 367 109.5 348.5 c 128,-1,23
 86 330 86 330 65.5 305.5 c 128,-1,24
 45 281 45 281 32.5 249.5 c 128,-1,25
 20 218 20 218 20 180 c 0,26,27
 20 137 20 137 35.5 102.5 c 128,-1,28
 51 68 51 68 78 43 c 128,-1,29
 105 18 105 18 143 4.5 c 128,-1,30
 181 -9 181 -9 225 -9 c 0,31,32
 283 -9 283 -9 337.5 10 c 128,-1,33
 392 29 392 29 434 62.5 c 128,-1,34
 476 96 476 96 501 143 c 128,-1,35
 526 190 526 190 526 246 c 0,0,1
375 241 m 0,36,37
 375 217 375 217 365 195.5 c 128,-1,38
 355 174 355 174 337.5 159 c 128,-1,39
 320 144 320 144 298.5 135 c 128,-1,40
 277 126 277 126 255 126 c 0,41,42
 238 126 238 126 223.5 131.5 c 128,-1,43
 209 137 209 137 198.5 147.5 c 128,-1,44
 188 158 188 158 181.5 172.5 c 128,-1,45
 175 187 175 187 175 204 c 0,46,47
 175 229 175 229 185.5 250 c 128,-1,48
 196 271 196 271 212.5 286 c 128,-1,49
 229 301 229 301 250.5 309.5 c 128,-1,50
 272 318 272 318 295 318 c 0,51,52
 312 318 312 318 326.5 313 c 128,-1,53
 341 308 341 308 351.5 298 c 128,-1,54
 362 288 362 288 368.5 273.5 c 128,-1,55
 375 259 375 259 375 241 c 0,36,37
255 490 m 0,56,57
 255 509 255 509 263.5 525.5 c 128,-1,58
 272 542 272 542 285 553.5 c 128,-1,59
 298 565 298 565 315 571.5 c 128,-1,60
 332 578 332 578 350 578 c 0,61,62
 365 578 365 578 377 574 c 128,-1,63
 389 570 389 570 397.5 562 c 128,-1,64
 406 554 406 554 410.5 543 c 128,-1,65
 415 532 415 532 415 519 c 0,66,67
 415 497 415 497 406 480.5 c 128,-1,68
 397 464 397 464 383 452.5 c 128,-1,69
 369 441 369 441 351.5 435.5 c 128,-1,70
 334 430 334 430 319 430 c 0,71,72
 307 430 307 430 296 433.5 c 128,-1,73
 285 437 285 437 276 445 c 128,-1,74
 267 453 267 453 261 464.5 c 128,-1,75
 255 476 255 476 255 490 c 0,56,57
EndSplineSet
Substitution2: "'frac' Diagonal Fractions lookup 24 subtable" eight.numr
Substitution2: "'dnom' Denominators lookup 22 subtable" eight.dnom
Substitution2: "'numr' Numerators lookup 21 subtable" eight.numr
Substitution2: "'sups' Superscript lookup 20 subtable" uni2078
Substitution2: "'sinf' Scientific Inferiors lookup 19 subtable" eight.subs
Substitution2: "'subs' Subscript lookup 18 subtable" uni2088
AlternateSubs2: "'aalt' Access All Alternates lookup 1 subtable" uni2088 eight.subs uni2078 eight.numr eight.dnom
EndChar

StartChar: nine
Encoding: 57 57 28
Width: 574
GlyphClass: 1
Flags: W
LayerCount: 2
Fore
SplineSet
210 -9 m 0,0,1
 147 -9 147 -9 99 18.5 c 128,-1,2
 51 46 51 46 21 99 c 1,3,-1
 126 194 l 1,4,5
 142 159 142 159 171.5 139.5 c 128,-1,6
 201 120 201 120 240 120 c 0,7,8
 268 120 268 120 295 132.5 c 128,-1,9
 322 145 322 145 345 167.5 c 128,-1,10
 368 190 368 190 385 223.5 c 128,-1,11
 402 257 402 257 411 299 c 1,12,13
 398 284 398 284 381 272 c 128,-1,14
 364 260 364 260 345 251 c 128,-1,15
 326 242 326 242 305 237.5 c 128,-1,16
 284 233 284 233 263 233 c 0,17,18
 220 233 220 233 184.5 248 c 128,-1,19
 149 263 149 263 124 289 c 128,-1,20
 99 315 99 315 85.5 350 c 128,-1,21
 72 385 72 385 72 426 c 0,22,23
 72 485 72 485 97.5 538 c 128,-1,24
 123 591 123 591 165 630.5 c 128,-1,25
 207 670 207 670 262.5 693.5 c 128,-1,26
 318 717 318 717 379 717 c 0,27,28
 426 717 426 717 461.5 701 c 128,-1,29
 497 685 497 685 522 654 c 128,-1,30
 547 623 547 623 559.5 579 c 128,-1,31
 572 535 572 535 572 480 c 0,32,33
 572 379 572 379 545.5 290 c 128,-1,34
 519 201 519 201 471.5 134.5 c 128,-1,35
 424 68 424 68 357.5 29.5 c 128,-1,36
 291 -9 291 -9 210 -9 c 0,0,1
301 351 m 0,37,38
 326 351 326 351 350.5 362.5 c 128,-1,39
 375 374 375 374 393.5 393.5 c 128,-1,40
 412 413 412 413 423.5 438 c 128,-1,41
 435 463 435 463 435 491 c 0,42,43
 435 512 435 512 429 530.5 c 128,-1,44
 423 549 423 549 412 562 c 128,-1,45
 401 575 401 575 385.5 583 c 128,-1,46
 370 591 370 591 351 591 c 0,47,48
 328 591 328 591 303.5 579.5 c 128,-1,49
 279 568 279 568 259.5 547.5 c 128,-1,50
 240 527 240 527 228 501 c 128,-1,51
 216 475 216 475 216 447 c 0,52,53
 216 426 216 426 222.5 409 c 128,-1,54
 229 392 229 392 240 379 c 128,-1,55
 251 366 251 366 266.5 358.5 c 128,-1,56
 282 351 282 351 301 351 c 0,37,38
EndSplineSet
Substitution2: "'frac' Diagonal Fractions lookup 24 subtable" nine.numr
Substitution2: "'dnom' Denominators lookup 22 subtable" nine.dnom
Substitution2: "'numr' Numerators lookup 21 subtable" nine.numr
Substitution2: "'sups' Superscript lookup 20 subtable" uni2079
Substitution2: "'sinf' Scientific Inferiors lookup 19 subtable" nine.subs
Substitution2: "'subs' Subscript lookup 18 subtable" uni2089
AlternateSubs2: "'aalt' Access All Alternates lookup 1 subtable" uni2089 nine.subs uni2079 nine.numr nine.dnom
EndChar

StartChar: less
Encoding: 60 60 31
Width: 551
GlyphClass: 1
Flags: W
LayerCount: 2
Fore
SplineSet
29 220 m 1,0,-1
 451 -30 l 1,1,-1
 451 136 l 1,2,-1
 246 259 l 1,3,-1
 451 388 l 1,4,-1
 451 547 l 1,5,-1
 29 291 l 1,6,-1
 29 220 l 1,0,-1
EndSplineSet
EndChar

StartChar: equal
Encoding: 61 61 32
Width: 487
GlyphClass: 1
Flags: W
LayerCount: 2
Fore
SplineSet
395 132 m 1,0,-1
 395 228 l 1,1,-1
 79 228 l 1,2,-1
 79 132 l 1,3,-1
 395 132 l 1,0,-1
395 324 m 1,4,-1
 395 420 l 1,5,-1
 79 420 l 1,6,-1
 79 324 l 1,7,-1
 395 324 l 1,4,-1
EndSplineSet
EndChar

StartChar: greater
Encoding: 62 62 33
Width: 551
GlyphClass: 1
Flags: W
LayerCount: 2
Fore
SplineSet
503 291 m 1,0,-1
 81 547 l 1,1,-1
 81 388 l 1,2,-1
 287 259 l 1,3,-1
 81 136 l 1,4,-1
 81 -30 l 1,5,-1
 503 220 l 1,6,-1
 503 291 l 1,0,-1
EndSplineSet
EndChar

StartChar: question
Encoding: 63 63 34
Width: 474
GlyphClass: 1
Flags: W
LayerCount: 2
Fore
SplineSet
213 240 m 1,0,1
 218 263 218 263 232 279 c 128,-1,2
 246 295 246 295 265 307.5 c 128,-1,3
 284 320 284 320 306.5 331 c 128,-1,4
 329 342 329 342 351 355 c 0,5,6
 377 370 377 370 398 386.5 c 128,-1,7
 419 403 419 403 435.5 422.5 c 128,-1,8
 452 442 452 442 463.5 466 c 128,-1,9
 475 490 475 490 481 520 c 0,10,11
 493 573 493 573 482.5 611 c 128,-1,12
 472 649 472 649 448.5 673 c 128,-1,13
 425 697 425 697 391.5 708 c 128,-1,14
 358 719 358 719 321 719 c 0,15,16
 288 719 288 719 255 710 c 128,-1,17
 222 701 222 701 192 684.5 c 128,-1,18
 162 668 162 668 136.5 644 c 128,-1,19
 111 620 111 620 93 590 c 1,20,-1
 170 523 l 1,21,22
 180 535 180 535 192.5 548 c 128,-1,23
 205 561 205 561 220 572.5 c 128,-1,24
 235 584 235 584 253 591 c 128,-1,25
 271 598 271 598 290 598 c 0,26,27
 307 598 307 598 320.5 593 c 128,-1,28
 334 588 334 588 343 578 c 128,-1,29
 352 568 352 568 356 554 c 128,-1,30
 360 540 360 540 356 522 c 0,31,32
 351 496 351 496 332.5 475.5 c 128,-1,33
 314 455 314 455 291 439.5 c 128,-1,34
 268 424 268 424 244.5 413 c 128,-1,35
 221 402 221 402 206 394 c 0,36,37
 179 379 179 379 160 362 c 128,-1,38
 141 345 141 345 128.5 326 c 128,-1,39
 116 307 116 307 108.5 285 c 128,-1,40
 101 263 101 263 95 240 c 1,41,-1
 213 240 l 1,0,1
45 69 m 0,42,43
 38 36 38 36 55 13 c 128,-1,44
 72 -10 72 -10 104 -10 c 0,45,46
 120 -10 120 -10 135 -3.5 c 128,-1,47
 150 3 150 3 162.5 13.5 c 128,-1,48
 175 24 175 24 184 38.5 c 128,-1,49
 193 53 193 53 197 69 c 0,50,51
 203 101 203 101 186 124.5 c 128,-1,52
 169 148 169 148 138 148 c 0,53,54
 122 148 122 148 106.5 141.5 c 128,-1,55
 91 135 91 135 78.5 124.5 c 128,-1,56
 66 114 66 114 57 100 c 128,-1,57
 48 86 48 86 45 69 c 0,42,43
EndSplineSet
EndChar

StartChar: at
Encoding: 64 64 35
Width: 815
GlyphClass: 1
Flags: W
LayerCount: 2
Fore
SplineSet
580 50 m 0,0,1
 565 50 565 50 556.5 59.5 c 128,-1,2
 548 69 548 69 548 88 c 0,3,4
 548 94 548 94 549 103 c 128,-1,5
 550 112 550 112 552 121 c 2,6,-1
 618 450 l 1,7,-1
 546 450 l 1,8,-1
 532 381 l 1,9,10
 523 418 523 418 491 441 c 128,-1,11
 459 464 459 464 410 464 c 256,12,13
 361 464 361 464 316 440.5 c 128,-1,14
 271 417 271 417 236 378 c 128,-1,15
 201 339 201 339 180.5 287.5 c 128,-1,16
 160 236 160 236 160 180 c 0,17,18
 160 141 160 141 171 107 c 128,-1,19
 182 73 182 73 203 48.5 c 128,-1,20
 224 24 224 24 253.5 10 c 128,-1,21
 283 -4 283 -4 320 -4 c 0,22,23
 361 -4 361 -4 400 13.5 c 128,-1,24
 439 31 439 31 478 65 c 1,25,26
 476 62 476 62 476 58 c 128,-1,27
 476 54 476 54 476 49 c 0,28,29
 476 16 476 16 497.5 0 c 128,-1,30
 519 -16 519 -16 552 -16 c 0,31,32
 586 -16 586 -16 614.5 -1 c 128,-1,33
 643 14 643 14 666.5 39 c 128,-1,34
 690 64 690 64 707.5 97 c 128,-1,35
 725 130 725 130 737 166.5 c 128,-1,36
 749 203 749 203 755 240.5 c 128,-1,37
 761 278 761 278 761 312 c 0,38,39
 761 376 761 376 740.5 429.5 c 128,-1,40
 720 483 720 483 682 521.5 c 128,-1,41
 644 560 644 560 589 581.5 c 128,-1,42
 534 603 534 603 465 603 c 0,43,44
 379 603 379 603 298 569 c 128,-1,45
 217 535 217 535 155.5 475.5 c 128,-1,46
 94 416 94 416 56.5 334 c 128,-1,47
 19 252 19 252 19 157 c 0,48,49
 19 88 19 88 39 32.5 c 128,-1,50
 59 -23 59 -23 95.5 -63 c 128,-1,51
 132 -103 132 -103 184 -124.5 c 128,-1,52
 236 -146 236 -146 299 -146 c 0,53,54
 342 -146 342 -146 385.5 -136 c 128,-1,55
 429 -126 429 -126 471 -106 c 1,56,-1
 465 -50 l 1,57,58
 422 -69 422 -69 386 -78.5 c 128,-1,59
 350 -88 350 -88 311 -88 c 0,60,61
 257 -88 257 -88 214.5 -70 c 128,-1,62
 172 -52 172 -52 142.5 -18.5 c 128,-1,63
 113 15 113 15 97 61.5 c 128,-1,64
 81 108 81 108 81 164 c 0,65,66
 81 244 81 244 111 313.5 c 128,-1,67
 141 383 141 383 192 434 c 128,-1,68
 243 485 243 485 310 515 c 128,-1,69
 377 545 377 545 451 545 c 0,70,71
 510 545 510 545 556 526 c 128,-1,72
 602 507 602 507 634 473.5 c 128,-1,73
 666 440 666 440 683 394.5 c 128,-1,74
 700 349 700 349 700 295 c 0,75,76
 700 255 700 255 690.5 212 c 128,-1,77
 681 169 681 169 665 133 c 128,-1,78
 649 97 649 97 627 73.5 c 128,-1,79
 605 50 605 50 580 50 c 0,0,1
351 69 m 0,80,81
 327 69 327 69 307.5 78.5 c 128,-1,82
 288 88 288 88 275 104.5 c 128,-1,83
 262 121 262 121 255.5 143 c 128,-1,84
 249 165 249 165 249 191 c 0,85,86
 249 231 249 231 262.5 265.5 c 128,-1,87
 276 300 276 300 298.5 325.5 c 128,-1,88
 321 351 321 351 348.5 366 c 128,-1,89
 376 381 376 381 404 381 c 0,90,91
 440 381 440 381 465 356.5 c 128,-1,92
 490 332 490 332 497 290 c 1,93,-1
 478 167 l 1,94,95
 469 145 469 145 456.5 127 c 128,-1,96
 444 109 444 109 427.5 96 c 128,-1,97
 411 83 411 83 392 76 c 128,-1,98
 373 69 373 69 351 69 c 0,80,81
EndSplineSet
EndChar

StartChar: A
Encoding: 65 65 36
Width: 642
GlyphClass: 1
Flags: W
LayerCount: 2
Fore
SplineSet
-55 0 m 1,0,-1
 102 0 l 1,1,-1
 190 167 l 1,2,-1
 403 167 l 1,3,-1
 421 0 l 1,4,-1
 578 0 l 1,5,-1
 481 710 l 1,6,-1
 343 710 l 1,7,-1
 -55 0 l 1,0,-1
236 273 m 1,8,-1
 375 536 l 1,9,-1
 400 273 l 1,10,-1
 236 273 l 1,8,-1
EndSplineSet
Substitution2: "Single Substitution lookup 46 subtable" ordfeminine
Substitution2: "'aalt' Access All Alternates lookup 0 subtable" ordfeminine
EndChar

StartChar: B
Encoding: 66 66 37
Width: 659
GlyphClass: 1
Flags: W
LayerCount: 2
Fore
SplineSet
6 0 m 1,0,-1
 334 0 l 2,1,2
 387 0 387 0 436.5 14 c 128,-1,3
 486 28 486 28 523.5 56 c 128,-1,4
 561 84 561 84 583.5 126 c 128,-1,5
 606 168 606 168 606 223 c 0,6,7
 606 276 606 276 582 313 c 128,-1,8
 558 350 558 350 514 364 c 1,9,10
 546 378 546 378 571 399.5 c 128,-1,11
 596 421 596 421 614 447.5 c 128,-1,12
 632 474 632 474 641.5 504 c 128,-1,13
 651 534 651 534 651 564 c 0,14,15
 651 592 651 592 643.5 618.5 c 128,-1,16
 636 645 636 645 621 665 c 128,-1,17
 606 685 606 685 583.5 697.5 c 128,-1,18
 561 710 561 710 531 710 c 2,19,-1
 157 710 l 1,20,-1
 6 0 l 1,0,-1
187 130 m 1,21,-1
 222 299 l 1,22,-1
 404 299 l 2,23,24
 416 299 416 299 425.5 293.5 c 128,-1,25
 435 288 435 288 441.5 279 c 128,-1,26
 448 270 448 270 451.5 258 c 128,-1,27
 455 246 455 246 455 232 c 0,28,29
 455 211 455 211 447 192 c 128,-1,30
 439 173 439 173 426 159 c 128,-1,31
 413 145 413 145 396 137.5 c 128,-1,32
 379 130 379 130 362 130 c 2,33,-1
 187 130 l 1,21,-1
248 419 m 1,34,-1
 282 579 l 1,35,-1
 443 579 l 2,36,37
 453 579 453 579 462 575 c 128,-1,38
 471 571 471 571 477.5 563.5 c 128,-1,39
 484 556 484 556 487.5 544.5 c 128,-1,40
 491 533 491 533 491 519 c 0,41,42
 491 495 491 495 483 476.5 c 128,-1,43
 475 458 475 458 463 445 c 128,-1,44
 451 432 451 432 435 425.5 c 128,-1,45
 419 419 419 419 403 419 c 2,46,-1
 248 419 l 1,34,-1
EndSplineSet
EndChar

StartChar: C
Encoding: 67 67 38
Width: 660
GlyphClass: 1
Flags: W
LayerCount: 2
Fore
SplineSet
300 -6 m 0,0,1
 342 -6 342 -6 387 4.5 c 128,-1,2
 432 15 432 15 474 35.5 c 128,-1,3
 516 56 516 56 552.5 87.5 c 128,-1,4
 589 119 589 119 614 159 c 1,5,-1
 504 232 l 1,6,7
 488 205 488 205 467 186 c 128,-1,8
 446 167 446 167 423.5 154.5 c 128,-1,9
 401 142 401 142 377 136 c 128,-1,10
 353 130 353 130 331 130 c 0,11,12
 297 130 297 130 270.5 144 c 128,-1,13
 244 158 244 158 226.5 182 c 128,-1,14
 209 206 209 206 200 238.5 c 128,-1,15
 191 271 191 271 191 307 c 0,16,17
 191 351 191 351 205.5 399 c 128,-1,18
 220 447 220 447 249 487 c 128,-1,19
 278 527 278 527 321.5 552.5 c 128,-1,20
 365 578 365 578 422 578 c 0,21,22
 444 578 444 578 465.5 573.5 c 128,-1,23
 487 569 487 569 505.5 558 c 128,-1,24
 524 547 524 547 537.5 527.5 c 128,-1,25
 551 508 551 508 558 478 c 1,26,-1
 690 559 l 1,27,28
 681 593 681 593 660.5 621.5 c 128,-1,29
 640 650 640 650 610 670.5 c 128,-1,30
 580 691 580 691 540.5 702.5 c 128,-1,31
 501 714 501 714 452 714 c 0,32,33
 360 714 360 714 283.5 676 c 128,-1,34
 207 638 207 638 151.5 578 c 128,-1,35
 96 518 96 518 65.5 443.5 c 128,-1,36
 35 369 35 369 35 294 c 0,37,38
 35 238 35 238 52 183.5 c 128,-1,39
 69 129 69 129 103 87 c 128,-1,40
 137 45 137 45 186.5 19.5 c 128,-1,41
 236 -6 236 -6 300 -6 c 0,0,1
EndSplineSet
EndChar

StartChar: D
Encoding: 68 68 39
Width: 693
GlyphClass: 1
Flags: W
LayerCount: 2
Fore
SplineSet
6 0 m 1,0,-1
 257 0 l 2,1,2
 348 0 348 0 425 32.5 c 128,-1,3
 502 65 502 65 558.5 123.5 c 128,-1,4
 615 182 615 182 647 261.5 c 128,-1,5
 679 341 679 341 679 435 c 0,6,7
 679 492 679 492 662.5 542.5 c 128,-1,8
 646 593 646 593 612.5 630 c 128,-1,9
 579 667 579 667 528.5 688.5 c 128,-1,10
 478 710 478 710 408 710 c 2,11,-1
 157 710 l 1,12,-1
 6 0 l 1,0,-1
188 134 m 1,13,-1
 282 576 l 1,14,-1
 380 576 l 2,15,16
 415 576 415 576 441 564 c 128,-1,17
 467 552 467 552 485 530.5 c 128,-1,18
 503 509 503 509 512 478.5 c 128,-1,19
 521 448 521 448 521 412 c 0,20,21
 521 357 521 357 504 306.5 c 128,-1,22
 487 256 487 256 456.5 217.5 c 128,-1,23
 426 179 426 179 382.5 156.5 c 128,-1,24
 339 134 339 134 286 134 c 2,25,-1
 188 134 l 1,13,-1
EndSplineSet
EndChar

StartChar: E
Encoding: 69 69 40
Width: 577
GlyphClass: 1
Flags: W
LayerCount: 2
Fore
SplineSet
6 0 m 1,0,-1
 480 0 l 1,1,-1
 508 134 l 1,2,-1
 188 134 l 1,3,-1
 223 299 l 1,4,-1
 491 299 l 1,5,-1
 518 424 l 1,6,-1
 250 424 l 1,7,-1
 282 576 l 1,8,-1
 593 576 l 1,9,-1
 622 710 l 1,10,-1
 157 710 l 1,11,-1
 6 0 l 1,0,-1
EndSplineSet
EndChar

StartChar: F
Encoding: 70 70 41
Width: 554
GlyphClass: 1
Flags: W
LayerCount: 2
Fore
SplineSet
6 0 m 1,0,-1
 159 0 l 1,1,-1
 220 286 l 1,2,-1
 471 286 l 1,3,-1
 497 410 l 1,4,-1
 247 410 l 1,5,-1
 282 576 l 1,6,-1
 586 576 l 1,7,-1
 614 710 l 1,8,-1
 157 710 l 1,9,-1
 6 0 l 1,0,-1
EndSplineSet
EndChar

StartChar: G
Encoding: 71 71 42
Width: 707
GlyphClass: 1
Flags: W
LayerCount: 2
Fore
SplineSet
293 -5 m 0,0,1
 334 -5 334 -5 371 0.5 c 128,-1,2
 408 6 408 6 444.5 18.5 c 128,-1,3
 481 31 481 31 519 53 c 128,-1,4
 557 75 557 75 599 108 c 1,5,-1
 657 382 l 1,6,-1
 360 382 l 1,7,-1
 335 254 l 1,8,-1
 480 254 l 1,9,-1
 462 170 l 1,10,11
 444 158 444 158 429 150 c 128,-1,12
 414 142 414 142 398.5 137.5 c 128,-1,13
 383 133 383 133 365 131 c 128,-1,14
 347 129 347 129 321 129 c 0,15,16
 276 129 276 129 246.5 149.5 c 128,-1,17
 217 170 217 170 202 202.5 c 128,-1,18
 187 235 187 235 184.5 275.5 c 128,-1,19
 182 316 182 316 191 355 c 0,20,21
 200 397 200 397 219.5 437 c 128,-1,22
 239 477 239 477 268 508.5 c 128,-1,23
 297 540 297 540 334 559.5 c 128,-1,24
 371 579 371 579 413 579 c 0,25,26
 447 579 447 579 470 567 c 128,-1,27
 493 555 493 555 508 538 c 128,-1,28
 523 521 523 521 531.5 502.5 c 128,-1,29
 540 484 540 484 544 472 c 1,30,-1
 681 567 l 1,31,32
 657 637 657 637 598 676 c 128,-1,33
 539 715 539 715 451 715 c 0,34,35
 375 715 375 715 307 685.5 c 128,-1,36
 239 656 239 656 185.5 606.5 c 128,-1,37
 132 557 132 557 94.5 491.5 c 128,-1,38
 57 426 57 426 42 356 c 0,39,40
 27 287 27 287 36 222 c 128,-1,41
 45 157 45 157 76.5 106.5 c 128,-1,42
 108 56 108 56 162.5 25.5 c 128,-1,43
 217 -5 217 -5 293 -5 c 0,0,1
EndSplineSet
Substitution2: "'ss11' Style Set 11 lookup 42 subtable" G.ss11
Substitution2: "'aalt' Access All Alternates lookup 0 subtable" G.ss11
EndChar

StartChar: H
Encoding: 72 72 43
Width: 720
GlyphClass: 1
Flags: W
LayerCount: 2
Fore
SplineSet
6 0 m 1,0,-1
 159 0 l 1,1,-1
 222 296 l 1,2,-1
 495 296 l 1,3,-1
 432 0 l 1,4,-1
 585 0 l 1,5,-1
 736 710 l 1,6,-1
 583 710 l 1,7,-1
 524 430 l 1,8,-1
 251 430 l 1,9,-1
 310 710 l 1,10,-1
 157 710 l 1,11,-1
 6 0 l 1,0,-1
EndSplineSet
EndChar

StartChar: I
Encoding: 73 73 44
Width: 293
GlyphClass: 1
Flags: W
LayerCount: 2
Fore
SplineSet
6 0 m 1,0,-1
 159 0 l 1,1,-1
 310 710 l 1,2,-1
 157 710 l 1,3,-1
 6 0 l 1,0,-1
EndSplineSet
EndChar

StartChar: J
Encoding: 74 74 45
Width: 564
GlyphClass: 2
Flags: W
LayerCount: 2
Fore
SplineSet
128 219 m 1,0,1
 133 203 133 203 140.5 187 c 128,-1,2
 148 171 148 171 158.5 158.5 c 128,-1,3
 169 146 169 146 183.5 138 c 128,-1,4
 198 130 198 130 217 130 c 0,5,6
 244 130 244 130 264 141.5 c 128,-1,7
 284 153 284 153 298.5 172 c 128,-1,8
 313 191 313 191 322 214 c 128,-1,9
 331 237 331 237 335 260 c 2,10,-1
 424 710 l 1,11,-1
 575 710 l 1,12,-1
 480 238 l 2,13,14
 470 186 470 186 444 141 c 128,-1,15
 418 96 418 96 380 63 c 128,-1,16
 342 30 342 30 294 11 c 128,-1,17
 246 -8 246 -8 192 -8 c 0,18,19
 152 -8 152 -8 119.5 5 c 128,-1,20
 87 18 87 18 62 40.5 c 128,-1,21
 37 63 37 63 20 94 c 128,-1,22
 3 125 3 125 -6 162 c 1,23,-1
 128 219 l 1,0,1
EndSplineSet
EndChar

StartChar: K
Encoding: 75 75 46
Width: 649
GlyphClass: 1
Flags: W
LayerCount: 2
Fore
SplineSet
6 0 m 1,0,-1
 159 0 l 1,1,-1
 204 210 l 1,2,-1
 294 295 l 1,3,-1
 424 0 l 1,4,-1
 598 0 l 1,5,-1
 412 394 l 1,6,-1
 733 710 l 1,7,-1
 561 710 l 1,8,-1
 242 391 l 1,9,-1
 310 710 l 1,10,-1
 157 710 l 1,11,-1
 6 0 l 1,0,-1
EndSplineSet
EndChar

StartChar: L
Encoding: 76 76 47
Width: 562
GlyphClass: 1
Flags: W
LayerCount: 2
Fore
SplineSet
6 0 m 1,0,-1
 488 0 l 1,1,-1
 516 134 l 1,2,-1
 188 134 l 1,3,-1
 310 710 l 1,4,-1
 157 710 l 1,5,-1
 6 0 l 1,0,-1
EndSplineSet
EndChar

StartChar: M
Encoding: 77 77 48
Width: 827
GlyphClass: 1
Flags: W
LayerCount: 2
Fore
SplineSet
6 0 m 1,0,-1
 159 0 l 1,1,-1
 254 444 l 1,2,-1
 334 118 l 1,3,-1
 416 118 l 1,4,-1
 634 444 l 1,5,-1
 540 0 l 1,6,-1
 693 0 l 1,7,-1
 844 710 l 1,8,-1
 679 710 l 1,9,-1
 419 325 l 1,10,-1
 323 710 l 1,11,-1
 157 710 l 1,12,-1
 6 0 l 1,0,-1
EndSplineSet
EndChar

StartChar: N
Encoding: 78 78 49
Width: 731
GlyphClass: 1
Flags: W
LayerCount: 2
Fore
SplineSet
6 0 m 1,0,-1
 159 0 l 1,1,-1
 250 426 l 1,2,-1
 474 0 l 1,3,-1
 596 0 l 1,4,-1
 747 710 l 1,5,-1
 594 710 l 1,6,-1
 502 272 l 1,7,-1
 276 710 l 1,8,-1
 157 710 l 1,9,-1
 6 0 l 1,0,-1
EndSplineSet
EndChar

StartChar: O
Encoding: 79 79 50
Width: 731
GlyphClass: 1
Flags: W
LayerCount: 2
Fore
SplineSet
300 -6 m 0,0,1
 383 -6 383 -6 459 30 c 128,-1,2
 535 66 535 66 593 125.5 c 128,-1,3
 651 185 651 185 685 261 c 128,-1,4
 719 337 719 337 719 418 c 0,5,6
 719 475 719 475 702 528.5 c 128,-1,7
 685 582 685 582 651.5 623 c 128,-1,8
 618 664 618 664 569 689 c 128,-1,9
 520 714 520 714 456 714 c 0,10,11
 373 714 373 714 296.5 678.5 c 128,-1,12
 220 643 220 643 162 583.5 c 128,-1,13
 104 524 104 524 69 447.5 c 128,-1,14
 34 371 34 371 34 290 c 0,15,16
 34 233 34 233 51.5 179.5 c 128,-1,17
 69 126 69 126 103 85 c 128,-1,18
 137 44 137 44 186.5 19 c 128,-1,19
 236 -6 236 -6 300 -6 c 0,0,1
330 131 m 0,20,21
 295 131 295 131 268.5 145 c 128,-1,22
 242 159 242 159 225 182.5 c 128,-1,23
 208 206 208 206 199.5 237 c 128,-1,24
 191 268 191 268 191 303 c 0,25,26
 191 350 191 350 208 399 c 128,-1,27
 225 448 225 448 255 487.5 c 128,-1,28
 285 527 285 527 328.5 552.5 c 128,-1,29
 372 578 372 578 424 578 c 0,30,31
 459 578 459 578 485.5 564 c 128,-1,32
 512 550 512 550 529 526.5 c 128,-1,33
 546 503 546 503 554.5 472 c 128,-1,34
 563 441 563 441 563 407 c 0,35,36
 563 360 563 360 546.5 311 c 128,-1,37
 530 262 530 262 499.5 222 c 128,-1,38
 469 182 469 182 426 156.5 c 128,-1,39
 383 131 383 131 330 131 c 0,20,21
EndSplineSet
Substitution2: "Single Substitution lookup 46 subtable" ordmasculine
Substitution2: "'aalt' Access All Alternates lookup 0 subtable" ordmasculine
EndChar

StartChar: P
Encoding: 80 80 51
Width: 602
GlyphClass: 1
Flags: W
LayerCount: 2
Fore
SplineSet
6 0 m 1,0,-1
 159 0 l 1,1,-1
 208 233 l 1,2,-1
 348 233 l 2,3,4
 404 233 404 233 453 257.5 c 128,-1,5
 502 282 502 282 539 321.5 c 128,-1,6
 576 361 576 361 597.5 411 c 128,-1,7
 619 461 619 461 619 512 c 0,8,9
 619 550 619 550 607 585.5 c 128,-1,10
 595 621 595 621 572.5 648.5 c 128,-1,11
 550 676 550 676 518 693 c 128,-1,12
 486 710 486 710 445 710 c 2,13,-1
 157 710 l 1,14,-1
 6 0 l 1,0,-1
237 367 m 1,15,-1
 282 576 l 1,16,-1
 406 576 l 2,17,18
 418 576 418 576 428 571 c 128,-1,19
 438 566 438 566 445.5 556.5 c 128,-1,20
 453 547 453 547 457.5 532.5 c 128,-1,21
 462 518 462 518 462 499 c 0,22,23
 462 470 462 470 454 445.5 c 128,-1,24
 446 421 446 421 432.5 403.5 c 128,-1,25
 419 386 419 386 401.5 376.5 c 128,-1,26
 384 367 384 367 367 367 c 2,27,-1
 237 367 l 1,15,-1
EndSplineSet
EndChar

StartChar: Q
Encoding: 81 81 52
Width: 731
GlyphClass: 1
Flags: W
LayerCount: 2
Fore
SplineSet
300 -6 m 0,0,1
 383 -6 383 -6 459 30 c 128,-1,2
 535 66 535 66 593 125.5 c 128,-1,3
 651 185 651 185 685 261 c 128,-1,4
 719 337 719 337 719 418 c 0,5,6
 719 475 719 475 702 528.5 c 128,-1,7
 685 582 685 582 651.5 623 c 128,-1,8
 618 664 618 664 569 689 c 128,-1,9
 520 714 520 714 456 714 c 0,10,11
 373 714 373 714 296.5 678.5 c 128,-1,12
 220 643 220 643 162 583.5 c 128,-1,13
 104 524 104 524 69 447.5 c 128,-1,14
 34 371 34 371 34 290 c 0,15,16
 34 233 34 233 51.5 179.5 c 128,-1,17
 69 126 69 126 103 85 c 128,-1,18
 137 44 137 44 186.5 19 c 128,-1,19
 236 -6 236 -6 300 -6 c 0,0,1
330 131 m 0,20,21
 295 131 295 131 268.5 145 c 128,-1,22
 242 159 242 159 225 182.5 c 128,-1,23
 208 206 208 206 199.5 237 c 128,-1,24
 191 268 191 268 191 303 c 0,25,26
 191 350 191 350 208 399 c 128,-1,27
 225 448 225 448 255 487.5 c 128,-1,28
 285 527 285 527 328.5 552.5 c 128,-1,29
 372 578 372 578 424 578 c 0,30,31
 459 578 459 578 485.5 564 c 128,-1,32
 512 550 512 550 529 526.5 c 128,-1,33
 546 503 546 503 554.5 472 c 128,-1,34
 563 441 563 441 563 407 c 0,35,36
 563 360 563 360 546.5 311 c 128,-1,37
 530 262 530 262 499.5 222 c 128,-1,38
 469 182 469 182 426 156.5 c 128,-1,39
 383 131 383 131 330 131 c 0,20,21
568 -22 m 1,40,-1
 659 55 l 1,41,-1
 435 340 l 1,42,-1
 345 263 l 1,43,-1
 568 -22 l 1,40,-1
EndSplineSet
EndChar

StartChar: R
Encoding: 82 82 53
Width: 645
GlyphClass: 1
Flags: W
LayerCount: 2
Fore
SplineSet
159 0 m 1,0,-1
 208 233 l 1,1,-1
 313 233 l 1,2,-1
 394 0 l 1,3,-1
 567 0 l 1,4,-1
 474 265 l 1,5,6
 509 282 509 282 538.5 308.5 c 128,-1,7
 568 335 568 335 589 367.5 c 128,-1,8
 610 400 610 400 622 437 c 128,-1,9
 634 474 634 474 634 512 c 256,10,11
 634 550 634 550 622.5 585.5 c 128,-1,12
 611 621 611 621 588.5 648.5 c 128,-1,13
 566 676 566 676 533.5 693 c 128,-1,14
 501 710 501 710 460 710 c 2,15,-1
 157 710 l 1,16,-1
 6 0 l 1,17,-1
 159 0 l 1,0,-1
237 367 m 1,18,-1
 282 576 l 1,19,-1
 422 576 l 2,20,21
 433 576 433 576 443 570 c 128,-1,22
 453 564 453 564 460.5 553.5 c 128,-1,23
 468 543 468 543 472.5 528 c 128,-1,24
 477 513 477 513 477 496 c 0,25,26
 477 470 477 470 468.5 446.5 c 128,-1,27
 460 423 460 423 446.5 405.5 c 128,-1,28
 433 388 433 388 416 377.5 c 128,-1,29
 399 367 399 367 383 367 c 2,30,-1
 237 367 l 1,18,-1
EndSplineSet
EndChar

StartChar: S
Encoding: 83 83 54
Width: 593
GlyphClass: 1
Flags: W
LayerCount: 2
Fore
SplineSet
244 -8 m 0,0,1
 300 -8 300 -8 354.5 6 c 128,-1,2
 409 20 409 20 452 51 c 128,-1,3
 495 82 495 82 521.5 130.5 c 128,-1,4
 548 179 548 179 548 249 c 0,5,6
 548 286 548 286 536 312.5 c 128,-1,7
 524 339 524 339 501 358.5 c 128,-1,8
 478 378 478 378 446.5 393 c 128,-1,9
 415 408 415 408 376 420 c 0,10,11
 347 429 347 429 324 436.5 c 128,-1,12
 301 444 301 444 285 453 c 128,-1,13
 269 462 269 462 260.5 473 c 128,-1,14
 252 484 252 484 252 500 c 0,15,16
 252 518 252 518 258.5 533 c 128,-1,17
 265 548 265 548 278 558 c 128,-1,18
 291 568 291 568 310 574 c 128,-1,19
 329 580 329 580 354 580 c 0,20,21
 384 580 384 580 412.5 571.5 c 128,-1,22
 441 563 441 563 464 551 c 128,-1,23
 487 539 487 539 502 528 c 128,-1,24
 517 517 517 517 519 511 c 1,25,-1
 613 637 l 1,26,27
 594 651 594 651 569.5 665.5 c 128,-1,28
 545 680 545 680 516.5 691 c 128,-1,29
 488 702 488 702 455.5 709 c 128,-1,30
 423 716 423 716 387 716 c 0,31,32
 329 716 329 716 274.5 697.5 c 128,-1,33
 220 679 220 679 177.5 645 c 128,-1,34
 135 611 135 611 109.5 561 c 128,-1,35
 84 511 84 511 84 448 c 0,36,37
 84 418 84 418 93.5 394.5 c 128,-1,38
 103 371 103 371 121.5 353 c 128,-1,39
 140 335 140 335 167.5 320.5 c 128,-1,40
 195 306 195 306 231 293 c 0,41,42
 262 283 262 283 288.5 274.5 c 128,-1,43
 315 266 315 266 334.5 256 c 128,-1,44
 354 246 354 246 365 233.5 c 128,-1,45
 376 221 376 221 376 203 c 0,46,47
 376 187 376 187 370 173.5 c 128,-1,48
 364 160 364 160 352 150 c 128,-1,49
 340 140 340 140 321 135 c 128,-1,50
 302 130 302 130 275 130 c 0,51,52
 236 130 236 130 200.5 140.5 c 128,-1,53
 165 151 165 151 137.5 165.5 c 128,-1,54
 110 180 110 180 92.5 194 c 128,-1,55
 75 208 75 208 71 215 c 1,56,-1
 -25 82 l 1,57,58
 1 61 1 61 32 44 c 128,-1,59
 63 27 63 27 97.5 15.5 c 128,-1,60
 132 4 132 4 169 -2 c 128,-1,61
 206 -8 206 -8 244 -8 c 0,0,1
EndSplineSet
EndChar

StartChar: T
Encoding: 84 84 55
Width: 594
GlyphClass: 1
Flags: W
LayerCount: 2
Fore
SplineSet
157 0 m 1,0,-1
 310 0 l 1,1,-1
 432 576 l 1,2,-1
 639 576 l 1,3,-1
 667 710 l 1,4,-1
 101 710 l 1,5,-1
 72 576 l 1,6,-1
 279 576 l 1,7,-1
 157 0 l 1,0,-1
EndSplineSet
EndChar

StartChar: U
Encoding: 85 85 56
Width: 718
GlyphClass: 1
Flags: W
LayerCount: 2
Fore
SplineSet
294 -6 m 0,0,1
 372 -6 372 -6 434 22 c 128,-1,2
 496 50 496 50 543 98 c 128,-1,3
 590 146 590 146 621 210 c 128,-1,4
 652 274 652 274 668 347 c 2,5,-1
 745 710 l 1,6,-1
 592 710 l 1,7,-1
 515 347 l 2,8,9
 506 307 506 307 490 267.5 c 128,-1,10
 474 228 474 228 450.5 198 c 128,-1,11
 427 168 427 168 395.5 149.5 c 128,-1,12
 364 131 364 131 322 131 c 0,13,14
 292 131 292 131 271.5 141 c 128,-1,15
 251 151 251 151 238 169 c 128,-1,16
 225 187 225 187 219 211 c 128,-1,17
 213 235 213 235 213 263 c 0,18,19
 213 283 213 283 215.5 304 c 128,-1,20
 218 325 218 325 223 347 c 2,21,-1
 300 710 l 1,22,-1
 147 710 l 1,23,-1
 70 347 l 2,24,25
 64 318 64 318 60.5 290.5 c 128,-1,26
 57 263 57 263 57 236 c 0,27,28
 57 185 57 185 70 141 c 128,-1,29
 83 97 83 97 111.5 64 c 128,-1,30
 140 31 140 31 185 12.5 c 128,-1,31
 230 -6 230 -6 294 -6 c 0,0,1
EndSplineSet
EndChar

StartChar: V
Encoding: 86 86 57
Width: 645
GlyphClass: 1
Flags: W
LayerCount: 2
Fore
SplineSet
191 0 m 1,0,-1
 320 0 l 1,1,-1
 727 710 l 1,2,-1
 566 710 l 1,3,-1
 296 192 l 1,4,-1
 245 710 l 1,5,-1
 84 710 l 1,6,-1
 191 0 l 1,0,-1
EndSplineSet
EndChar

StartChar: W
Encoding: 87 87 58
Width: 1004
GlyphClass: 1
Flags: W
LayerCount: 2
Fore
SplineSet
147 0 m 1,0,-1
 285 0 l 1,1,-1
 538 483 l 1,2,-1
 601 1 l 1,3,-1
 739 1 l 1,4,-1
 1075 710 l 1,5,-1
 928 710 l 1,6,-1
 695 200 l 1,7,-1
 656 709 l 1,8,-1
 510 709 l 1,9,-1
 269 199 l 1,10,-1
 239 709 l 1,11,-1
 92 709 l 1,12,-1
 147 0 l 1,0,-1
EndSplineSet
Substitution2: "'ss09' Style Set 9 lookup 40 subtable" W.ss09
Substitution2: "'aalt' Access All Alternates lookup 0 subtable" W.ss09
EndChar

StartChar: X
Encoding: 88 88 59
Width: 623
GlyphClass: 1
Flags: W
LayerCount: 2
Fore
SplineSet
-60 0 m 1,0,-1
 106 0 l 1,1,-1
 299 243 l 1,2,-1
 389 0 l 1,3,-1
 554 0 l 1,4,-1
 402 350 l 1,5,-1
 713 710 l 1,6,-1
 548 710 l 1,7,-1
 345 457 l 1,8,-1
 249 710 l 1,9,-1
 83 710 l 1,10,-1
 241 350 l 1,11,-1
 -60 0 l 1,0,-1
EndSplineSet
EndChar

StartChar: Y
Encoding: 89 89 60
Width: 621
GlyphClass: 1
Flags: W
LayerCount: 2
Fore
SplineSet
165 0 m 1,0,-1
 317 0 l 1,1,-1
 369 245 l 1,2,-1
 709 710 l 1,3,-1
 543 710 l 1,4,-1
 322 378 l 1,5,-1
 245 710 l 1,6,-1
 79 710 l 1,7,-1
 218 247 l 1,8,-1
 165 0 l 1,0,-1
EndSplineSet
EndChar

StartChar: Z
Encoding: 90 90 61
Width: 596
GlyphClass: 1
Flags: W
LayerCount: 2
Fore
SplineSet
-36 0 m 1,0,-1
 499 0 l 1,1,-1
 528 134 l 1,2,-1
 185 134 l 1,3,-1
 622 595 l 1,4,-1
 647 710 l 1,5,-1
 128 710 l 1,6,-1
 99 576 l 1,7,-1
 441 576 l 1,8,-1
 -11 115 l 1,9,-1
 -36 0 l 1,0,-1
EndSplineSet
EndChar

StartChar: bracketleft
Encoding: 91 91 62
Width: 314
GlyphClass: 1
Flags: W
LayerCount: 2
Fore
SplineSet
199 -40 m 1,0,-1
 224 79 l 1,1,-1
 161 79 l 1,2,-1
 276 621 l 1,3,-1
 339 621 l 1,4,-1
 364 740 l 1,5,-1
 164 740 l 1,6,-1
 -2 -40 l 1,7,-1
 199 -40 l 1,0,-1
EndSplineSet
EndChar

StartChar: backslash
Encoding: 92 92 63
Width: 620
GlyphClass: 1
Flags: W
LayerCount: 2
Fore
SplineSet
107 710 m 1,0,-1
 370 0 l 1,1,-1
 534 0 l 1,2,-1
 272 710 l 1,3,-1
 107 710 l 1,0,-1
EndSplineSet
EndChar

StartChar: bracketright
Encoding: 93 93 64
Width: 314
GlyphClass: 1
Flags: W
LayerCount: 2
Fore
SplineSet
172 -40 m 1,0,-1
 337 740 l 1,1,-1
 137 740 l 1,2,-1
 111 621 l 1,3,-1
 174 621 l 1,4,-1
 59 79 l 1,5,-1
 -4 79 l 1,6,-1
 -29 -40 l 1,7,-1
 172 -40 l 1,0,-1
EndSplineSet
EndChar

StartChar: asciicircum
Encoding: 94 94 65
Width: 600
GlyphClass: 1
Flags: W
LayerCount: 2
Fore
SplineSet
167 303 m 1,0,-1
 307 586 l 1,1,-1
 444 303 l 1,2,-1
 566 303 l 1,3,-1
 369 710 l 1,4,-1
 245 710 l 1,5,-1
 47 303 l 1,6,-1
 167 303 l 1,0,-1
EndSplineSet
EndChar

StartChar: underscore
Encoding: 95 95 66
Width: 447
GlyphClass: 1
Flags: W
LayerCount: 2
Fore
SplineSet
302 -134 m 1,0,-1
 330 0 l 1,1,-1
 -12 0 l 1,2,-1
 -41 -134 l 1,3,-1
 302 -134 l 1,0,-1
EndSplineSet
EndChar

StartChar: a
Encoding: 97 97 68
Width: 617
GlyphClass: 1
Flags: W
LayerCount: 2
Fore
SplineSet
199 -10 m 0,0,1
 251 -10 251 -10 292 13.5 c 128,-1,2
 333 37 333 37 365 81 c 1,3,-1
 348 0 l 1,4,-1
 497 0 l 1,5,-1
 607 518 l 1,6,-1
 457 518 l 1,7,-1
 440 436 l 1,8,9
 426 481 426 481 389.5 507.5 c 128,-1,10
 353 534 353 534 300 534 c 0,11,12
 244 534 244 534 192 507.5 c 128,-1,13
 140 481 140 481 100.5 435.5 c 128,-1,14
 61 390 61 390 37 330.5 c 128,-1,15
 13 271 13 271 13 204 c 0,16,17
 13 158 13 158 26 118.5 c 128,-1,18
 39 79 39 79 62.5 50.5 c 128,-1,19
 86 22 86 22 120.5 6 c 128,-1,20
 155 -10 155 -10 199 -10 c 0,0,1
264 116 m 0,21,22
 243 116 243 116 225 124.5 c 128,-1,23
 207 133 207 133 195 148 c 128,-1,24
 183 163 183 163 176.5 183.5 c 128,-1,25
 170 204 170 204 170 228 c 0,26,27
 170 261 170 261 182.5 293.5 c 128,-1,28
 195 326 195 326 216 351 c 128,-1,29
 237 376 237 376 264 392 c 128,-1,30
 291 408 291 408 320 408 c 0,31,32
 338 408 338 408 354 400.5 c 128,-1,33
 370 393 370 393 382 380.5 c 128,-1,34
 394 368 394 368 402 350 c 128,-1,35
 410 332 410 332 414 311 c 1,36,-1
 389 195 l 1,37,38
 376 177 376 177 361.5 162.5 c 128,-1,39
 347 148 347 148 331.5 138 c 128,-1,40
 316 128 316 128 299 122 c 128,-1,41
 282 116 282 116 264 116 c 0,21,22
EndSplineSet
Substitution2: "Single Substitution lookup 46 subtable" ordfeminine
Substitution2: "'ss02' Style Set 2 lookup 33 subtable" a.ss02
Substitution2: "'ss01' Style Set 1 lookup 32 subtable" a.ss01
Substitution2: "'salt' Stylistic Alternatives lookup 31 subtable" a.ss01
AlternateSubs2: "'aalt' Access All Alternates lookup 1 subtable" ordfeminine a.ss01 a.ss02
EndChar

StartChar: b
Encoding: 98 98 69
Width: 616
GlyphClass: 1
Flags: W
LayerCount: 2
Fore
SplineSet
288 -10 m 0,0,1
 346 -10 346 -10 400 16 c 128,-1,2
 454 42 454 42 495.5 87.5 c 128,-1,3
 537 133 537 133 561.5 193.5 c 128,-1,4
 586 254 586 254 586 322 c 0,5,6
 586 367 586 367 575 405.5 c 128,-1,7
 564 444 564 444 542.5 472.5 c 128,-1,8
 521 501 521 501 489 517.5 c 128,-1,9
 457 534 457 534 416 534 c 0,10,11
 363 534 363 534 315.5 507.5 c 128,-1,12
 268 481 268 481 234 436 c 1,13,-1
 297 730 l 1,14,-1
 147 730 l 1,15,-1
 -8 0 l 1,16,-1
 123 0 l 1,17,-1
 141 88 l 1,18,19
 149 66 149 66 162 47.5 c 128,-1,20
 175 29 175 29 193.5 16.5 c 128,-1,21
 212 4 212 4 236 -3 c 128,-1,22
 260 -10 260 -10 288 -10 c 0,0,1
276 116 m 0,23,24
 258 116 258 116 242.5 122 c 128,-1,25
 227 128 227 128 215 138 c 128,-1,26
 203 148 203 148 195 163 c 128,-1,27
 187 178 187 178 183 195 c 1,28,-1
 208 312 l 1,29,30
 220 332 220 332 236 349.5 c 128,-1,31
 252 367 252 367 269.5 380 c 128,-1,32
 287 393 287 393 305.5 400.5 c 128,-1,33
 324 408 324 408 342 408 c 0,34,35
 363 408 363 408 379 399 c 128,-1,36
 395 390 395 390 406 374 c 128,-1,37
 417 358 417 358 423 337 c 128,-1,38
 429 316 429 316 429 293 c 0,39,40
 429 258 429 258 416.5 226 c 128,-1,41
 404 194 404 194 382.5 169.5 c 128,-1,42
 361 145 361 145 333.5 130.5 c 128,-1,43
 306 116 306 116 276 116 c 0,23,24
EndSplineSet
EndChar

StartChar: c
Encoding: 99 99 70
Width: 545
GlyphClass: 1
Flags: W
LayerCount: 2
Fore
SplineSet
230 -10 m 0,0,1
 272 -10 272 -10 310.5 0.5 c 128,-1,2
 349 11 349 11 382.5 29 c 128,-1,3
 416 47 416 47 444 72.5 c 128,-1,4
 472 98 472 98 492 128 c 1,5,-1
 356 172 l 1,6,7
 347 160 347 160 335.5 149.5 c 128,-1,8
 324 139 324 139 311 132 c 128,-1,9
 298 125 298 125 283.5 120.5 c 128,-1,10
 269 116 269 116 255 116 c 0,11,12
 235 116 235 116 219 124 c 128,-1,13
 203 132 203 132 191.5 147 c 128,-1,14
 180 162 180 162 174 182.5 c 128,-1,15
 168 203 168 203 168 228 c 0,16,17
 168 266 168 266 180 299 c 128,-1,18
 192 332 192 332 213.5 356 c 128,-1,19
 235 380 235 380 261.5 394 c 128,-1,20
 288 408 288 408 317 408 c 0,21,22
 345 408 345 408 364.5 394 c 128,-1,23
 384 380 384 380 393 353 c 1,24,-1
 548 397 l 1,25,26
 531 458 531 458 480.5 496 c 128,-1,27
 430 534 430 534 344 534 c 0,28,29
 270 534 270 534 209 506.5 c 128,-1,30
 148 479 148 479 104 434 c 128,-1,31
 60 389 60 389 36 331 c 128,-1,32
 12 273 12 273 12 211 c 0,33,34
 12 166 12 166 26 126 c 128,-1,35
 40 86 40 86 67 56 c 128,-1,36
 94 26 94 26 135 8 c 128,-1,37
 176 -10 176 -10 230 -10 c 0,0,1
EndSplineSet
EndChar

StartChar: d
Encoding: 100 100 71
Width: 616
GlyphClass: 1
Flags: W
LayerCount: 2
Fore
SplineSet
199 -10 m 0,0,1
 224 -10 224 -10 247 -4 c 128,-1,2
 270 2 270 2 290.5 13 c 128,-1,3
 311 24 311 24 329.5 40.5 c 128,-1,4
 348 57 348 57 364 78 c 1,5,-1
 347 0 l 1,6,-1
 496 0 l 1,7,-1
 651 730 l 1,8,-1
 502 730 l 1,9,-1
 439 436 l 1,10,11
 432 458 432 458 419 476 c 128,-1,12
 406 494 406 494 388 507 c 128,-1,13
 370 520 370 520 347 527 c 128,-1,14
 324 534 324 534 298 534 c 0,15,16
 242 534 242 534 190.5 507.5 c 128,-1,17
 139 481 139 481 99.5 435 c 128,-1,18
 60 389 60 389 36.5 329.5 c 128,-1,19
 13 270 13 270 13 204 c 0,20,21
 13 158 13 158 26 119 c 128,-1,22
 39 80 39 80 63 51.5 c 128,-1,23
 87 23 87 23 121.5 6.5 c 128,-1,24
 156 -10 156 -10 199 -10 c 0,0,1
265 116 m 0,25,26
 243 116 243 116 225.5 124.5 c 128,-1,27
 208 133 208 133 195.5 148 c 128,-1,28
 183 163 183 163 176.5 184 c 128,-1,29
 170 205 170 205 170 229 c 0,30,31
 170 262 170 262 182.5 294.5 c 128,-1,32
 195 327 195 327 215.5 351.5 c 128,-1,33
 236 376 236 376 263 392 c 128,-1,34
 290 408 290 408 319 408 c 0,35,36
 336 408 336 408 352 400.5 c 128,-1,37
 368 393 368 393 381 380.5 c 128,-1,38
 394 368 394 368 402.5 350.5 c 128,-1,39
 411 333 411 333 414 312 c 1,40,-1
 389 196 l 1,41,42
 378 178 378 178 363.5 163 c 128,-1,43
 349 148 349 148 332.5 138 c 128,-1,44
 316 128 316 128 299 122 c 128,-1,45
 282 116 282 116 265 116 c 0,25,26
EndSplineSet
Substitution2: "'ss03' Style Set 3 lookup 34 subtable" d.ss03
Substitution2: "'aalt' Access All Alternates lookup 0 subtable" d.ss03
EndChar

StartChar: e
Encoding: 101 101 72
Width: 555
GlyphClass: 1
Flags: W
LayerCount: 2
Fore
SplineSet
231 -10 m 0,0,1
 270 -10 270 -10 309 0 c 128,-1,2
 348 10 348 10 383.5 28.5 c 128,-1,3
 419 47 419 47 448.5 72 c 128,-1,4
 478 97 478 97 498 128 c 1,5,-1
 381 165 l 1,6,7
 371 149 371 149 357.5 137 c 128,-1,8
 344 125 344 125 328 116 c 128,-1,9
 312 107 312 107 294.5 102.5 c 128,-1,10
 277 98 277 98 258 98 c 0,11,12
 235 98 235 98 217.5 105.5 c 128,-1,13
 200 113 200 113 189 127 c 128,-1,14
 178 141 178 141 173 161 c 128,-1,15
 168 181 168 181 168 206 c 0,16,17
 168 247 168 247 178.5 286.5 c 128,-1,18
 189 326 189 326 209.5 357 c 128,-1,19
 230 388 230 388 259 407.5 c 128,-1,20
 288 427 288 427 325 427 c 0,21,22
 341 427 341 427 354 423 c 128,-1,23
 367 419 367 419 376.5 412.5 c 128,-1,24
 386 406 386 406 391 396.5 c 128,-1,25
 396 387 396 387 396 374 c 0,26,27
 396 358 396 358 387.5 345.5 c 128,-1,28
 379 333 379 333 359.5 324 c 128,-1,29
 340 315 340 315 309 311 c 128,-1,30
 278 307 278 307 232 307 c 0,31,32
 204 307 204 307 175.5 308.5 c 128,-1,33
 147 310 147 310 118 313 c 1,34,-1
 94 221 l 1,35,36
 131 217 131 217 166 215.5 c 128,-1,37
 201 214 201 214 232 214 c 0,38,39
 386 214 386 214 462.5 257 c 128,-1,40
 539 300 539 300 539 386 c 0,41,42
 539 421 539 421 525.5 449 c 128,-1,43
 512 477 512 477 487.5 495.5 c 128,-1,44
 463 514 463 514 427.5 524 c 128,-1,45
 392 534 392 534 348 534 c 0,46,47
 278 534 278 534 216.5 508.5 c 128,-1,48
 155 483 155 483 110 438.5 c 128,-1,49
 65 394 65 394 39 336 c 128,-1,50
 13 278 13 278 13 212 c 0,51,52
 13 163 13 163 28 122.5 c 128,-1,53
 43 82 43 82 71.5 52.5 c 128,-1,54
 100 23 100 23 140.5 6.5 c 128,-1,55
 181 -10 181 -10 231 -10 c 0,0,1
EndSplineSet
EndChar

StartChar: f
Encoding: 102 102 73
Width: 370
GlyphClass: 1
Flags: W
LayerCount: 2
Fore
SplineSet
-23 -213 m 1,0,-1
 126 -213 l 1,1,-1
 251 374 l 1,2,-1
 368 374 l 1,3,-1
 392 488 l 1,4,-1
 275 488 l 1,5,-1
 285 532 l 2,6,7
 293 573 293 573 312 593.5 c 128,-1,8
 331 614 331 614 360 614 c 0,9,10
 375 614 375 614 393.5 609 c 128,-1,11
 412 604 412 604 425 597 c 1,12,-1
 476 709 l 1,13,14
 446 724 446 724 415 732 c 128,-1,15
 384 740 384 740 354 740 c 0,16,17
 314 740 314 740 279 725 c 128,-1,18
 244 710 244 710 215 682 c 128,-1,19
 186 654 186 654 165.5 615 c 128,-1,20
 145 576 145 576 135 526 c 2,21,-1
 127 488 l 1,22,-1
 63 488 l 1,23,-1
 39 374 l 1,24,-1
 102 374 l 1,25,-1
 -23 -213 l 1,0,-1
EndSplineSet
EndChar

StartChar: g
Encoding: 103 103 74
Width: 615
GlyphClass: 1
Flags: W
LayerCount: 2
Fore
SplineSet
161 -223 m 0,0,1
 224 -223 224 -223 280.5 -205.5 c 128,-1,2
 337 -188 337 -188 382 -155 c 128,-1,3
 427 -122 427 -122 458 -75 c 128,-1,4
 489 -28 489 -28 502 31 c 2,5,-1
 607 524 l 1,6,-1
 477 524 l 1,7,-1
 458 436 l 1,8,9
 450 458 450 458 436.5 476.5 c 128,-1,10
 423 495 423 495 404.5 508 c 128,-1,11
 386 521 386 521 362.5 527.5 c 128,-1,12
 339 534 339 534 311 534 c 0,13,14
 251 534 251 534 197 507.5 c 128,-1,15
 143 481 143 481 102.5 436 c 128,-1,16
 62 391 62 391 38 331.5 c 128,-1,17
 14 272 14 272 14 205 c 0,18,19
 14 162 14 162 25 124 c 128,-1,20
 36 86 36 86 58.5 58 c 128,-1,21
 81 30 81 30 113 14 c 128,-1,22
 145 -2 145 -2 186 -2 c 0,23,24
 211 -2 211 -2 235.5 4 c 128,-1,25
 260 10 260 10 283.5 21.5 c 128,-1,26
 307 33 307 33 327.5 49.5 c 128,-1,27
 348 66 348 66 364 88 c 1,28,-1
 353 31 l 2,29,30
 345 -6 345 -6 328 -33 c 128,-1,31
 311 -60 311 -60 288.5 -77.5 c 128,-1,32
 266 -95 266 -95 239 -103 c 128,-1,33
 212 -111 212 -111 184 -111 c 0,34,35
 137 -111 137 -111 100.5 -91 c 128,-1,36
 64 -71 64 -71 43 -36 c 1,37,-1
 -54 -116 l 1,38,39
 -39 -142 -39 -142 -18.5 -161.5 c 128,-1,40
 2 -181 2 -181 28.5 -195 c 128,-1,41
 55 -209 55 -209 88 -216 c 128,-1,42
 121 -223 121 -223 161 -223 c 0,0,1
264 116 m 0,43,44
 242 116 242 116 224.5 125 c 128,-1,45
 207 134 207 134 194.5 149 c 128,-1,46
 182 164 182 164 175.5 184.5 c 128,-1,47
 169 205 169 205 169 228 c 0,48,49
 169 261 169 261 181 293 c 128,-1,50
 193 325 193 325 214 350.5 c 128,-1,51
 235 376 235 376 261.5 392 c 128,-1,52
 288 408 288 408 318 408 c 0,53,54
 335 408 335 408 351 401 c 128,-1,55
 367 394 367 394 379.5 381.5 c 128,-1,56
 392 369 392 369 400.5 351.5 c 128,-1,57
 409 334 409 334 412 312 c 1,58,-1
 388 196 l 1,59,60
 376 179 376 179 362 164.5 c 128,-1,61
 348 150 348 150 332 139.5 c 128,-1,62
 316 129 316 129 298.5 122.5 c 128,-1,63
 281 116 281 116 264 116 c 0,43,44
EndSplineSet
EndChar

StartChar: h
Encoding: 104 104 75
Width: 587
GlyphClass: 1
Flags: W
LayerCount: 2
Fore
SplineSet
-8 0 m 1,0,-1
 142 0 l 1,1,-1
 206 303 l 1,2,3
 218 325 218 325 234 343.5 c 128,-1,4
 250 362 250 362 268 375 c 128,-1,5
 286 388 286 388 303.5 395.5 c 128,-1,6
 321 403 321 403 335 403 c 0,7,8
 361 403 361 403 375.5 387 c 128,-1,9
 390 371 390 371 390 338 c 0,10,11
 390 328 390 328 389 317.5 c 128,-1,12
 388 307 388 307 385 294 c 2,13,-1
 323 0 l 1,14,-1
 472 0 l 1,15,-1
 542 332 l 2,16,17
 547 352 547 352 549.5 372.5 c 128,-1,18
 552 393 552 393 552 412 c 0,19,20
 552 438 552 438 546 460 c 128,-1,21
 540 482 540 482 526 498.5 c 128,-1,22
 512 515 512 515 488.5 524.5 c 128,-1,23
 465 534 465 534 429 534 c 0,24,25
 401 534 401 534 374 527.5 c 128,-1,26
 347 521 347 521 322 507.5 c 128,-1,27
 297 494 297 494 275 475.5 c 128,-1,28
 253 457 253 457 233 433 c 1,29,-1
 297 730 l 1,30,-1
 147 730 l 1,31,-1
 -8 0 l 1,0,-1
EndSplineSet
EndChar

StartChar: k
Encoding: 107 107 78
Width: 566
GlyphClass: 1
Flags: W
LayerCount: 2
Fore
SplineSet
331 0 m 1,0,-1
 489 0 l 1,1,-1
 397 201 l 1,2,3
 468 238 468 238 505 293.5 c 128,-1,4
 542 349 542 349 542 415 c 0,5,6
 542 470 542 470 514 500.5 c 128,-1,7
 486 531 486 531 432 531 c 0,8,9
 398 531 398 531 366.5 519.5 c 128,-1,10
 335 508 335 508 306.5 486 c 128,-1,11
 278 464 278 464 253 433.5 c 128,-1,12
 228 403 228 403 207 365 c 1,13,-1
 181 209 l 1,14,15
 193 249 193 249 213 284.5 c 128,-1,16
 233 320 233 320 258 347 c 128,-1,17
 283 374 283 374 310.5 389.5 c 128,-1,18
 338 405 338 405 364 405 c 0,19,20
 384 405 384 405 396 393.5 c 128,-1,21
 408 382 408 382 408 360 c 0,22,23
 408 318 408 318 363.5 282.5 c 128,-1,24
 319 247 319 247 237 231 c 1,25,-1
 331 0 l 1,0,-1
-8 0 m 1,26,-1
 140 0 l 1,27,-1
 295 730 l 1,28,-1
 147 730 l 1,29,-1
 -8 0 l 1,26,-1
EndSplineSet
EndChar

StartChar: l
Encoding: 108 108 79
Width: 319
GlyphClass: 1
Flags: W
LayerCount: 2
Fore
SplineSet
124 -9 m 0,0,1
 155 -9 155 -9 193.5 -1 c 128,-1,2
 232 7 232 7 263 20 c 1,3,-1
 268 132 l 1,4,5
 254 126 254 126 240 122.5 c 128,-1,6
 226 119 226 119 215 119 c 0,7,8
 195 119 195 119 185 129 c 128,-1,9
 175 139 175 139 175 159 c 0,10,11
 175 164 175 164 175.5 169 c 128,-1,12
 176 174 176 174 178 179 c 2,13,-1
 295 730 l 1,14,-1
 146 730 l 1,15,-1
 18 126 l 2,16,17
 15 116 15 116 14 106 c 128,-1,18
 13 96 13 96 13 87 c 0,19,20
 13 41 13 41 41 16 c 128,-1,21
 69 -9 69 -9 124 -9 c 0,0,1
EndSplineSet
Substitution2: "'ss05' Style Set 5 lookup 36 subtable" l.ss05
Substitution2: "'aalt' Access All Alternates lookup 0 subtable" l.ss05
EndChar

StartChar: m
Encoding: 109 109 80
Width: 895
GlyphClass: 1
Flags: W
LayerCount: 2
Fore
SplineSet
-8 0 m 1,0,-1
 142 0 l 1,1,-1
 206 303 l 1,2,3
 217 324 217 324 232 342.5 c 128,-1,4
 247 361 247 361 263.5 374.5 c 128,-1,5
 280 388 280 388 297.5 395.5 c 128,-1,6
 315 403 315 403 331 403 c 0,7,8
 354 403 354 403 366.5 388 c 128,-1,9
 379 373 379 373 379 341 c 0,10,11
 379 331 379 331 378 319.5 c 128,-1,12
 377 308 377 308 374 294 c 2,13,-1
 311 0 l 1,14,-1
 461 0 l 1,15,-1
 524 303 l 1,16,17
 536 324 536 324 550.5 342.5 c 128,-1,18
 565 361 565 361 582 374.5 c 128,-1,19
 599 388 599 388 616.5 395.5 c 128,-1,20
 634 403 634 403 650 403 c 0,21,22
 672 403 672 403 685 388 c 128,-1,23
 698 373 698 373 698 341 c 0,24,25
 698 331 698 331 697 319.5 c 128,-1,26
 696 308 696 308 692 294 c 2,27,-1
 630 0 l 1,28,-1
 779 0 l 1,29,-1
 850 332 l 2,30,31
 856 360 856 360 858 380 c 128,-1,32
 860 400 860 400 860 414 c 0,33,34
 860 438 860 438 854.5 460 c 128,-1,35
 849 482 849 482 835.5 498.5 c 128,-1,36
 822 515 822 515 799.5 524.5 c 128,-1,37
 777 534 777 534 743 534 c 0,38,39
 714 534 714 534 686.5 527 c 128,-1,40
 659 520 659 520 633 506.5 c 128,-1,41
 607 493 607 493 584 473.5 c 128,-1,42
 561 454 561 454 541 429 c 1,43,44
 539 451 539 451 532.5 470.5 c 128,-1,45
 526 490 526 490 511.5 504 c 128,-1,46
 497 518 497 518 474.5 526 c 128,-1,47
 452 534 452 534 421 534 c 0,48,49
 364 534 364 534 310 507.5 c 128,-1,50
 256 481 256 481 219 433 c 1,51,-1
 239 524 l 1,52,-1
 104 524 l 1,53,-1
 -8 0 l 1,0,-1
EndSplineSet
EndChar

StartChar: n
Encoding: 110 110 81
Width: 587
GlyphClass: 1
Flags: W
LayerCount: 2
Fore
SplineSet
-8 0 m 1,0,-1
 142 0 l 1,1,-1
 206 303 l 1,2,3
 218 325 218 325 234 343 c 128,-1,4
 250 361 250 361 268 374.5 c 128,-1,5
 286 388 286 388 304.5 395.5 c 128,-1,6
 323 403 323 403 339 403 c 0,7,8
 363 403 363 403 377 388 c 128,-1,9
 391 373 391 373 391 340 c 0,10,11
 391 330 391 330 390 319 c 128,-1,12
 389 308 389 308 385 294 c 2,13,-1
 323 0 l 1,14,-1
 472 0 l 1,15,-1
 542 332 l 2,16,17
 546 352 546 352 549 372.5 c 128,-1,18
 552 393 552 393 552 413 c 0,19,20
 552 438 552 438 546.5 460 c 128,-1,21
 541 482 541 482 527.5 498.5 c 128,-1,22
 514 515 514 515 491.5 524.5 c 128,-1,23
 469 534 469 534 434 534 c 0,24,25
 402 534 402 534 371 527.5 c 128,-1,26
 340 521 340 521 312.5 507.5 c 128,-1,27
 285 494 285 494 261.5 475 c 128,-1,28
 238 456 238 456 219 433 c 1,29,-1
 239 524 l 1,30,-1
 104 524 l 1,31,-1
 -8 0 l 1,0,-1
EndSplineSet
EndChar

StartChar: o
Encoding: 111 111 82
Width: 589
GlyphClass: 1
Flags: W
LayerCount: 2
Fore
SplineSet
236 -10 m 0,0,1
 308 -10 308 -10 367.5 16 c 128,-1,2
 427 42 427 42 469.5 86.5 c 128,-1,3
 512 131 512 131 535.5 189.5 c 128,-1,4
 559 248 559 248 559 312 c 0,5,6
 559 358 559 358 546 398 c 128,-1,7
 533 438 533 438 506 468.5 c 128,-1,8
 479 499 479 499 437 516.5 c 128,-1,9
 395 534 395 534 336 534 c 0,10,11
 264 534 264 534 204.5 508 c 128,-1,12
 145 482 145 482 102.5 437.5 c 128,-1,13
 60 393 60 393 36.5 335 c 128,-1,14
 13 277 13 277 13 212 c 0,15,16
 13 167 13 167 26 126.5 c 128,-1,17
 39 86 39 86 66 55.5 c 128,-1,18
 93 25 93 25 135 7.5 c 128,-1,19
 177 -10 177 -10 236 -10 c 0,0,1
258 116 m 0,20,21
 236 116 236 116 219.5 124 c 128,-1,22
 203 132 203 132 191.5 147 c 128,-1,23
 180 162 180 162 174 183 c 128,-1,24
 168 204 168 204 168 229 c 0,25,26
 168 267 168 267 180.5 299.5 c 128,-1,27
 193 332 193 332 213 356 c 128,-1,28
 233 380 233 380 259.5 394 c 128,-1,29
 286 408 286 408 314 408 c 0,30,31
 336 408 336 408 352.5 399.5 c 128,-1,32
 369 391 369 391 380.5 376 c 128,-1,33
 392 361 392 361 398 340.5 c 128,-1,34
 404 320 404 320 404 294 c 0,35,36
 404 256 404 256 391.5 223.5 c 128,-1,37
 379 191 379 191 359 167.5 c 128,-1,38
 339 144 339 144 312.5 130 c 128,-1,39
 286 116 286 116 258 116 c 0,20,21
EndSplineSet
Substitution2: "Single Substitution lookup 46 subtable" ordmasculine
Substitution2: "'aalt' Access All Alternates lookup 0 subtable" ordmasculine
EndChar

StartChar: p
Encoding: 112 112 83
Width: 616
GlyphClass: 1
Flags: W
LayerCount: 2
Fore
SplineSet
-53 -213 m 1,0,-1
 96 -213 l 1,1,-1
 160 88 l 1,2,3
 167 66 167 66 179.5 47.5 c 128,-1,4
 192 29 192 29 210.5 16 c 128,-1,5
 229 3 229 3 252 -3.5 c 128,-1,6
 275 -10 275 -10 304 -10 c 0,7,8
 359 -10 359 -10 410 17 c 128,-1,9
 461 44 461 44 500.5 89.5 c 128,-1,10
 540 135 540 135 563 195 c 128,-1,11
 586 255 586 255 586 320 c 0,12,13
 586 365 586 365 573.5 404 c 128,-1,14
 561 443 561 443 537 472 c 128,-1,15
 513 501 513 501 479.5 517.5 c 128,-1,16
 446 534 446 534 404 534 c 0,17,18
 376 534 376 534 349.5 527.5 c 128,-1,19
 323 521 323 521 299.5 508.5 c 128,-1,20
 276 496 276 496 255 478 c 128,-1,21
 234 460 234 460 215 438 c 1,22,-1
 234 524 l 1,23,-1
 103 524 l 1,24,-1
 -53 -213 l 1,0,-1
280 116 m 0,25,26
 262 116 262 116 246.5 123.5 c 128,-1,27
 231 131 231 131 219 144.5 c 128,-1,28
 207 158 207 158 198.5 176 c 128,-1,29
 190 194 190 194 186 214 c 1,30,-1
 211 328 l 1,31,32
 222 346 222 346 237 361 c 128,-1,33
 252 376 252 376 268 386 c 128,-1,34
 284 396 284 396 301 402 c 128,-1,35
 318 408 318 408 334 408 c 0,36,37
 356 408 356 408 374 399 c 128,-1,38
 392 390 392 390 404 375 c 128,-1,39
 416 360 416 360 423 340 c 128,-1,40
 430 320 430 320 430 295 c 0,41,42
 430 262 430 262 417.5 229.5 c 128,-1,43
 405 197 405 197 384 172 c 128,-1,44
 363 147 363 147 336 131.5 c 128,-1,45
 309 116 309 116 280 116 c 0,25,26
EndSplineSet
EndChar

StartChar: q
Encoding: 113 113 84
Width: 615
GlyphClass: 1
Flags: W
LayerCount: 2
Fore
SplineSet
301 -214 m 1,0,-1
 450 -214 l 1,1,-1
 606 524 l 1,2,-1
 476 524 l 1,3,-1
 458 436 l 1,4,5
 449 458 449 458 436 476 c 128,-1,6
 423 494 423 494 404.5 507 c 128,-1,7
 386 520 386 520 362.5 527 c 128,-1,8
 339 534 339 534 311 534 c 0,9,10
 253 534 253 534 199.5 508 c 128,-1,11
 146 482 146 482 104.5 436.5 c 128,-1,12
 63 391 63 391 38 330.5 c 128,-1,13
 13 270 13 270 13 201 c 0,14,15
 13 156 13 156 24.5 117.5 c 128,-1,16
 36 79 36 79 57.5 50.5 c 128,-1,17
 79 22 79 22 109.5 6 c 128,-1,18
 140 -10 140 -10 179 -10 c 0,19,20
 234 -10 234 -10 281.5 15 c 128,-1,21
 329 40 329 40 365 88 c 1,22,-1
 301 -214 l 1,0,-1
263 116 m 0,23,24
 241 116 241 116 223.5 124.5 c 128,-1,25
 206 133 206 133 193.5 148 c 128,-1,26
 181 163 181 163 175 183.5 c 128,-1,27
 169 204 169 204 169 228 c 0,28,29
 169 262 169 262 181.5 294.5 c 128,-1,30
 194 327 194 327 215 352 c 128,-1,31
 236 377 236 377 263.5 392.5 c 128,-1,32
 291 408 291 408 320 408 c 0,33,34
 338 408 338 408 353.5 400.5 c 128,-1,35
 369 393 369 393 381.5 379.5 c 128,-1,36
 394 366 394 366 402 348.5 c 128,-1,37
 410 331 410 331 412 310 c 1,38,-1
 387 194 l 1,39,40
 373 177 373 177 358.5 162.5 c 128,-1,41
 344 148 344 148 328.5 138 c 128,-1,42
 313 128 313 128 296.5 122 c 128,-1,43
 280 116 280 116 263 116 c 0,23,24
EndSplineSet
Substitution2: "'ss06' Style Set 6 lookup 37 subtable" q.ss06
Substitution2: "'aalt' Access All Alternates lookup 0 subtable" q.ss06
EndChar

StartChar: r
Encoding: 114 114 85
Width: 386
GlyphClass: 1
Flags: W
LayerCount: 2
Fore
SplineSet
-8 0 m 1,0,-1
 142 0 l 1,1,-1
 208 316 l 1,2,3
 237 356 237 356 286 376 c 128,-1,4
 335 396 335 396 391 396 c 1,5,-1
 419 529 l 1,6,7
 415 530 415 530 410 530.5 c 128,-1,8
 405 531 405 531 395 531 c 0,9,10
 349 531 349 531 302.5 500 c 128,-1,11
 256 469 256 469 218 416 c 1,12,-1
 241 524 l 1,13,-1
 104 524 l 1,14,-1
 -8 0 l 1,0,-1
EndSplineSet
EndChar

StartChar: s
Encoding: 115 115 86
Width: 481
GlyphClass: 1
Flags: W
LayerCount: 2
Fore
SplineSet
187 -10 m 0,0,1
 242 -10 242 -10 286.5 4.5 c 128,-1,2
 331 19 331 19 363 44.5 c 128,-1,3
 395 70 395 70 412.5 105.5 c 128,-1,4
 430 141 430 141 430 183 c 0,5,6
 430 209 430 209 420.5 229 c 128,-1,7
 411 249 411 249 391 265 c 128,-1,8
 371 281 371 281 340.5 294 c 128,-1,9
 310 307 310 307 267 319 c 0,10,11
 245 326 245 326 230.5 331 c 128,-1,12
 216 336 216 336 207 342 c 128,-1,13
 198 348 198 348 194 355 c 128,-1,14
 190 362 190 362 190 372 c 0,15,16
 190 386 190 386 196 396.5 c 128,-1,17
 202 407 202 407 212 414.5 c 128,-1,18
 222 422 222 422 236 425.5 c 128,-1,19
 250 429 250 429 266 429 c 0,20,21
 298 429 298 429 327 416 c 128,-1,22
 356 403 356 403 391 372 c 1,23,-1
 469 461 l 1,24,25
 432 501 432 501 386.5 518 c 128,-1,26
 341 535 341 535 284 535 c 0,27,28
 234 535 234 535 190.5 519.5 c 128,-1,29
 147 504 147 504 114.5 477.5 c 128,-1,30
 82 451 82 451 63.5 414.5 c 128,-1,31
 45 378 45 378 45 336 c 0,32,33
 45 311 45 311 54 293 c 128,-1,34
 63 275 63 275 81.5 261 c 128,-1,35
 100 247 100 247 129 235 c 128,-1,36
 158 223 158 223 199 210 c 0,37,38
 221 203 221 203 236 197.5 c 128,-1,39
 251 192 251 192 261 185.5 c 128,-1,40
 271 179 271 179 275.5 171 c 128,-1,41
 280 163 280 163 280 153 c 0,42,43
 280 140 280 140 275 129.5 c 128,-1,44
 270 119 270 119 260.5 112 c 128,-1,45
 251 105 251 105 237 101 c 128,-1,46
 223 97 223 97 205 97 c 0,47,48
 165 97 165 97 125 114 c 128,-1,49
 85 131 85 131 47 165 c 1,50,-1
 -26 73 l 1,51,52
 9 33 9 33 65.5 11.5 c 128,-1,53
 122 -10 122 -10 187 -10 c 0,0,1
EndSplineSet
EndChar

StartChar: t
Encoding: 116 116 87
Width: 384
GlyphClass: 1
Flags: W
LayerCount: 2
Fore
SplineSet
46 87 m 0,0,1
 46 35 46 35 79 13 c 128,-1,2
 112 -9 112 -9 160 -9 c 0,3,4
 181 -9 181 -9 201.5 -6 c 128,-1,5
 222 -3 222 -3 242.5 2 c 128,-1,6
 263 7 263 7 282.5 13.5 c 128,-1,7
 302 20 302 20 319 28 c 1,8,-1
 316 146 l 1,9,10
 308 143 308 143 299 139.5 c 128,-1,11
 290 136 290 136 280.5 133.5 c 128,-1,12
 271 131 271 131 262 129 c 128,-1,13
 253 127 253 127 244 127 c 0,14,15
 228 127 228 127 218 134.5 c 128,-1,16
 208 142 208 142 208 160 c 0,17,18
 208 164 208 164 208.5 168 c 128,-1,19
 209 172 209 172 210 177 c 2,20,-1
 260 411 l 1,21,-1
 362 411 l 1,22,-1
 386 524 l 1,23,-1
 284 524 l 1,24,-1
 320 693 l 1,25,-1
 171 693 l 1,26,-1
 135 524 l 1,27,-1
 72 524 l 1,28,-1
 47 411 l 1,29,-1
 111 411 l 1,30,-1
 50 126 l 2,31,32
 48 115 48 115 47 105.5 c 128,-1,33
 46 96 46 96 46 87 c 0,0,1
EndSplineSet
Substitution2: "'ss07' Style Set 7 lookup 38 subtable" t.ss07
Substitution2: "'aalt' Access All Alternates lookup 0 subtable" t.ss07
EndChar

StartChar: u
Encoding: 117 117 88
Width: 588
GlyphClass: 1
Flags: W
LayerCount: 2
Fore
SplineSet
151 -10 m 0,0,1
 177 -10 177 -10 203 -4.5 c 128,-1,2
 229 1 229 1 254.5 13 c 128,-1,3
 280 25 280 25 302.5 42.5 c 128,-1,4
 325 60 325 60 343 85 c 1,5,-1
 325 0 l 1,6,-1
 468 0 l 1,7,-1
 580 524 l 1,8,-1
 430 524 l 1,9,-1
 362 200 l 1,10,11
 347 179 347 179 330.5 163.5 c 128,-1,12
 314 148 314 148 298 137.5 c 128,-1,13
 282 127 282 127 266.5 121.5 c 128,-1,14
 251 116 251 116 236 116 c 0,15,16
 206 116 206 116 192.5 133.5 c 128,-1,17
 179 151 179 151 179 180 c 0,18,19
 179 190 179 190 180 201 c 128,-1,20
 181 212 181 212 184 224 c 2,21,-1
 248 524 l 1,22,-1
 99 524 l 1,23,-1
 28 192 l 2,24,25
 23 171 23 171 21 152.5 c 128,-1,26
 19 134 19 134 19 117 c 0,27,28
 19 86 19 86 26.5 62.5 c 128,-1,29
 34 39 34 39 50 23 c 128,-1,30
 66 7 66 7 91.5 -1.5 c 128,-1,31
 117 -10 117 -10 151 -10 c 0,0,1
EndSplineSet
Substitution2: "'ss08' Style Set 8 lookup 39 subtable" u.ss08
Substitution2: "'aalt' Access All Alternates lookup 0 subtable" u.ss08
EndChar

StartChar: v
Encoding: 118 118 89
Width: 532
GlyphClass: 1
Flags: W
LayerCount: 2
Fore
SplineSet
113 0 m 1,0,-1
 285 0 l 1,1,-1
 568 524 l 1,2,-1
 416 524 l 1,3,-1
 226 120 l 1,4,-1
 203 524 l 1,5,-1
 48 524 l 1,6,-1
 113 0 l 1,0,-1
EndSplineSet
EndChar

StartChar: w
Encoding: 119 119 90
Width: 843
GlyphClass: 1
Flags: W
LayerCount: 2
Fore
SplineSet
58 521 m 1,0,-1
 117 0 l 1,1,-1
 270 0 l 1,2,-1
 426 320 l 1,3,-1
 440 0 l 1,4,-1
 600 0 l 1,5,-1
 877 521 l 1,6,-1
 738 521 l 1,7,-1
 548 146 l 1,8,-1
 535 521 l 1,9,-1
 403 521 l 1,10,-1
 232 146 l 1,11,-1
 201 521 l 1,12,-1
 58 521 l 1,0,-1
EndSplineSet
Substitution2: "'ss09' Style Set 9 lookup 40 subtable" w.ss09
Substitution2: "'aalt' Access All Alternates lookup 0 subtable" w.ss09
EndChar

StartChar: x
Encoding: 120 120 91
Width: 518
GlyphClass: 1
Flags: W
LayerCount: 2
Fore
SplineSet
-62 0 m 1,0,-1
 91 0 l 1,1,-1
 219 154 l 1,2,-1
 231 172 l 1,3,-1
 236 154 l 1,4,-1
 299 0 l 1,5,-1
 452 0 l 1,6,-1
 331 262 l 1,7,-1
 560 524 l 1,8,-1
 409 524 l 1,9,-1
 282 370 l 1,10,-1
 269 351 l 1,11,-1
 264 370 l 1,12,-1
 205 524 l 1,13,-1
 53 524 l 1,14,-1
 170 262 l 1,15,-1
 -62 0 l 1,0,-1
EndSplineSet
EndChar

StartChar: y
Encoding: 121 121 92
Width: 521
GlyphClass: 1
Flags: W
LayerCount: 2
Fore
SplineSet
126 0 m 1,0,1
 112 -24 112 -24 97 -50 c 128,-1,2
 82 -76 82 -76 66 -103 c 128,-1,3
 50 -130 50 -130 33.5 -158 c 128,-1,4
 17 -186 17 -186 1 -213 c 1,5,-1
 174 -213 l 1,6,-1
 561 524 l 1,7,-1
 421 524 l 1,8,-1
 235 128 l 1,9,-1
 206 524 l 1,10,-1
 46 524 l 1,11,-1
 126 0 l 1,0,1
EndSplineSet
Substitution2: "'ss10' Style Set 10 lookup 41 subtable" y.ss10
Substitution2: "'aalt' Access All Alternates lookup 0 subtable" y.ss10
EndChar

StartChar: z
Encoding: 122 122 93
Width: 471
GlyphClass: 1
Flags: W
LayerCount: 2
Fore
SplineSet
-39 0 m 1,0,-1
 380 0 l 1,1,-1
 402 104 l 1,2,-1
 142 104 l 1,3,-1
 466 434 l 1,4,-1
 485 524 l 1,5,-1
 85 524 l 1,6,-1
 63 421 l 1,7,-1
 305 421 l 1,8,-1
 -20 90 l 1,9,-1
 -39 0 l 1,0,-1
EndSplineSet
EndChar

StartChar: braceleft
Encoding: 123 123 94
Width: 322
GlyphClass: 1
Flags: W
LayerCount: 2
Fore
SplineSet
345 621 m 1,0,-1
 371 740 l 1,1,-1
 206 740 l 2,2,3
 201 740 201 740 191.5 734 c 128,-1,4
 182 728 182 728 178 710 c 2,5,-1
 129 481 l 2,6,7
 127 469 127 469 120 457 c 128,-1,8
 113 445 113 445 104 435 c 128,-1,9
 95 425 95 425 84 419 c 128,-1,10
 73 413 73 413 63 413 c 1,11,-1
 41 309 l 1,12,13
 56 306 56 306 67.5 291.5 c 128,-1,14
 79 277 79 277 79 256 c 0,15,16
 79 251 79 251 79 247.5 c 128,-1,17
 79 244 79 244 78 239 c 2,18,-1
 27 -1 l 2,19,20
 26 -4 26 -4 26 -6.5 c 128,-1,21
 26 -9 26 -9 26 -11 c 0,22,23
 26 -24 26 -24 31.5 -27.5 c 128,-1,24
 37 -31 37 -31 42 -31 c 2,25,-1
 207 -31 l 1,26,-1
 232 88 l 1,27,-1
 180 88 l 1,28,-1
 222 289 l 2,29,30
 223 293 223 293 223.5 297 c 128,-1,31
 224 301 224 301 224 306 c 0,32,33
 224 322 224 322 217.5 335.5 c 128,-1,34
 211 349 211 349 202 360 c 1,35,36
 220 374 220 374 234 391.5 c 128,-1,37
 248 409 248 409 252 431 c 2,38,-1
 293 621 l 1,39,-1
 345 621 l 1,0,-1
EndSplineSet
EndChar

StartChar: bar
Encoding: 124 124 95
Width: 336
GlyphClass: 1
Flags: W
LayerCount: 2
Fore
SplineSet
236 -130 m 1,0,-1
 236 775 l 1,1,-1
 110 775 l 1,2,-1
 110 -130 l 1,3,-1
 236 -130 l 1,0,-1
EndSplineSet
EndChar

StartChar: braceright
Encoding: 125 125 96
Width: 324
GlyphClass: 1
Flags: W
LayerCount: 2
Fore
SplineSet
169 621 m 1,0,-1
 128 431 l 2,1,2
 127 427 127 427 126.5 422.5 c 128,-1,3
 126 418 126 418 126 413 c 0,4,5
 126 397 126 397 132.5 384 c 128,-1,6
 139 371 139 371 148 360 c 1,7,8
 131 346 131 346 116.5 328.5 c 128,-1,9
 102 311 102 311 98 289 c 2,10,-1
 55 88 l 1,11,-1
 3 88 l 1,12,-1
 -23 -31 l 1,13,-1
 141 -31 l 2,14,15
 147 -31 147 -31 156.5 -25 c 128,-1,16
 166 -19 166 -19 170 -1 c 2,17,-1
 221 239 l 2,18,19
 227 267 227 267 247 286 c 128,-1,20
 267 305 267 305 287 309 c 1,21,-1
 309 413 l 1,22,23
 292 413 292 413 281 429.5 c 128,-1,24
 270 446 270 446 270 467 c 0,25,26
 270 470 270 470 270.5 473.5 c 128,-1,27
 271 477 271 477 272 481 c 2,28,-1
 321 710 l 2,29,30
 322 713 322 713 322 715.5 c 128,-1,31
 322 718 322 718 322 720 c 0,32,33
 322 731 322 731 316 735.5 c 128,-1,34
 310 740 310 740 305 740 c 2,35,-1
 141 740 l 1,36,-1
 116 621 l 1,37,-1
 169 621 l 1,0,-1
EndSplineSet
EndChar

StartChar: asciitilde
Encoding: 126 126 97
Width: 557
GlyphClass: 1
Flags: W
LayerCount: 2
Fore
SplineSet
39 224 m 1,0,-1
 120 224 l 1,1,2
 120 225 120 225 123 233 c 128,-1,3
 126 241 126 241 133 250.5 c 128,-1,4
 140 260 140 260 153.5 268 c 128,-1,5
 167 276 167 276 188 276 c 256,6,7
 209 276 209 276 228.5 268 c 128,-1,8
 248 260 248 260 268 250.5 c 128,-1,9
 288 241 288 241 310 232.5 c 128,-1,10
 332 224 332 224 359 224 c 0,11,12
 402 224 402 224 432 243.5 c 128,-1,13
 462 263 462 263 480.5 287.5 c 128,-1,14
 499 312 499 312 508 334 c 128,-1,15
 517 356 517 356 518 362 c 1,16,-1
 437 362 l 1,17,18
 437 361 437 361 433.5 352.5 c 128,-1,19
 430 344 430 344 422 335 c 128,-1,20
 414 326 414 326 400 318.5 c 128,-1,21
 386 311 386 311 365 311 c 0,22,23
 343 311 343 311 323.5 319 c 128,-1,24
 304 327 304 327 284.5 337 c 128,-1,25
 265 347 265 347 242.5 355.5 c 128,-1,26
 220 364 220 364 193 364 c 0,27,28
 152 364 152 364 123 346 c 128,-1,29
 94 328 94 328 75.5 304.5 c 128,-1,30
 57 281 57 281 48.5 257.5 c 128,-1,31
 40 234 40 234 39 224 c 1,0,-1
EndSplineSet
EndChar

StartChar: exclamdown
Encoding: 161 161 99
Width: 301
GlyphClass: 1
Flags: W
LayerCount: 2
Fore
SplineSet
290 436 m 256,0,1
 294 455 294 455 290.5 472 c 128,-1,2
 287 489 287 489 277 501.5 c 128,-1,3
 267 514 267 514 251.5 521.5 c 128,-1,4
 236 529 236 529 217 529 c 256,5,6
 198 529 198 529 180 521.5 c 128,-1,7
 162 514 162 514 146 501.5 c 128,-1,8
 130 489 130 489 119.5 472 c 128,-1,9
 109 455 109 455 105 436 c 256,10,11
 101 417 101 417 104.5 400.5 c 128,-1,12
 108 384 108 384 118 371.5 c 128,-1,13
 128 359 128 359 143.5 351.5 c 128,-1,14
 159 344 159 344 178 344 c 256,15,16
 197 344 197 344 215.5 351.5 c 128,-1,17
 234 359 234 359 249.5 371.5 c 128,-1,18
 265 384 265 384 275.5 400.5 c 128,-1,19
 286 417 286 417 290 436 c 256,0,1
104 243 m 1,20,-1
 28 -11 l 1,21,-1
 -12 -198 l 1,22,-1
 138 -198 l 1,23,-1
 177 -11 l 1,24,-1
 209 243 l 1,25,-1
 104 243 l 1,20,-1
EndSplineSet
EndChar

StartChar: cent
Encoding: 162 162 100
Width: 579
GlyphClass: 1
Flags: W
LayerCount: 2
Fore
SplineSet
243 -120 m 1,0,-1
 266 -10 l 1,1,2
 290 -10 290 -10 322.5 -1.5 c 128,-1,3
 355 7 355 7 388.5 24 c 128,-1,4
 422 41 422 41 453.5 67 c 128,-1,5
 485 93 485 93 507 128 c 1,6,-1
 370 172 l 1,7,8
 365 162 365 162 356.5 154 c 128,-1,9
 348 146 348 146 337.5 139 c 128,-1,10
 327 132 327 132 316 127.5 c 128,-1,11
 305 123 305 123 294 120 c 1,12,-1
 354 403 l 1,13,14
 372 401 372 401 387 388 c 128,-1,15
 402 375 402 375 408 353 c 1,16,-1
 563 397 l 1,17,18
 544 463 544 463 495 496.5 c 128,-1,19
 446 530 446 530 381 532 c 1,20,-1
 405 645 l 1,21,-1
 341 645 l 1,22,-1
 316 532 l 1,23,24
 248 522 248 522 194.5 491 c 128,-1,25
 141 460 141 460 103.5 416.5 c 128,-1,26
 66 373 66 373 46 320 c 128,-1,27
 26 267 26 267 26 212 c 0,28,29
 26 172 26 172 38 133.5 c 128,-1,30
 50 95 50 95 72.5 64.5 c 128,-1,31
 95 34 95 34 127.5 14 c 128,-1,32
 160 -6 160 -6 202 -9 c 1,33,-1
 178 -120 l 1,34,-1
 243 -120 l 1,0,-1
181 224 m 0,35,36
 181 251 181 251 189 278.5 c 128,-1,37
 197 306 197 306 211.5 330 c 128,-1,38
 226 354 226 354 245.5 371.5 c 128,-1,39
 265 389 265 389 287 396 c 1,40,-1
 230 127 l 1,41,42
 219 132 219 132 209.5 141.5 c 128,-1,43
 200 151 200 151 193.5 164.5 c 128,-1,44
 187 178 187 178 184 193 c 128,-1,45
 181 208 181 208 181 224 c 0,35,36
EndSplineSet
EndChar

StartChar: sterling
Encoding: 163 163 101
Width: 536
GlyphClass: 1
Flags: W
LayerCount: 2
Fore
SplineSet
51 272 m 1,0,-1
 424 272 l 1,1,-1
 448 383 l 1,2,-1
 74 383 l 1,3,-1
 51 272 l 1,0,-1
15 -9 m 1,4,5
 50 2 50 2 86 8.5 c 128,-1,6
 122 15 122 15 147 15 c 0,7,8
 171 15 171 15 193 10.5 c 128,-1,9
 215 6 215 6 237 0 c 128,-1,10
 259 -6 259 -6 280.5 -10.5 c 128,-1,11
 302 -15 302 -15 323 -15 c 0,12,13
 351 -15 351 -15 383.5 -6.5 c 128,-1,14
 416 2 416 2 440 16 c 1,15,-1
 428 127 l 1,16,17
 407 119 407 119 391 115.5 c 128,-1,18
 375 112 375 112 358 112 c 0,19,20
 342 112 342 112 327 114.5 c 128,-1,21
 312 117 312 117 297 120 c 128,-1,22
 282 123 282 123 266.5 125.5 c 128,-1,23
 251 128 251 128 235 128 c 0,24,25
 218 128 218 128 200.5 125 c 128,-1,26
 183 122 183 122 159 115 c 1,27,28
 193 147 193 147 215.5 173 c 128,-1,29
 238 199 238 199 251.5 224 c 128,-1,30
 265 249 265 249 270 274 c 128,-1,31
 275 299 275 299 275 327 c 0,32,33
 275 352 275 352 271 375.5 c 128,-1,34
 267 399 267 399 262.5 420.5 c 128,-1,35
 258 442 258 442 254 462 c 128,-1,36
 250 482 250 482 250 500 c 0,37,38
 250 520 250 520 257 537.5 c 128,-1,39
 264 555 264 555 275.5 567.5 c 128,-1,40
 287 580 287 580 303.5 587 c 128,-1,41
 320 594 320 594 338 594 c 0,42,43
 371 594 371 594 403.5 572.5 c 128,-1,44
 436 551 436 551 452 518 c 1,45,-1
 548 610 l 1,46,47
 521 660 521 660 473 687.5 c 128,-1,48
 425 715 425 715 365 715 c 0,49,50
 317 715 317 715 272.5 698.5 c 128,-1,51
 228 682 228 682 194 653 c 128,-1,52
 160 624 160 624 139.5 585.5 c 128,-1,53
 119 547 119 547 119 502 c 0,54,55
 119 479 119 479 123 455.5 c 128,-1,56
 127 432 127 432 131.5 408 c 128,-1,57
 136 384 136 384 140.5 360.5 c 128,-1,58
 145 337 145 337 145 312 c 0,59,60
 145 283 145 283 135 254.5 c 128,-1,61
 125 226 125 226 107 199 c 128,-1,62
 89 172 89 172 64 146.5 c 128,-1,63
 39 121 39 121 6 97 c 1,64,-1
 15 -9 l 1,4,5
EndSplineSet
EndChar

StartChar: currency
Encoding: 164 164 102
Width: 578
GlyphClass: 1
Flags: W
LayerCount: 2
Fore
SplineSet
123 570 m 1,0,-1
 64 511 l 1,1,-1
 131 443 l 1,2,3
 116 420 116 420 108.5 393 c 128,-1,4
 101 366 101 366 101 338 c 0,5,6
 101 308 101 308 109 281 c 128,-1,7
 117 254 117 254 132 231 c 1,8,-1
 64 163 l 1,9,-1
 118 109 l 1,10,-1
 190 177 l 1,11,12
 212 164 212 164 239 157 c 128,-1,13
 266 150 266 150 298 150 c 0,14,15
 329 150 329 150 355.5 156.5 c 128,-1,16
 382 163 382 163 403 177 c 1,17,-1
 476 109 l 1,18,-1
 530 163 l 1,19,-1
 462 230 l 1,20,21
 478 253 478 253 486 280.5 c 128,-1,22
 494 308 494 308 494 338 c 0,23,24
 494 367 494 367 486 394 c 128,-1,25
 478 421 478 421 463 444 c 1,26,-1
 530 511 l 1,27,-1
 471 570 l 1,28,-1
 401 500 l 1,29,30
 380 512 380 512 354 519 c 128,-1,31
 328 526 328 526 298 526 c 0,32,33
 267 526 267 526 240.5 519 c 128,-1,34
 214 512 214 512 192 499 c 1,35,-1
 123 570 l 1,0,-1
210 337 m 256,36,37
 210 358 210 358 216.5 376 c 128,-1,38
 223 394 223 394 235 407 c 128,-1,39
 247 420 247 420 263 427 c 128,-1,40
 279 434 279 434 298 434 c 256,41,42
 317 434 317 434 333 427 c 128,-1,43
 349 420 349 420 360.5 407.5 c 128,-1,44
 372 395 372 395 379 377 c 128,-1,45
 386 359 386 359 386 338 c 256,46,47
 386 317 386 317 379 299 c 128,-1,48
 372 281 372 281 360.5 268.5 c 128,-1,49
 349 256 349 256 333 248.5 c 128,-1,50
 317 241 317 241 298 241 c 256,51,52
 279 241 279 241 263 248.5 c 128,-1,53
 247 256 247 256 235 268 c 128,-1,54
 223 280 223 280 216.5 298 c 128,-1,55
 210 316 210 316 210 337 c 256,36,37
EndSplineSet
EndChar

StartChar: yen
Encoding: 165 165 103
Width: 694
GlyphClass: 1
Flags: W
LayerCount: 2
Fore
SplineSet
745 710 m 1,0,-1
 578 710 l 1,1,-1
 358 378 l 1,2,-1
 281 710 l 1,3,-1
 115 710 l 1,4,-1
 205 410 l 1,5,-1
 138 410 l 1,6,-1
 117 314 l 1,7,-1
 234 314 l 1,8,-1
 254 247 l 1,9,-1
 247 214 l 1,10,-1
 96 214 l 1,11,-1
 75 118 l 1,12,-1
 226 118 l 1,13,-1
 201 0 l 1,14,-1
 354 0 l 1,15,-1
 378 118 l 1,16,-1
 531 118 l 1,17,-1
 551 214 l 1,18,-1
 399 214 l 1,19,-1
 406 245 l 1,20,-1
 456 314 l 1,21,-1
 572 314 l 1,22,-1
 592 410 l 1,23,-1
 526 410 l 1,24,-1
 745 710 l 1,0,-1
EndSplineSet
EndChar

StartChar: brokenbar
Encoding: 166 166 104
Width: 328
GlyphClass: 1
Flags: W
LayerCount: 2
Fore
SplineSet
106 262 m 1,0,-1
 106 -130 l 1,1,-1
 232 -130 l 1,2,-1
 232 262 l 1,3,-1
 106 262 l 1,0,-1
106 775 m 1,4,-1
 106 383 l 1,5,-1
 232 383 l 1,6,-1
 232 775 l 1,7,-1
 106 775 l 1,4,-1
EndSplineSet
EndChar

StartChar: section
Encoding: 167 167 105
Width: 520
GlyphClass: 1
Flags: W
LayerCount: 2
Fore
SplineSet
431 220 m 1,0,1
 436 225 436 225 442.5 236 c 128,-1,2
 449 247 449 247 455 261.5 c 128,-1,3
 461 276 461 276 465.5 293.5 c 128,-1,4
 470 311 470 311 470 330 c 0,5,6
 470 369 470 369 454 395 c 128,-1,7
 438 421 438 421 412.5 437.5 c 128,-1,8
 387 454 387 454 355 461.5 c 128,-1,9
 323 469 323 469 292 470 c 0,10,11
 269 471 269 471 253.5 479 c 128,-1,12
 238 487 238 487 238 511 c 0,13,14
 238 528 238 528 244 541 c 128,-1,15
 250 554 250 554 261 563.5 c 128,-1,16
 272 573 272 573 286.5 578 c 128,-1,17
 301 583 301 583 317 583 c 0,18,19
 332 583 332 583 344.5 579 c 128,-1,20
 357 575 357 575 366.5 568.5 c 128,-1,21
 376 562 376 562 383 552.5 c 128,-1,22
 390 543 390 543 393 532 c 1,23,-1
 518 585 l 1,24,25
 510 604 510 604 497 626.5 c 128,-1,26
 484 649 484 649 462.5 668.5 c 128,-1,27
 441 688 441 688 410 701.5 c 128,-1,28
 379 715 379 715 336 715 c 0,29,30
 286 715 286 715 241 696 c 128,-1,31
 196 677 196 677 161.5 646 c 128,-1,32
 127 615 127 615 106 574 c 128,-1,33
 85 533 85 533 85 489 c 0,34,35
 85 463 85 463 90 442.5 c 128,-1,36
 95 422 95 422 101 413 c 1,37,38
 97 407 97 407 91.5 397.5 c 128,-1,39
 86 388 86 388 80 375.5 c 128,-1,40
 74 363 74 363 70 346 c 128,-1,41
 66 329 66 329 66 307 c 0,42,43
 66 277 66 277 76.5 251 c 128,-1,44
 87 225 87 225 107.5 205.5 c 128,-1,45
 128 186 128 186 159.5 174.5 c 128,-1,46
 191 163 191 163 233 160 c 0,47,48
 242 159 242 159 251 157.5 c 128,-1,49
 260 156 260 156 267 152 c 128,-1,50
 274 148 274 148 279 141.5 c 128,-1,51
 284 135 284 135 284 123 c 0,52,53
 284 107 284 107 277 94 c 128,-1,54
 270 81 270 81 258 72 c 128,-1,55
 246 63 246 63 231 58.5 c 128,-1,56
 216 54 216 54 200 54 c 0,57,58
 172 54 172 54 148.5 66.5 c 128,-1,59
 125 79 125 79 104 110 c 1,60,-1
 -11 19 l 1,61,62
 -3 5 -3 5 12.5 -13.5 c 128,-1,63
 28 -32 28 -32 52 -48.5 c 128,-1,64
 76 -65 76 -65 107 -76.5 c 128,-1,65
 138 -88 138 -88 177 -88 c 0,66,67
 215 -88 215 -88 261.5 -74.5 c 128,-1,68
 308 -61 308 -61 348.5 -32 c 128,-1,69
 389 -3 389 -3 416.5 44 c 128,-1,70
 444 91 444 91 444 158 c 0,71,72
 444 178 444 178 440.5 194.5 c 128,-1,73
 437 211 437 211 431 220 c 1,0,1
209 308 m 0,74,75
 209 324 209 324 216 337.5 c 128,-1,76
 223 351 223 351 231 358 c 1,77,78
 235 356 235 356 247 353.5 c 128,-1,79
 259 351 259 351 273 351 c 0,80,81
 281 351 281 351 290.5 348.5 c 128,-1,82
 300 346 300 346 307.5 341 c 128,-1,83
 315 336 315 336 319.5 327 c 128,-1,84
 324 318 324 318 324 306 c 0,85,86
 324 292 324 292 317.5 278 c 128,-1,87
 311 264 311 264 301 256 c 1,88,89
 291 261 291 261 275 262 c 128,-1,90
 259 263 259 263 244.5 267 c 128,-1,91
 230 271 230 271 219.5 279.5 c 128,-1,92
 209 288 209 288 209 308 c 0,74,75
EndSplineSet
EndChar

StartChar: copyright
Encoding: 169 169 107
Width: 857
GlyphClass: 1
Flags: W
LayerCount: 2
Fore
SplineSet
436 -7 m 0,0,1
 519 -7 519 -7 589.5 20.5 c 128,-1,2
 660 48 660 48 711 96.5 c 128,-1,3
 762 145 762 145 791 211 c 128,-1,4
 820 277 820 277 820 355 c 0,5,6
 820 432 820 432 791 498 c 128,-1,7
 762 564 762 564 711 612 c 128,-1,8
 660 660 660 660 589.5 687.5 c 128,-1,9
 519 715 519 715 436 715 c 0,10,11
 356 715 356 715 286.5 687.5 c 128,-1,12
 217 660 217 660 167 612 c 128,-1,13
 117 564 117 564 88.5 498 c 128,-1,14
 60 432 60 432 60 355 c 0,15,16
 60 277 60 277 88.5 211 c 128,-1,17
 117 145 117 145 167 96.5 c 128,-1,18
 217 48 217 48 286.5 20.5 c 128,-1,19
 356 -7 356 -7 436 -7 c 0,0,1
436 47 m 0,20,21
 368 47 368 47 309.5 70.5 c 128,-1,22
 251 94 251 94 208.5 135.5 c 128,-1,23
 166 177 166 177 142 233.5 c 128,-1,24
 118 290 118 290 118 355 c 0,25,26
 118 419 118 419 142 475 c 128,-1,27
 166 531 166 531 209 572.5 c 128,-1,28
 252 614 252 614 310.5 637.5 c 128,-1,29
 369 661 369 661 436 661 c 0,30,31
 507 661 507 661 566.5 637.5 c 128,-1,32
 626 614 626 614 669 572.5 c 128,-1,33
 712 531 712 531 737 475 c 128,-1,34
 762 419 762 419 762 354 c 0,35,36
 762 286 762 286 736.5 229.5 c 128,-1,37
 711 173 711 173 667.5 132.5 c 128,-1,38
 624 92 624 92 564.5 69.5 c 128,-1,39
 505 47 505 47 436 47 c 0,20,21
446 115 m 0,40,41
 489 115 489 115 525.5 125.5 c 128,-1,42
 562 136 562 136 591 154.5 c 128,-1,43
 620 173 620 173 641 197.5 c 128,-1,44
 662 222 662 222 675 249 c 1,45,-1
 530 293 l 1,46,47
 523 281 523 281 514 271.5 c 128,-1,48
 505 262 505 262 493.5 255 c 128,-1,49
 482 248 482 248 469.5 244.5 c 128,-1,50
 457 241 457 241 444 241 c 0,51,52
 425 241 425 241 406.5 248.5 c 128,-1,53
 388 256 388 256 374 270.5 c 128,-1,54
 360 285 360 285 351 306 c 128,-1,55
 342 327 342 327 342 354 c 0,56,57
 342 378 342 378 349 399 c 128,-1,58
 356 420 356 420 369 435 c 128,-1,59
 382 450 382 450 401 459 c 128,-1,60
 420 468 420 468 443 468 c 0,61,62
 455 468 455 468 467 465 c 128,-1,63
 479 462 479 462 490 456 c 128,-1,64
 501 450 501 450 510.5 440.5 c 128,-1,65
 520 431 520 431 527 418 c 1,66,-1
 672 462 l 1,67,68
 644 522 644 522 585.5 558 c 128,-1,69
 527 594 527 594 444 594 c 0,70,71
 381 594 381 594 333 574 c 128,-1,72
 285 554 285 554 253 520.5 c 128,-1,73
 221 487 221 487 205 443.5 c 128,-1,74
 189 400 189 400 189 354 c 0,75,76
 189 305 189 305 207 261.5 c 128,-1,77
 225 218 225 218 258.5 185.5 c 128,-1,78
 292 153 292 153 339.5 134 c 128,-1,79
 387 115 387 115 446 115 c 0,40,41
EndSplineSet
EndChar

StartChar: ordfeminine
Encoding: 170 170 108
Width: 428
GlyphClass: 1
Flags: W
LayerCount: 2
Fore
SplineSet
159 337 m 0,0,1
 193 337 193 337 227 353.5 c 128,-1,2
 261 370 261 370 290 402 c 1,3,-1
 280 346 l 1,4,-1
 368 346 l 1,5,6
 368 348 368 348 372 366 c 128,-1,7
 376 384 376 384 380 406 c 128,-1,8
 384 428 384 428 388 446.5 c 128,-1,9
 392 465 392 465 392 467 c 2,10,-1
 412 562 l 2,11,12
 414 573 414 573 415.5 583.5 c 128,-1,13
 417 594 417 594 417 605 c 0,14,15
 417 659 417 659 383 686 c 128,-1,16
 349 713 349 713 285 713 c 0,17,18
 244 713 244 713 206 701.5 c 128,-1,19
 168 690 168 690 130 667 c 1,20,-1
 147 600 l 1,21,22
 178 620 178 620 205 630 c 128,-1,23
 232 640 232 640 260 640 c 0,24,25
 287 640 287 640 300 628.5 c 128,-1,26
 313 617 313 617 313 595 c 0,27,28
 313 590 313 590 312.5 585 c 128,-1,29
 312 580 312 580 310 574 c 2,30,-1
 307 558 l 1,31,32
 294 565 294 565 276 569 c 128,-1,33
 258 573 258 573 236 573 c 0,34,35
 201 573 201 573 170 562 c 128,-1,36
 139 551 139 551 115.5 532 c 128,-1,37
 92 513 92 513 79 487.5 c 128,-1,38
 66 462 66 462 66 431 c 0,39,40
 66 390 66 390 91 363.5 c 128,-1,41
 116 337 116 337 159 337 c 0,0,1
207 416 m 0,42,43
 190 416 190 416 179.5 426.5 c 128,-1,44
 169 437 169 437 169 454 c 0,45,46
 169 479 169 479 190.5 496 c 128,-1,47
 212 513 212 513 242 513 c 0,48,49
 255 513 255 513 269 510 c 128,-1,50
 283 507 283 507 294 501 c 1,51,-1
 286 465 l 2,52,53
 284 456 284 456 275.5 447 c 128,-1,54
 267 438 267 438 255.5 431 c 128,-1,55
 244 424 244 424 231 420 c 128,-1,56
 218 416 218 416 207 416 c 0,42,43
EndSplineSet
EndChar

StartChar: guillemotleft
Encoding: 171 171 109
Width: 646
GlyphClass: 1
Flags: W
LayerCount: 2
Fore
SplineSet
17 220 m 1,0,-1
 235 42 l 1,1,-1
 260 163 l 1,2,-1
 143 259 l 1,3,-1
 303 361 l 1,4,-1
 329 482 l 1,5,-1
 32 291 l 1,6,-1
 17 220 l 1,0,-1
317 220 m 1,7,-1
 535 42 l 1,8,-1
 561 163 l 1,9,-1
 443 259 l 1,10,-1
 603 361 l 1,11,-1
 629 482 l 1,12,-1
 332 291 l 1,13,-1
 317 220 l 1,7,-1
EndSplineSet
EndChar

StartChar: logicalnot
Encoding: 172 172 110
Width: 597
GlyphClass: 1
Flags: W
LayerCount: 2
Fore
SplineSet
77 409 m 1,0,-1
 49 275 l 1,1,-1
 402 275 l 1,2,-1
 365 101 l 1,3,-1
 491 101 l 1,4,-1
 557 409 l 1,5,-1
 77 409 l 1,0,-1
EndSplineSet
EndChar

StartChar: uni00AD
Encoding: 173 173 111
Width: 589
GlyphClass: 1
Flags: W
LayerCount: 2
Fore
SplineSet
515 208 m 1,0,-1
 543 342 l 1,1,-1
 63 342 l 1,2,-1
 35 208 l 1,3,-1
 515 208 l 1,0,-1
EndSplineSet
EndChar

StartChar: registered
Encoding: 174 174 112
Width: 857
GlyphClass: 1
Flags: W
LayerCount: 2
Fore
SplineSet
438 -7 m 256,0,1
 520 -7 520 -7 590 20.5 c 128,-1,2
 660 48 660 48 711.5 96.5 c 128,-1,3
 763 145 763 145 791.5 211 c 128,-1,4
 820 277 820 277 820 355 c 0,5,6
 820 432 820 432 791.5 498 c 128,-1,7
 763 564 763 564 711.5 612 c 128,-1,8
 660 660 660 660 590 687.5 c 128,-1,9
 520 715 520 715 438 715 c 256,10,11
 356 715 356 715 287 687.5 c 128,-1,12
 218 660 218 660 167.5 612 c 128,-1,13
 117 564 117 564 88.5 498 c 128,-1,14
 60 432 60 432 60 355 c 0,15,16
 60 277 60 277 88.5 211 c 128,-1,17
 117 145 117 145 167.5 96.5 c 128,-1,18
 218 48 218 48 287 20.5 c 128,-1,19
 356 -7 356 -7 438 -7 c 256,0,1
439 46 m 0,20,21
 369 46 369 46 311 70 c 128,-1,22
 253 94 253 94 211 135.5 c 128,-1,23
 169 177 169 177 145 233.5 c 128,-1,24
 121 290 121 290 121 355 c 0,25,26
 121 419 121 419 145 475 c 128,-1,27
 169 531 169 531 211 572.5 c 128,-1,28
 253 614 253 614 311 637.5 c 128,-1,29
 369 661 369 661 438 661 c 0,30,31
 508 661 508 661 566.5 637.5 c 128,-1,32
 625 614 625 614 668 572.5 c 128,-1,33
 711 531 711 531 735 474.5 c 128,-1,34
 759 418 759 418 759 353 c 0,35,36
 759 286 759 286 734.5 229.5 c 128,-1,37
 710 173 710 173 666.5 132 c 128,-1,38
 623 91 623 91 564.5 68.5 c 128,-1,39
 506 46 506 46 439 46 c 0,20,21
274 138 m 1,40,-1
 379 138 l 1,41,-1
 379 282 l 1,42,-1
 430 282 l 1,43,-1
 520 138 l 1,44,-1
 637 138 l 1,45,-1
 536 301 l 1,46,47
 553 309 553 309 567 322.5 c 128,-1,48
 581 336 581 336 591 352.5 c 128,-1,49
 601 369 601 369 606.5 388 c 128,-1,50
 612 407 612 407 612 427 c 0,51,52
 612 454 612 454 601 480.5 c 128,-1,53
 590 507 590 507 571.5 528 c 128,-1,54
 553 549 553 549 527 562 c 128,-1,55
 501 575 501 575 470 575 c 2,56,-1
 274 575 l 1,57,-1
 274 138 l 1,40,-1
379 372 m 1,58,-1
 379 482 l 1,59,-1
 458 482 l 2,60,61
 468 482 468 482 477 479 c 128,-1,62
 486 476 486 476 493 469 c 128,-1,63
 500 462 500 462 504 452 c 128,-1,64
 508 442 508 442 508 427 c 0,65,66
 508 414 508 414 504.5 403.5 c 128,-1,67
 501 393 501 393 495 386 c 128,-1,68
 489 379 489 379 480.5 375.5 c 128,-1,69
 472 372 472 372 461 372 c 2,70,-1
 379 372 l 1,58,-1
EndSplineSet
EndChar

StartChar: degree
Encoding: 176 176 114
Width: 282
GlyphClass: 1
Flags: W
LayerCount: 2
Fore
SplineSet
183 510 m 0,0,1
 210 510 210 510 233.5 520 c 128,-1,2
 257 530 257 530 274.5 547.5 c 128,-1,3
 292 565 292 565 302.5 588.5 c 128,-1,4
 313 612 313 612 313 640 c 0,5,6
 313 676 313 676 290.5 700 c 128,-1,7
 268 724 268 724 229 724 c 0,8,9
 202 724 202 724 178 712.5 c 128,-1,10
 154 701 154 701 137 683 c 128,-1,11
 120 665 120 665 110 641 c 128,-1,12
 100 617 100 617 100 593 c 0,13,14
 100 555 100 555 122 532.5 c 128,-1,15
 144 510 144 510 183 510 c 0,0,1
199 581 m 0,16,17
 186 581 186 581 178.5 589.5 c 128,-1,18
 171 598 171 598 171 611 c 0,19,20
 171 628 171 628 184.5 640 c 128,-1,21
 198 652 198 652 214 652 c 0,22,23
 224 652 224 652 232 645.5 c 128,-1,24
 240 639 240 639 240 624 c 0,25,26
 240 607 240 607 226.5 594 c 128,-1,27
 213 581 213 581 199 581 c 0,16,17
EndSplineSet
EndChar

StartChar: plusminus
Encoding: 177 177 115
Width: 519
GlyphClass: 1
Flags: W
LayerCount: 2
Fore
SplineSet
428 21 m 1,0,-1
 428 140 l 1,1,-1
 68 140 l 1,2,-1
 68 21 l 1,3,-1
 428 21 l 1,0,-1
316 439 m 1,4,-1
 316 562 l 1,5,-1
 182 562 l 1,6,-1
 182 439 l 1,7,-1
 68 439 l 1,8,-1
 68 320 l 1,9,-1
 182 320 l 1,10,-1
 182 197 l 1,11,-1
 316 197 l 1,12,-1
 316 320 l 1,13,-1
 429 320 l 1,14,-1
 429 439 l 1,15,-1
 316 439 l 1,4,-1
EndSplineSet
EndChar

StartChar: twosuperior
Encoding: 178 178 116
Width: 409
GlyphClass: 1
Flags: W
LayerCount: 2
Fore
SplineSet
385 386 m 1,0,-1
 404 471 l 1,1,-1
 207 471 l 1,2,3
 209 483 209 483 216.5 493 c 128,-1,4
 224 503 224 503 236 512 c 128,-1,5
 248 521 248 521 264.5 528.5 c 128,-1,6
 281 536 281 536 302 543 c 0,7,8
 330 552 330 552 357.5 565.5 c 128,-1,9
 385 579 385 579 406 599 c 128,-1,10
 427 619 427 619 440.5 646 c 128,-1,11
 454 673 454 673 454 710 c 0,12,13
 454 760 454 760 420 788.5 c 128,-1,14
 386 817 386 817 320 817 c 0,15,16
 288 817 288 817 258 810.5 c 128,-1,17
 228 804 228 804 203 794 c 128,-1,18
 178 784 178 784 158.5 772 c 128,-1,19
 139 760 139 760 129 748 c 1,20,-1
 168 683 l 1,21,22
 178 693 178 693 192.5 702.5 c 128,-1,23
 207 712 207 712 223 719.5 c 128,-1,24
 239 727 239 727 257.5 732 c 128,-1,25
 276 737 276 737 295 737 c 0,26,27
 325 737 325 737 340 724 c 128,-1,28
 355 711 355 711 355 689 c 256,29,30
 355 667 355 667 341.5 651.5 c 128,-1,31
 328 636 328 636 307 624 c 128,-1,32
 286 612 286 612 260.5 602.5 c 128,-1,33
 235 593 235 593 210 582 c 0,34,35
 171 565 171 565 144 547 c 128,-1,36
 117 529 117 529 98 506.5 c 128,-1,37
 79 484 79 484 66.5 454.5 c 128,-1,38
 54 425 54 425 46 386 c 1,39,-1
 385 386 l 1,0,-1
EndSplineSet
EndChar

StartChar: threesuperior
Encoding: 179 179 117
Width: 396
GlyphClass: 1
Flags: W
LayerCount: 2
Fore
SplineSet
201 379 m 0,0,1
 239 379 239 379 275 387.5 c 128,-1,2
 311 396 311 396 339 413.5 c 128,-1,3
 367 431 367 431 384 458 c 128,-1,4
 401 485 401 485 401 522 c 0,5,6
 401 555 401 555 384.5 580.5 c 128,-1,7
 368 606 368 606 337 611 c 1,8,9
 382 620 382 620 408.5 647.5 c 128,-1,10
 435 675 435 675 435 716 c 0,11,12
 435 761 435 761 400 789 c 128,-1,13
 365 817 365 817 301 817 c 0,14,15
 279 817 279 817 254 813.5 c 128,-1,16
 229 810 229 810 205.5 802.5 c 128,-1,17
 182 795 182 795 161.5 784 c 128,-1,18
 141 773 141 773 126 759 c 1,19,-1
 164 692 l 1,20,21
 184 711 184 711 212.5 725 c 128,-1,22
 241 739 241 739 277 739 c 0,23,24
 297 739 297 739 315.5 730 c 128,-1,25
 334 721 334 721 334 699 c 0,26,27
 334 686 334 686 328 675.5 c 128,-1,28
 322 665 322 665 309 658.5 c 128,-1,29
 296 652 296 652 275 648.5 c 128,-1,30
 254 645 254 645 224 645 c 2,31,-1
 202 645 l 1,32,-1
 186 568 l 1,33,-1
 208 568 l 2,34,35
 261 568 261 568 284.5 556.5 c 128,-1,36
 308 545 308 545 308 523 c 0,37,38
 308 508 308 508 300.5 496.5 c 128,-1,39
 293 485 293 485 280 477.5 c 128,-1,40
 267 470 267 470 250.5 466 c 128,-1,41
 234 462 234 462 215 462 c 0,42,43
 194 462 194 462 178.5 466 c 128,-1,44
 163 470 163 470 151 477.5 c 128,-1,45
 139 485 139 485 130.5 494 c 128,-1,46
 122 503 122 503 117 513 c 1,47,-1
 60 456 l 1,48,49
 67 418 67 418 106 398.5 c 128,-1,50
 145 379 145 379 201 379 c 0,0,1
EndSplineSet
EndChar

StartChar: uni00B5
Encoding: 181 181 119
Width: 643
GlyphClass: 1
Flags: W
LayerCount: 2
Fore
SplineSet
-42 -213 m 1,0,-1
 107 -213 l 1,1,-1
 152 42 l 1,2,3
 154 19 154 19 169.5 4.5 c 128,-1,4
 185 -10 185 -10 215 -10 c 0,5,6
 238 -10 238 -10 262.5 0.5 c 128,-1,7
 287 11 287 11 309.5 26.5 c 128,-1,8
 332 42 332 42 350 60 c 128,-1,9
 368 78 368 78 378 94 c 1,10,-1
 387 0 l 1,11,-1
 489 0 l 1,12,-1
 596 524 l 1,13,-1
 447 524 l 1,14,-1
 378 200 l 1,15,16
 362 178 362 178 345.5 162 c 128,-1,17
 329 146 329 146 313 136 c 128,-1,18
 297 126 297 126 281 121 c 128,-1,19
 265 116 265 116 251 116 c 0,20,21
 223 116 223 116 208.5 132 c 128,-1,22
 194 148 194 148 194 180 c 0,23,24
 194 189 194 189 195.5 200 c 128,-1,25
 197 211 197 211 200 224 c 2,26,-1
 264 524 l 1,27,-1
 114 524 l 1,28,-1
 -42 -213 l 1,0,-1
EndSplineSet
EndChar

StartChar: paragraph
Encoding: 182 182 120
Width: 648
GlyphClass: 1
Flags: W
LayerCount: 2
Fore
SplineSet
62 391 m 0,0,1
 62 349 62 349 72.5 314 c 128,-1,2
 83 279 83 279 104 254.5 c 128,-1,3
 125 230 125 230 155 216.5 c 128,-1,4
 185 203 185 203 223 202 c 1,5,-1
 163 -80 l 1,6,-1
 289 -80 l 1,7,-1
 350 202 l 1,8,-1
 390 202 l 1,9,-1
 330 -80 l 1,10,-1
 456 -80 l 1,11,-1
 601 599 l 1,12,-1
 667 599 l 1,13,-1
 691 710 l 1,14,-1
 393 710 l 2,15,16
 317 710 317 710 255.5 687.5 c 128,-1,17
 194 665 194 665 151 623 c 128,-1,18
 108 581 108 581 85 522 c 128,-1,19
 62 463 62 463 62 391 c 0,0,1
187 403 m 0,20,21
 187 441 187 441 196.5 475.5 c 128,-1,22
 206 510 206 510 222.5 537 c 128,-1,23
 239 564 239 564 261 580.5 c 128,-1,24
 283 597 283 597 308 599 c 1,25,-1
 247 314 l 1,26,27
 234 315 234 315 223 321.5 c 128,-1,28
 212 328 212 328 204 339.5 c 128,-1,29
 196 351 196 351 191.5 367 c 128,-1,30
 187 383 187 383 187 403 c 0,20,21
414 314 m 1,31,-1
 373 314 l 1,32,-1
 434 599 l 1,33,-1
 475 599 l 1,34,-1
 414 314 l 1,31,-1
EndSplineSet
EndChar

StartChar: onesuperior
Encoding: 185 185 123
Width: 295
GlyphClass: 1
Flags: W
LayerCount: 2
Fore
SplineSet
244 473 m 1,0,-1
 318 817 l 1,1,-1
 230 817 l 1,2,3
 230 816 230 816 219.5 807 c 128,-1,4
 209 798 209 798 193.5 787.5 c 128,-1,5
 178 777 178 777 160.5 768 c 128,-1,6
 143 759 143 759 128 759 c 1,7,-1
 110 672 l 1,8,9
 121 672 121 672 135.5 677.5 c 128,-1,10
 150 683 150 683 164 691 c 128,-1,11
 178 699 178 699 190.5 708 c 128,-1,12
 203 717 203 717 210 723 c 1,13,-1
 157 473 l 1,14,-1
 83 473 l 1,15,-1
 65 387 l 1,16,-1
 292 387 l 1,17,-1
 310 473 l 1,18,-1
 244 473 l 1,0,-1
EndSplineSet
EndChar

StartChar: ordmasculine
Encoding: 186 186 124
Width: 427
GlyphClass: 1
Flags: W
LayerCount: 2
Fore
SplineSet
220 337 m 0,0,1
 270 337 270 337 311.5 356.5 c 128,-1,2
 353 376 353 376 382 408 c 128,-1,3
 411 440 411 440 427.5 481 c 128,-1,4
 444 522 444 522 444 564 c 0,5,6
 444 595 444 595 435 622 c 128,-1,7
 426 649 426 649 408 669.5 c 128,-1,8
 390 690 390 690 363 701.5 c 128,-1,9
 336 713 336 713 300 713 c 0,10,11
 250 713 250 713 208.5 694 c 128,-1,12
 167 675 167 675 137.5 643.5 c 128,-1,13
 108 612 108 612 92 571.5 c 128,-1,14
 76 531 76 531 76 487 c 0,15,16
 76 457 76 457 85 429.5 c 128,-1,17
 94 402 94 402 112 381.5 c 128,-1,18
 130 361 130 361 157 349 c 128,-1,19
 184 337 184 337 220 337 c 0,0,1
240 429 m 0,20,21
 227 429 227 429 217.5 434.5 c 128,-1,22
 208 440 208 440 200.5 449 c 128,-1,23
 193 458 193 458 189 471 c 128,-1,24
 185 484 185 484 185 500 c 0,25,26
 185 526 185 526 193 547.5 c 128,-1,27
 201 569 201 569 214 586 c 128,-1,28
 227 603 227 603 244.5 612 c 128,-1,29
 262 621 262 621 280 621 c 0,30,31
 293 621 293 621 303 616 c 128,-1,32
 313 611 313 611 320 601.5 c 128,-1,33
 327 592 327 592 330.5 579 c 128,-1,34
 334 566 334 566 334 550 c 0,35,36
 334 525 334 525 326.5 503 c 128,-1,37
 319 481 319 481 305.5 464.5 c 128,-1,38
 292 448 292 448 275 438.5 c 128,-1,39
 258 429 258 429 240 429 c 0,20,21
EndSplineSet
EndChar

StartChar: guillemotright
Encoding: 187 187 125
Width: 646
GlyphClass: 1
Flags: W
LayerCount: 2
Fore
SplineSet
610 291 m 1,0,-1
 395 482 l 1,1,-1
 368 361 l 1,2,-1
 485 259 l 1,3,-1
 326 163 l 1,4,-1
 301 42 l 1,5,-1
 594 220 l 1,6,-1
 610 291 l 1,0,-1
309 291 m 1,7,-1
 94 482 l 1,8,-1
 69 361 l 1,9,-1
 185 259 l 1,10,-1
 26 163 l 1,11,-1
 1 42 l 1,12,-1
 294 220 l 1,13,-1
 309 291 l 1,7,-1
EndSplineSet
EndChar

StartChar: onehalf
Encoding: 189 189 127
Width: 906
GlyphClass: 1
Flags: W
LayerCount: 2
Fore
SplineSet
227 387 m 1,0,-1
 300 731 l 1,1,-1
 212 731 l 1,2,3
 212 730 212 730 201.5 721 c 128,-1,4
 191 712 191 712 176 701.5 c 128,-1,5
 161 691 161 691 143.5 682 c 128,-1,6
 126 673 126 673 111 673 c 1,7,-1
 92 586 l 1,8,9
 103 586 103 586 117.5 591.5 c 128,-1,10
 132 597 132 597 146.5 605 c 128,-1,11
 161 613 161 613 173.5 622 c 128,-1,12
 186 631 186 631 192 637 c 1,13,-1
 139 387 l 1,14,-1
 66 387 l 1,15,-1
 47 301 l 1,16,-1
 274 301 l 1,17,-1
 293 387 l 1,18,-1
 227 387 l 1,0,-1
113 -8 m 1,19,-1
 439 339 l 1,20,-1
 767 659 l 1,21,-1
 712 719 l 1,22,-1
 397 378 l 1,23,-1
 59 52 l 1,24,-1
 113 -8 l 1,19,-1
804 -1 m 1,25,-1
 823 85 l 1,26,-1
 633 85 l 1,27,28
 635 97 635 97 642 107 c 128,-1,29
 649 117 649 117 660.5 125.5 c 128,-1,30
 672 134 672 134 688 141.5 c 128,-1,31
 704 149 704 149 724 156 c 0,32,33
 751 166 751 166 777.5 179.5 c 128,-1,34
 804 193 804 193 824.5 212.5 c 128,-1,35
 845 232 845 232 858.5 259.5 c 128,-1,36
 872 287 872 287 872 324 c 0,37,38
 872 373 872 373 839 402 c 128,-1,39
 806 431 806 431 742 431 c 0,40,41
 711 431 711 431 682.5 424.5 c 128,-1,42
 654 418 654 418 629.5 408 c 128,-1,43
 605 398 605 398 586.5 385.5 c 128,-1,44
 568 373 568 373 557 362 c 1,45,-1
 595 297 l 1,46,47
 606 306 606 306 619 315.5 c 128,-1,48
 632 325 632 325 648 333 c 128,-1,49
 664 341 664 341 681.5 346 c 128,-1,50
 699 351 699 351 718 351 c 0,51,52
 747 351 747 351 761.5 338 c 128,-1,53
 776 325 776 325 776 303 c 256,54,55
 776 281 776 281 763 265 c 128,-1,56
 750 249 750 249 729.5 237.5 c 128,-1,57
 709 226 709 226 684.5 216 c 128,-1,58
 660 206 660 206 636 196 c 0,59,60
 599 179 599 179 572.5 161 c 128,-1,61
 546 143 546 143 528 120 c 128,-1,62
 510 97 510 97 498 68 c 128,-1,63
 486 39 486 39 477 -1 c 1,64,-1
 804 -1 l 1,25,-1
EndSplineSet
EndChar

StartChar: questiondown
Encoding: 191 191 129
Width: 468
GlyphClass: 1
Flags: W
LayerCount: 2
Fore
SplineSet
238 266 m 1,0,1
 233 243 233 243 219 227 c 128,-1,2
 205 211 205 211 186 198.5 c 128,-1,3
 167 186 167 186 144.5 175 c 128,-1,4
 122 164 122 164 100 151 c 0,5,6
 74 136 74 136 53 119.5 c 128,-1,7
 32 103 32 103 15.5 83.5 c 128,-1,8
 -1 64 -1 64 -12.5 40 c 128,-1,9
 -24 16 -24 16 -30 -14 c 0,10,11
 -42 -67 -42 -67 -31.5 -105 c 128,-1,12
 -21 -143 -21 -143 2.5 -167 c 128,-1,13
 26 -191 26 -191 59.5 -202 c 128,-1,14
 93 -213 93 -213 130 -213 c 0,15,16
 164 -213 164 -213 196.5 -204 c 128,-1,17
 229 -195 229 -195 259 -178.5 c 128,-1,18
 289 -162 289 -162 314.5 -138 c 128,-1,19
 340 -114 340 -114 358 -84 c 1,20,-1
 281 -17 l 1,21,22
 271 -29 271 -29 258.5 -42 c 128,-1,23
 246 -55 246 -55 231 -66.5 c 128,-1,24
 216 -78 216 -78 198 -85 c 128,-1,25
 180 -92 180 -92 161 -92 c 0,26,27
 145 -92 145 -92 131 -87 c 128,-1,28
 117 -82 117 -82 108 -72 c 128,-1,29
 99 -62 99 -62 95 -48 c 128,-1,30
 91 -34 91 -34 95 -16 c 0,31,32
 100 10 100 10 118.5 30.5 c 128,-1,33
 137 51 137 51 160 66.5 c 128,-1,34
 183 82 183 82 206.5 93 c 128,-1,35
 230 104 230 104 245 112 c 0,36,37
 272 127 272 127 291 144 c 128,-1,38
 310 161 310 161 322.5 180 c 128,-1,39
 335 199 335 199 343 221 c 128,-1,40
 351 243 351 243 356 266 c 1,41,-1
 238 266 l 1,0,1
406 437 m 0,42,43
 413 470 413 470 396 493 c 128,-1,44
 379 516 379 516 347 516 c 0,45,46
 331 516 331 516 316 509.5 c 128,-1,47
 301 503 301 503 288.5 492.5 c 128,-1,48
 276 482 276 482 267 468 c 128,-1,49
 258 454 258 454 254 437 c 0,50,51
 248 405 248 405 265 381.5 c 128,-1,52
 282 358 282 358 313 358 c 0,53,54
 329 358 329 358 344.5 364.5 c 128,-1,55
 360 371 360 371 372.5 381.5 c 128,-1,56
 385 392 385 392 394 406.5 c 128,-1,57
 403 421 403 421 406 437 c 0,42,43
EndSplineSet
EndChar

StartChar: AE
Encoding: 198 198 136
Width: 931
GlyphClass: 1
Flags: W
LayerCount: 2
Fore
SplineSet
-80 0 m 1,0,-1
 83 0 l 1,1,-1
 206 167 l 1,2,-1
 412 167 l 1,3,-1
 376 0 l 1,4,-1
 833 0 l 1,5,-1
 862 134 l 1,6,-1
 557 134 l 1,7,-1
 591 294 l 1,8,-1
 836 294 l 1,9,-1
 865 428 l 1,10,-1
 619 428 l 1,11,-1
 651 576 l 1,12,-1
 947 576 l 1,13,-1
 976 710 l 1,14,-1
 487 710 l 1,15,-1
 -80 0 l 1,0,-1
299 301 m 1,16,-1
 479 539 l 1,17,-1
 429 301 l 1,18,-1
 299 301 l 1,16,-1
EndSplineSet
EndChar

StartChar: Idieresis
Encoding: 207 207 145
Width: 293
GlyphClass: 1
Flags: W
LayerCount: 2
Fore
SplineSet
6 0 m 1,0,-1
 159 0 l 1,1,-1
 310 710 l 1,2,-1
 157 710 l 1,3,-1
 6 0 l 1,0,-1
277 846 m 0,4,5
 270 813 270 813 282 790 c 128,-1,6
 294 767 294 767 317 767 c 256,7,8
 340 767 340 767 361.5 790 c 128,-1,9
 383 813 383 813 390 846 c 0,10,11
 397 878 397 878 385.5 901.5 c 128,-1,12
 374 925 374 925 350 925 c 0,13,14
 327 925 327 925 305.5 901.5 c 128,-1,15
 284 878 284 878 277 846 c 0,4,5
130 846 m 0,16,17
 124 813 124 813 135 790 c 128,-1,18
 146 767 146 767 170 767 c 0,19,20
 193 767 193 767 214.5 790 c 128,-1,21
 236 813 236 813 243 846 c 0,22,23
 250 878 250 878 238.5 901.5 c 128,-1,24
 227 925 227 925 203 925 c 0,25,26
 180 925 180 925 158.5 901.5 c 128,-1,27
 137 878 137 878 130 846 c 0,16,17
EndSplineSet
EndChar

StartChar: Eth
Encoding: 208 208 146
Width: 697
GlyphClass: 1
Flags: W
LayerCount: 2
Fore
SplineSet
34 301 m 1,0,-1
 351 301 l 1,1,-1
 374 413 l 1,2,-1
 57 413 l 1,3,-1
 34 301 l 1,0,-1
11 0 m 1,4,-1
 262 0 l 2,5,6
 352 0 352 0 429 32.5 c 128,-1,7
 506 65 506 65 563 123.5 c 128,-1,8
 620 182 620 182 651.5 261.5 c 128,-1,9
 683 341 683 341 683 435 c 0,10,11
 683 492 683 492 667 542.5 c 128,-1,12
 651 593 651 593 617.5 630 c 128,-1,13
 584 667 584 667 533 688.5 c 128,-1,14
 482 710 482 710 413 710 c 2,15,-1
 162 710 l 1,16,-1
 11 0 l 1,4,-1
192 134 m 1,17,-1
 286 576 l 1,18,-1
 385 576 l 2,19,20
 419 576 419 576 445.5 564 c 128,-1,21
 472 552 472 552 490 530.5 c 128,-1,22
 508 509 508 509 517 478.5 c 128,-1,23
 526 448 526 448 526 412 c 0,24,25
 526 357 526 357 509 306.5 c 128,-1,26
 492 256 492 256 461 217.5 c 128,-1,27
 430 179 430 179 387 156.5 c 128,-1,28
 344 134 344 134 290 134 c 2,29,-1
 192 134 l 1,17,-1
EndSplineSet
EndChar

StartChar: multiply
Encoding: 215 215 153
Width: 492
GlyphClass: 1
Flags: W
LayerCount: 2
Fore
SplineSet
331 276 m 1,0,-1
 424 370 l 1,1,-1
 332 463 l 1,2,-1
 238 369 l 1,3,-1
 145 462 l 1,4,-1
 51 370 l 1,5,-1
 144 275 l 1,6,-1
 47 178 l 1,7,-1
 139 85 l 1,8,-1
 238 183 l 1,9,-1
 336 85 l 1,10,-1
 430 177 l 1,11,-1
 331 276 l 1,0,-1
EndSplineSet
EndChar

StartChar: Thorn
Encoding: 222 222 160
Width: 583
GlyphClass: 1
Flags: W
LayerCount: 2
Fore
SplineSet
6 0 m 1,0,-1
 159 0 l 1,1,-1
 182 108 l 1,2,-1
 307 108 l 2,3,4
 362 108 362 108 411 132.5 c 128,-1,5
 460 157 460 157 497 196.5 c 128,-1,6
 534 236 534 236 555.5 286 c 128,-1,7
 577 336 577 336 577 387 c 0,8,9
 577 425 577 425 565.5 460.5 c 128,-1,10
 554 496 554 496 531.5 523.5 c 128,-1,11
 509 551 509 551 476.5 567.5 c 128,-1,12
 444 584 444 584 402 584 c 2,13,-1
 284 584 l 1,14,-1
 310 710 l 1,15,-1
 157 710 l 1,16,-1
 6 0 l 1,0,-1
211 242 m 1,17,-1
 255 450 l 1,18,-1
 366 450 l 2,19,20
 378 450 378 450 388.5 444.5 c 128,-1,21
 399 439 399 439 406.5 428.5 c 128,-1,22
 414 418 414 418 418 403.5 c 128,-1,23
 422 389 422 389 422 371 c 0,24,25
 422 346 422 346 414 322.5 c 128,-1,26
 406 299 406 299 392.5 281 c 128,-1,27
 379 263 379 263 362 252.5 c 128,-1,28
 345 242 345 242 327 242 c 2,29,-1
 211 242 l 1,17,-1
EndSplineSet
EndChar

StartChar: germandbls
Encoding: 223 223 161
Width: 540
GlyphClass: 1
Flags: W
LayerCount: 2
Fore
SplineSet
176 -6 m 1,0,1
 234 -5 234 -5 292 9 c 128,-1,2
 350 23 350 23 396 54 c 128,-1,3
 442 85 442 85 470.5 134 c 128,-1,4
 499 183 499 183 499 254 c 0,5,6
 499 309 499 309 476 348.5 c 128,-1,7
 453 388 453 388 409 403 c 1,8,9
 428 411 428 411 448.5 428 c 128,-1,10
 469 445 469 445 485 469 c 128,-1,11
 501 493 501 493 511 521 c 128,-1,12
 521 549 521 549 521 579 c 0,13,14
 521 642 521 642 477 678 c 128,-1,15
 433 714 433 714 362 714 c 0,16,17
 316 714 316 714 273 700 c 128,-1,18
 230 686 230 686 195.5 660.5 c 128,-1,19
 161 635 161 635 137 600.5 c 128,-1,20
 113 566 113 566 104 524 c 2,21,-1
 -8 0 l 1,22,-1
 134 0 l 1,23,-1
 240 498 l 2,24,25
 244 517 244 517 251 533.5 c 128,-1,26
 258 550 258 550 268 562 c 128,-1,27
 278 574 278 574 291.5 581 c 128,-1,28
 305 588 305 588 322 588 c 0,29,30
 343 588 343 588 357 575 c 128,-1,31
 371 562 371 562 371 538 c 0,32,33
 371 523 371 523 366.5 509 c 128,-1,34
 362 495 362 495 352.5 484 c 128,-1,35
 343 473 343 473 329 466 c 128,-1,36
 315 459 315 459 297 459 c 2,37,-1
 278 459 l 1,38,-1
 250 325 l 1,39,-1
 270 325 l 2,40,41
 284 325 284 325 297 320 c 128,-1,42
 310 315 310 315 320.5 305 c 128,-1,43
 331 295 331 295 337 281 c 128,-1,44
 343 267 343 267 343 248 c 0,45,46
 343 219 343 219 332 197 c 128,-1,47
 321 175 321 175 302.5 160.5 c 128,-1,48
 284 146 284 146 258.5 138.5 c 128,-1,49
 233 131 233 131 205 131 c 1,50,-1
 176 -6 l 1,0,1
EndSplineSet
EndChar

StartChar: ae
Encoding: 230 230 168
Width: 939
GlyphClass: 1
Flags: W
LayerCount: 2
Fore
SplineSet
199 -10 m 0,0,1
 251 -10 251 -10 292 13.5 c 128,-1,2
 333 37 333 37 365 81 c 1,3,-1
 348 0 l 1,4,-1
 467 0 l 1,5,-1
 495 143 l 1,6,-1
 483 259 l 1,7,-1
 544 366 l 1,8,-1
 577 518 l 1,9,-1
 457 518 l 1,10,-1
 440 436 l 1,11,12
 426 481 426 481 389.5 507.5 c 128,-1,13
 353 534 353 534 300 534 c 0,14,15
 244 534 244 534 192 507.5 c 128,-1,16
 140 481 140 481 100.5 435.5 c 128,-1,17
 61 390 61 390 37 330.5 c 128,-1,18
 13 271 13 271 13 204 c 0,19,20
 13 158 13 158 26 118.5 c 128,-1,21
 39 79 39 79 62.5 50.5 c 128,-1,22
 86 22 86 22 120.5 6 c 128,-1,23
 155 -10 155 -10 199 -10 c 0,0,1
264 116 m 0,24,25
 243 116 243 116 225 124.5 c 128,-1,26
 207 133 207 133 195 148 c 128,-1,27
 183 163 183 163 176.5 183.5 c 128,-1,28
 170 204 170 204 170 228 c 0,29,30
 170 261 170 261 182.5 293.5 c 128,-1,31
 195 326 195 326 216 351 c 128,-1,32
 237 376 237 376 264 392 c 128,-1,33
 291 408 291 408 320 408 c 0,34,35
 338 408 338 408 354 400.5 c 128,-1,36
 370 393 370 393 382 380.5 c 128,-1,37
 394 368 394 368 402 350 c 128,-1,38
 410 332 410 332 414 311 c 1,39,-1
 389 195 l 1,40,41
 376 177 376 177 361.5 162.5 c 128,-1,42
 347 148 347 148 331.5 138 c 128,-1,43
 316 128 316 128 299 122 c 128,-1,44
 282 116 282 116 264 116 c 0,24,25
615 -10 m 0,45,46
 654 -10 654 -10 693 0 c 128,-1,47
 732 10 732 10 767 28.5 c 128,-1,48
 802 47 802 47 832 72 c 128,-1,49
 862 97 862 97 882 128 c 1,50,-1
 764 165 l 1,51,52
 755 149 755 149 741.5 137 c 128,-1,53
 728 125 728 125 712 116 c 128,-1,54
 696 107 696 107 678.5 102.5 c 128,-1,55
 661 98 661 98 642 98 c 0,56,57
 618 98 618 98 601 105.5 c 128,-1,58
 584 113 584 113 573 127 c 128,-1,59
 562 141 562 141 556.5 161 c 128,-1,60
 551 181 551 181 551 206 c 0,61,62
 551 247 551 247 562 286.5 c 128,-1,63
 573 326 573 326 593 357 c 128,-1,64
 613 388 613 388 642.5 407.5 c 128,-1,65
 672 427 672 427 709 427 c 0,66,67
 725 427 725 427 738 423 c 128,-1,68
 751 419 751 419 760.5 412.5 c 128,-1,69
 770 406 770 406 775 396.5 c 128,-1,70
 780 387 780 387 780 374 c 0,71,72
 780 358 780 358 771.5 345.5 c 128,-1,73
 763 333 763 333 743.5 324 c 128,-1,74
 724 315 724 315 692.5 311 c 128,-1,75
 661 307 661 307 616 307 c 0,76,77
 587 307 587 307 560 308.5 c 128,-1,78
 533 310 533 310 508 313 c 1,79,-1
 484 221 l 1,80,81
 516 217 516 217 550.5 215.5 c 128,-1,82
 585 214 585 214 615 214 c 0,83,84
 770 214 770 214 846.5 257 c 128,-1,85
 923 300 923 300 923 386 c 0,86,87
 923 421 923 421 909.5 449 c 128,-1,88
 896 477 896 477 871 495.5 c 128,-1,89
 846 514 846 514 811 524 c 128,-1,90
 776 534 776 534 732 534 c 0,91,92
 661 534 661 534 605.5 508.5 c 128,-1,93
 550 483 550 483 511.5 438.5 c 128,-1,94
 473 394 473 394 453 336 c 128,-1,95
 433 278 433 278 433 212 c 0,96,97
 433 163 433 163 442.5 122.5 c 128,-1,98
 452 82 452 82 473.5 52.5 c 128,-1,99
 495 23 495 23 529.5 6.5 c 128,-1,100
 564 -10 564 -10 615 -10 c 0,45,46
EndSplineSet
EndChar

StartChar: idieresis
Encoding: 239 239 177
Width: 264
GlyphClass: 1
Flags: W
LayerCount: 2
Fore
SplineSet
80 660 m 0,0,1
 73 628 73 628 84 604.5 c 128,-1,2
 95 581 95 581 119 581 c 0,3,4
 142 581 142 581 163 604.5 c 128,-1,5
 184 628 184 628 191 660 c 0,6,7
 198 693 198 693 186.5 716 c 128,-1,8
 175 739 175 739 152 739 c 256,9,10
 129 739 129 739 107.5 716 c 128,-1,11
 86 693 86 693 80 660 c 0,0,1
224 660 m 0,12,13
 217 628 217 628 228.5 604.5 c 128,-1,14
 240 581 240 581 263 581 c 256,15,16
 286 581 286 581 307.5 604.5 c 128,-1,17
 329 628 329 628 336 660 c 0,18,19
 343 693 343 693 331.5 716 c 128,-1,20
 320 739 320 739 297 739 c 256,21,22
 274 739 274 739 252.5 716 c 128,-1,23
 231 693 231 693 224 660 c 0,12,13
-8 0 m 1,24,-1
 142 0 l 1,25,-1
 253 524 l 1,26,-1
 104 524 l 1,27,-1
 -8 0 l 1,24,-1
EndSplineSet
EndChar

StartChar: eth
Encoding: 240 240 178
Width: 595
GlyphClass: 1
Flags: W
LayerCount: 2
Fore
SplineSet
571 376 m 0,0,1
 571 428 571 428 560.5 480 c 128,-1,2
 550 532 550 532 529 579.5 c 128,-1,3
 508 627 508 627 477 666 c 128,-1,4
 446 705 446 705 404 730 c 1,5,-1
 218 730 l 1,6,7
 266 700 266 700 301 669 c 128,-1,8
 336 638 336 638 361 605 c 128,-1,9
 386 572 386 572 401 537.5 c 128,-1,10
 416 503 416 503 423 466 c 0,11,12
 426 451 426 451 428 435 c 128,-1,13
 430 419 430 419 430 402 c 1,14,15
 410 435 410 435 374.5 453.5 c 128,-1,16
 339 472 339 472 294 472 c 0,17,18
 239 472 239 472 188 449 c 128,-1,19
 137 426 137 426 97 388 c 128,-1,20
 57 350 57 350 33.5 299 c 128,-1,21
 10 248 10 248 10 191 c 0,22,23
 10 148 10 148 25 111 c 128,-1,24
 40 74 40 74 69 47 c 128,-1,25
 98 20 98 20 138 5 c 128,-1,26
 178 -10 178 -10 228 -10 c 0,27,28
 300 -10 300 -10 362.5 17.5 c 128,-1,29
 425 45 425 45 471.5 95.5 c 128,-1,30
 518 146 518 146 544.5 217 c 128,-1,31
 571 288 571 288 571 376 c 0,0,1
165 210 m 0,32,33
 165 240 165 240 176 266 c 128,-1,34
 187 292 187 292 206.5 311 c 128,-1,35
 226 330 226 330 252 341 c 128,-1,36
 278 352 278 352 307 352 c 0,37,38
 328 352 328 352 345 345.5 c 128,-1,39
 362 339 362 339 373.5 326.5 c 128,-1,40
 385 314 385 314 391.5 297 c 128,-1,41
 398 280 398 280 398 260 c 0,42,43
 398 231 398 231 386.5 204.5 c 128,-1,44
 375 178 375 178 355.5 159 c 128,-1,45
 336 140 336 140 310 128 c 128,-1,46
 284 116 284 116 256 116 c 0,47,48
 235 116 235 116 218 123 c 128,-1,49
 201 130 201 130 189.5 143 c 128,-1,50
 178 156 178 156 171.5 173 c 128,-1,51
 165 190 165 190 165 210 c 0,32,33
558 712 m 1,52,-1
 432 648 l 1,53,-1
 387 636 l 1,54,-1
 270 576 l 1,55,-1
 300 519 l 1,56,-1
 418 579 l 1,57,-1
 467 594 l 1,58,-1
 588 655 l 1,59,-1
 558 712 l 1,52,-1
EndSplineSet
EndChar

StartChar: divide
Encoding: 247 247 185
Width: 504
GlyphClass: 1
Flags: W
LayerCount: 2
Fore
SplineSet
454 241 m 1,0,-1
 454 360 l 1,1,-1
 51 360 l 1,2,-1
 51 241 l 1,3,-1
 454 241 l 1,0,-1
174 101 m 0,4,5
 174 69 174 69 197 45.5 c 128,-1,6
 220 22 220 22 253 22 c 0,7,8
 285 22 285 22 308.5 45.5 c 128,-1,9
 332 69 332 69 332 101 c 0,10,11
 332 134 332 134 308.5 157 c 128,-1,12
 285 180 285 180 253 180 c 0,13,14
 220 180 220 180 197 157 c 128,-1,15
 174 134 174 134 174 101 c 0,4,5
174 501 m 0,16,17
 174 468 174 468 197.5 445 c 128,-1,18
 221 422 221 422 253 422 c 0,19,20
 286 422 286 422 309 445 c 128,-1,21
 332 468 332 468 332 501 c 0,22,23
 332 533 332 533 309 556.5 c 128,-1,24
 286 580 286 580 253 580 c 0,25,26
 221 580 221 580 197.5 556.5 c 128,-1,27
 174 533 174 533 174 501 c 0,16,17
EndSplineSet
EndChar

StartChar: oslash
Encoding: 248 248 186
Width: 589
GlyphClass: 1
Flags: W
LayerCount: 2
Fore
SplineSet
228 -10 m 0,0,1
 302 -10 302 -10 362.5 17.5 c 128,-1,2
 423 45 423 45 467 90.5 c 128,-1,3
 511 136 511 136 535 195 c 128,-1,4
 559 254 559 254 559 315 c 0,5,6
 559 360 559 360 545.5 399.5 c 128,-1,7
 532 439 532 439 505.5 469 c 128,-1,8
 479 499 479 499 438.5 516.5 c 128,-1,9
 398 534 398 534 344 534 c 0,10,11
 271 534 271 534 210 506.5 c 128,-1,12
 149 479 149 479 105.5 433.5 c 128,-1,13
 62 388 62 388 37.5 329.5 c 128,-1,14
 13 271 13 271 13 209 c 0,15,16
 13 164 13 164 26.5 124.5 c 128,-1,17
 40 85 40 85 67 55 c 128,-1,18
 94 25 94 25 134.5 7.5 c 128,-1,19
 175 -10 175 -10 228 -10 c 0,0,1
255 116 m 0,20,21
 236 116 236 116 219.5 124 c 128,-1,22
 203 132 203 132 191.5 146.5 c 128,-1,23
 180 161 180 161 174 181.5 c 128,-1,24
 168 202 168 202 168 227 c 0,25,26
 168 264 168 264 180.5 297 c 128,-1,27
 193 330 193 330 213.5 354.5 c 128,-1,28
 234 379 234 379 261 393.5 c 128,-1,29
 288 408 288 408 317 408 c 0,30,31
 337 408 337 408 353 399.5 c 128,-1,32
 369 391 369 391 380.5 376.5 c 128,-1,33
 392 362 392 362 398 341.5 c 128,-1,34
 404 321 404 321 404 297 c 0,35,36
 404 259 404 259 391.5 226 c 128,-1,37
 379 193 379 193 358.5 169 c 128,-1,38
 338 145 338 145 311 130.5 c 128,-1,39
 284 116 284 116 255 116 c 0,20,21
-26 -4 m 1,40,-1
 55 -4 l 1,41,-1
 153 88 l 1,42,-1
 120 132 l 1,43,-1
 -26 -4 l 1,40,-1
164 101 m 1,44,-1
 453 401 l 1,45,-1
 413 433 l 1,46,-1
 133 141 l 1,47,-1
 164 101 l 1,44,-1
467 411 m 1,48,-1
 593 529 l 1,49,-1
 510 529 l 1,50,-1
 422 445 l 1,51,-1
 467 411 l 1,48,-1
EndSplineSet
EndChar

StartChar: thorn
Encoding: 254 254 192
Width: 607
GlyphClass: 1
Flags: W
LayerCount: 2
Fore
SplineSet
96 -213 m 1,0,-1
 160 88 l 1,1,2
 167 66 167 66 179.5 47.5 c 128,-1,3
 192 29 192 29 210.5 16 c 128,-1,4
 229 3 229 3 252 -3.5 c 128,-1,5
 275 -10 275 -10 304 -10 c 0,6,7
 359 -10 359 -10 410 17 c 128,-1,8
 461 44 461 44 500.5 89.5 c 128,-1,9
 540 135 540 135 563 195 c 128,-1,10
 586 255 586 255 586 320 c 0,11,12
 586 365 586 365 573.5 404 c 128,-1,13
 561 443 561 443 537 472 c 128,-1,14
 513 501 513 501 479.5 517.5 c 128,-1,15
 446 534 446 534 404 534 c 0,16,17
 380 534 380 534 358 529.5 c 128,-1,18
 336 525 336 525 315.5 516 c 128,-1,19
 295 507 295 507 277 494.5 c 128,-1,20
 259 482 259 482 243 466 c 1,21,-1
 296 710 l 1,22,-1
 143 710 l 1,23,-1
 -53 -213 l 1,24,-1
 96 -213 l 1,0,-1
280 116 m 0,25,26
 262 116 262 116 246.5 123.5 c 128,-1,27
 231 131 231 131 219 144.5 c 128,-1,28
 207 158 207 158 198.5 176 c 128,-1,29
 190 194 190 194 186 214 c 1,30,-1
 211 328 l 1,31,32
 222 346 222 346 237 361 c 128,-1,33
 252 376 252 376 268 386 c 128,-1,34
 284 396 284 396 301 402 c 128,-1,35
 318 408 318 408 334 408 c 0,36,37
 356 408 356 408 374 399 c 128,-1,38
 392 390 392 390 404 375 c 128,-1,39
 416 360 416 360 423 340 c 128,-1,40
 430 320 430 320 430 295 c 0,41,42
 430 262 430 262 417.5 229.5 c 128,-1,43
 405 197 405 197 384 172 c 128,-1,44
 363 147 363 147 336 131.5 c 128,-1,45
 309 116 309 116 280 116 c 0,25,26
EndSplineSet
EndChar

StartChar: Dcroat
Encoding: 272 272 210
Width: 697
GlyphClass: 1
Flags: W
LayerCount: 2
Fore
SplineSet
34 301 m 1,0,-1
 351 301 l 1,1,-1
 374 413 l 1,2,-1
 57 413 l 1,3,-1
 34 301 l 1,0,-1
11 0 m 1,4,-1
 262 0 l 2,5,6
 352 0 352 0 429 32.5 c 128,-1,7
 506 65 506 65 563 123.5 c 128,-1,8
 620 182 620 182 651.5 261.5 c 128,-1,9
 683 341 683 341 683 435 c 0,10,11
 683 492 683 492 667 542.5 c 128,-1,12
 651 593 651 593 617.5 630 c 128,-1,13
 584 667 584 667 533 688.5 c 128,-1,14
 482 710 482 710 413 710 c 2,15,-1
 162 710 l 1,16,-1
 11 0 l 1,4,-1
192 134 m 1,17,-1
 286 576 l 1,18,-1
 385 576 l 2,19,20
 419 576 419 576 445.5 564 c 128,-1,21
 472 552 472 552 490 530.5 c 128,-1,22
 508 509 508 509 517 478.5 c 128,-1,23
 526 448 526 448 526 412 c 0,24,25
 526 357 526 357 509 306.5 c 128,-1,26
 492 256 492 256 461 217.5 c 128,-1,27
 430 179 430 179 387 156.5 c 128,-1,28
 344 134 344 134 290 134 c 2,29,-1
 192 134 l 1,17,-1
EndSplineSet
EndChar

StartChar: dcroat
Encoding: 273 273 211
Width: 629
GlyphClass: 1
Flags: W
LayerCount: 2
Fore
SplineSet
393 588 m 1,0,-1
 690 588 l 1,1,-1
 709 676 l 1,2,-1
 411 676 l 1,3,-1
 393 588 l 1,0,-1
199 -10 m 0,4,5
 224 -10 224 -10 247 -4 c 128,-1,6
 270 2 270 2 290.5 13 c 128,-1,7
 311 24 311 24 329.5 40.5 c 128,-1,8
 348 57 348 57 364 78 c 1,9,-1
 347 0 l 1,10,-1
 496 0 l 1,11,-1
 651 730 l 1,12,-1
 502 730 l 1,13,-1
 439 436 l 1,14,15
 432 458 432 458 419 476 c 128,-1,16
 406 494 406 494 388 507 c 128,-1,17
 370 520 370 520 347 527 c 128,-1,18
 324 534 324 534 298 534 c 0,19,20
 242 534 242 534 190.5 507.5 c 128,-1,21
 139 481 139 481 99.5 435 c 128,-1,22
 60 389 60 389 36.5 329.5 c 128,-1,23
 13 270 13 270 13 204 c 0,24,25
 13 158 13 158 26 119 c 128,-1,26
 39 80 39 80 63 51.5 c 128,-1,27
 87 23 87 23 121.5 6.5 c 128,-1,28
 156 -10 156 -10 199 -10 c 0,4,5
265 116 m 0,29,30
 243 116 243 116 225.5 124.5 c 128,-1,31
 208 133 208 133 195.5 148 c 128,-1,32
 183 163 183 163 176.5 184 c 128,-1,33
 170 205 170 205 170 229 c 0,34,35
 170 262 170 262 182.5 294.5 c 128,-1,36
 195 327 195 327 215.5 351.5 c 128,-1,37
 236 376 236 376 263 392 c 128,-1,38
 290 408 290 408 319 408 c 0,39,40
 336 408 336 408 352 400.5 c 128,-1,41
 368 393 368 393 381 380.5 c 128,-1,42
 394 368 394 368 402.5 350.5 c 128,-1,43
 411 333 411 333 414 312 c 1,44,-1
 389 196 l 1,45,46
 378 178 378 178 363.5 163 c 128,-1,47
 349 148 349 148 332.5 138 c 128,-1,48
 316 128 316 128 299 122 c 128,-1,49
 282 116 282 116 265 116 c 0,29,30
EndSplineSet
EndChar

StartChar: hcircumflex
Encoding: 293 293 231
Width: 587
GlyphClass: 1
Flags: W
LayerCount: 2
Fore
SplineSet
-8 0 m 1,0,-1
 142 0 l 1,1,-1
 206 303 l 1,2,3
 218 325 218 325 234 343.5 c 128,-1,4
 250 362 250 362 268 375 c 128,-1,5
 286 388 286 388 303.5 395.5 c 128,-1,6
 321 403 321 403 335 403 c 0,7,8
 361 403 361 403 375.5 387 c 128,-1,9
 390 371 390 371 390 338 c 0,10,11
 390 328 390 328 389 317.5 c 128,-1,12
 388 307 388 307 385 294 c 2,13,-1
 323 0 l 1,14,-1
 472 0 l 1,15,-1
 542 332 l 2,16,17
 547 352 547 352 549.5 372.5 c 128,-1,18
 552 393 552 393 552 412 c 0,19,20
 552 438 552 438 546 460 c 128,-1,21
 540 482 540 482 526 498.5 c 128,-1,22
 512 515 512 515 488.5 524.5 c 128,-1,23
 465 534 465 534 429 534 c 0,24,25
 401 534 401 534 374 527.5 c 128,-1,26
 347 521 347 521 322 507.5 c 128,-1,27
 297 494 297 494 275 475.5 c 128,-1,28
 253 457 253 457 233 433 c 1,29,-1
 297 730 l 1,30,-1
 147 730 l 1,31,-1
 -8 0 l 1,0,-1
479 913 m 1,32,-1
 352 913 l 1,33,-1
 232 755 l 1,34,-1
 300 755 l 1,35,-1
 479 913 l 1,32,-1
360 913 m 1,36,-1
 475 755 l 1,37,-1
 544 755 l 1,38,-1
 486 913 l 1,39,-1
 360 913 l 1,36,-1
EndSplineSet
EndChar

StartChar: Hbar
Encoding: 294 294 232
Width: 727
GlyphClass: 1
Flags: W
LayerCount: 2
Fore
SplineSet
78 542 m 1,0,-1
 752 542 l 1,1,-1
 767 614 l 1,2,-1
 94 614 l 1,3,-1
 78 542 l 1,0,-1
10 0 m 1,4,-1
 163 0 l 1,5,-1
 226 296 l 1,6,-1
 500 296 l 1,7,-1
 437 0 l 1,8,-1
 590 0 l 1,9,-1
 741 710 l 1,10,-1
 588 710 l 1,11,-1
 528 430 l 1,12,-1
 255 430 l 1,13,-1
 314 710 l 1,14,-1
 161 710 l 1,15,-1
 10 0 l 1,4,-1
EndSplineSet
EndChar

StartChar: hbar
Encoding: 295 295 233
Width: 587
GlyphClass: 1
Flags: W
LayerCount: 2
Fore
SplineSet
62 588 m 1,0,-1
 359 588 l 1,1,-1
 378 676 l 1,2,-1
 80 676 l 1,3,-1
 62 588 l 1,0,-1
-8 0 m 1,4,-1
 142 0 l 1,5,-1
 206 303 l 1,6,7
 218 325 218 325 234 343.5 c 128,-1,8
 250 362 250 362 268 375 c 128,-1,9
 286 388 286 388 303.5 395.5 c 128,-1,10
 321 403 321 403 335 403 c 0,11,12
 361 403 361 403 375.5 387 c 128,-1,13
 390 371 390 371 390 338 c 0,14,15
 390 328 390 328 389 317.5 c 128,-1,16
 388 307 388 307 385 294 c 2,17,-1
 323 0 l 1,18,-1
 472 0 l 1,19,-1
 542 332 l 2,20,21
 547 352 547 352 549.5 372.5 c 128,-1,22
 552 393 552 393 552 412 c 0,23,24
 552 438 552 438 546 460 c 128,-1,25
 540 482 540 482 526 498.5 c 128,-1,26
 512 515 512 515 488.5 524.5 c 128,-1,27
 465 534 465 534 429 534 c 0,28,29
 401 534 401 534 374 527.5 c 128,-1,30
 347 521 347 521 322 507.5 c 128,-1,31
 297 494 297 494 275 475.5 c 128,-1,32
 253 457 253 457 233 433 c 1,33,-1
 297 730 l 1,34,-1
 147 730 l 1,35,-1
 -8 0 l 1,4,-1
EndSplineSet
EndChar

StartChar: dotlessi
Encoding: 305 305 243
Width: 262
GlyphClass: 1
Flags: W
LayerCount: 2
Fore
SplineSet
-8 0 m 1,0,-1
 142 0 l 1,1,-1
 253 524 l 1,2,-1
 104 524 l 1,3,-1
 -8 0 l 1,0,-1
EndSplineSet
EndChar

StartChar: kgreenlandic
Encoding: 312 312 248
Width: 546
GlyphClass: 1
Flags: W
LayerCount: 2
Fore
SplineSet
-8 0 m 1,0,-1
 142 0 l 1,1,-1
 174 154 l 1,2,-1
 243 217 l 1,3,-1
 329 0 l 1,4,-1
 487 0 l 1,5,-1
 356 300 l 1,6,-1
 583 524 l 1,7,-1
 425 524 l 1,8,-1
 205 299 l 1,9,-1
 253 524 l 1,10,-1
 104 524 l 1,11,-1
 -8 0 l 1,0,-1
EndSplineSet
EndChar

StartChar: Lslash
Encoding: 321 321 257
Width: 570
GlyphClass: 1
Flags: W
LayerCount: 2
Fore
SplineSet
20 244 m 1,0,-1
 387 445 l 1,1,-1
 369 525 l 1,2,-1
 1 325 l 1,3,-1
 20 244 l 1,0,-1
6 0 m 1,4,-1
 488 0 l 1,5,-1
 516 134 l 1,6,-1
 188 134 l 1,7,-1
 310 710 l 1,8,-1
 157 710 l 1,9,-1
 6 0 l 1,4,-1
EndSplineSet
EndChar

StartChar: lslash
Encoding: 322 322 258
Width: 357
GlyphClass: 1
Flags: W
LayerCount: 2
Fore
SplineSet
27 264 m 1,0,-1
 375 445 l 1,1,-1
 356 525 l 1,2,-1
 8 345 l 1,3,-1
 27 264 l 1,0,-1
160 -9 m 0,4,5
 192 -9 192 -9 230 -1 c 128,-1,6
 268 7 268 7 300 20 c 1,7,-1
 305 132 l 1,8,9
 291 126 291 126 276.5 122.5 c 128,-1,10
 262 119 262 119 251 119 c 0,11,12
 231 119 231 119 221.5 129 c 128,-1,13
 212 139 212 139 212 159 c 0,14,15
 212 165 212 165 213 172 c 128,-1,16
 214 179 214 179 216 187 c 2,17,-1
 331 730 l 1,18,-1
 182 730 l 1,19,-1
 54 126 l 2,20,21
 51 116 51 116 50 106 c 128,-1,22
 49 96 49 96 49 87 c 0,23,24
 49 41 49 41 77.5 16 c 128,-1,25
 106 -9 106 -9 160 -9 c 0,4,5
EndSplineSet
EndChar

StartChar: Eng
Encoding: 330 330 265
Width: 716
GlyphClass: 1
Flags: W
LayerCount: 2
Fore
SplineSet
356 -200 m 0,0,1
 394 -200 394 -200 430 -186 c 128,-1,2
 466 -172 466 -172 496.5 -146.5 c 128,-1,3
 527 -121 527 -121 549 -85 c 128,-1,4
 571 -49 571 -49 580 -5 c 2,5,-1
 732 709 l 1,6,-1
 579 709 l 1,7,-1
 488 280 l 1,8,-1
 275 710 l 1,9,-1
 157 710 l 1,10,-1
 6 0 l 1,11,-1
 159 0 l 1,12,-1
 249 422 l 1,13,-1
 439 32 l 1,14,-1
 430 -11 l 2,15,16
 427 -24 427 -24 421 -35.5 c 128,-1,17
 415 -47 415 -47 406 -54.5 c 128,-1,18
 397 -62 397 -62 386.5 -66.5 c 128,-1,19
 376 -71 376 -71 365 -71 c 0,20,21
 351 -71 351 -71 338.5 -65.5 c 128,-1,22
 326 -60 326 -60 319 -50 c 1,23,-1
 235 -151 l 1,24,25
 257 -175 257 -175 288.5 -187.5 c 128,-1,26
 320 -200 320 -200 356 -200 c 0,0,1
EndSplineSet
EndChar

StartChar: eng
Encoding: 331 331 266
Width: 587
GlyphClass: 1
Flags: W
LayerCount: 2
Fore
SplineSet
246 -200 m 0,0,1
 285 -200 285 -200 321.5 -185.5 c 128,-1,2
 358 -171 358 -171 388 -144 c 128,-1,3
 418 -117 418 -117 440 -80.5 c 128,-1,4
 462 -44 462 -44 471 0 c 2,5,-1
 542 332 l 2,6,7
 546 353 546 353 549 373.5 c 128,-1,8
 552 394 552 394 552 415 c 0,9,10
 552 439 552 439 546.5 460.5 c 128,-1,11
 541 482 541 482 527.5 498.5 c 128,-1,12
 514 515 514 515 491.5 524.5 c 128,-1,13
 469 534 469 534 434 534 c 0,14,15
 402 534 402 534 371 527.5 c 128,-1,16
 340 521 340 521 312.5 507.5 c 128,-1,17
 285 494 285 494 261.5 475 c 128,-1,18
 238 456 238 456 219 433 c 1,19,-1
 239 524 l 1,20,-1
 104 524 l 1,21,-1
 -8 0 l 1,22,-1
 142 0 l 1,23,-1
 206 303 l 1,24,25
 218 325 218 325 234 343 c 128,-1,26
 250 361 250 361 268 374.5 c 128,-1,27
 286 388 286 388 304.5 395.5 c 128,-1,28
 323 403 323 403 339 403 c 0,29,30
 363 403 363 403 377 388 c 128,-1,31
 391 373 391 373 391 340 c 0,32,33
 391 330 391 330 390 319 c 128,-1,34
 389 308 389 308 385 294 c 2,35,-1
 320 -11 l 2,36,37
 317 -24 317 -24 311 -35.5 c 128,-1,38
 305 -47 305 -47 296 -54.5 c 128,-1,39
 287 -62 287 -62 276.5 -66.5 c 128,-1,40
 266 -71 266 -71 255 -71 c 0,41,42
 241 -71 241 -71 228.5 -65.5 c 128,-1,43
 216 -60 216 -60 209 -50 c 1,44,-1
 124 -151 l 1,45,46
 146 -175 146 -175 177.5 -187.5 c 128,-1,47
 209 -200 209 -200 246 -200 c 0,0,1
EndSplineSet
EndChar

StartChar: OE
Encoding: 338 338 273
Width: 1017
GlyphClass: 1
Flags: W
LayerCount: 2
Fore
SplineSet
287 -5 m 0,0,1
 313 -5 313 -5 339 2 c 128,-1,2
 365 9 365 9 389.5 21.5 c 128,-1,3
 414 34 414 34 437.5 51 c 128,-1,4
 461 68 461 68 481 87 c 1,5,-1
 462 0 l 1,6,-1
 920 0 l 1,7,-1
 949 134 l 1,8,-1
 643 134 l 1,9,-1
 678 294 l 1,10,-1
 923 294 l 1,11,-1
 952 428 l 1,12,-1
 706 428 l 1,13,-1
 738 576 l 1,14,-1
 1034 576 l 1,15,-1
 1063 710 l 1,16,-1
 613 710 l 1,17,-1
 595 623 l 1,18,19
 584 643 584 643 568.5 660 c 128,-1,20
 553 677 553 677 534 689 c 128,-1,21
 515 701 515 701 492.5 708 c 128,-1,22
 470 715 470 715 444 715 c 0,23,24
 364 715 364 715 290 679 c 128,-1,25
 216 643 216 643 159 583 c 128,-1,26
 102 523 102 523 68 446 c 128,-1,27
 34 369 34 369 34 288 c 0,28,29
 34 231 34 231 51 178 c 128,-1,30
 68 125 68 125 100 84.5 c 128,-1,31
 132 44 132 44 179.5 19.5 c 128,-1,32
 227 -5 227 -5 287 -5 c 0,0,1
317 131 m 0,33,34
 285 131 285 131 261.5 145 c 128,-1,35
 238 159 238 159 222 181.5 c 128,-1,36
 206 204 206 204 198.5 234.5 c 128,-1,37
 191 265 191 265 191 299 c 0,38,39
 191 346 191 346 207 396 c 128,-1,40
 223 446 223 446 252 486.5 c 128,-1,41
 281 527 281 527 322 553 c 128,-1,42
 363 579 363 579 412 579 c 0,43,44
 444 579 444 579 467.5 565 c 128,-1,45
 491 551 491 551 507 528.5 c 128,-1,46
 523 506 523 506 531 475.5 c 128,-1,47
 539 445 539 445 539 411 c 0,48,49
 539 364 539 364 523 314.5 c 128,-1,50
 507 265 507 265 478 224 c 128,-1,51
 449 183 449 183 408 157 c 128,-1,52
 367 131 367 131 317 131 c 0,33,34
EndSplineSet
EndChar

StartChar: Tbar
Encoding: 358 358 293
Width: 619
GlyphClass: 1
Flags: W
LayerCount: 2
Fore
SplineSet
61 301 m 1,0,-1
 556 301 l 1,1,-1
 571 372 l 1,2,-1
 77 372 l 1,3,-1
 61 301 l 1,0,-1
169 0 m 1,4,-1
 322 0 l 1,5,-1
 444 576 l 1,6,-1
 650 576 l 1,7,-1
 678 710 l 1,8,-1
 112 710 l 1,9,-1
 84 576 l 1,10,-1
 291 576 l 1,11,-1
 169 0 l 1,4,-1
EndSplineSet
EndChar

StartChar: tbar
Encoding: 359 359 294
Width: 385
GlyphClass: 1
Flags: W
LayerCount: 2
Fore
SplineSet
14 253 m 1,0,-1
 317 253 l 1,1,-1
 335 341 l 1,2,-1
 33 341 l 1,3,-1
 14 253 l 1,0,-1
46 87 m 0,4,5
 46 35 46 35 79 13 c 128,-1,6
 112 -9 112 -9 160 -9 c 0,7,8
 181 -9 181 -9 201.5 -6 c 128,-1,9
 222 -3 222 -3 242.5 2 c 128,-1,10
 263 7 263 7 282.5 13.5 c 128,-1,11
 302 20 302 20 319 28 c 1,12,-1
 316 146 l 1,13,14
 308 143 308 143 299 139.5 c 128,-1,15
 290 136 290 136 280.5 133.5 c 128,-1,16
 271 131 271 131 262 129 c 128,-1,17
 253 127 253 127 244 127 c 0,18,19
 228 127 228 127 218 134.5 c 128,-1,20
 208 142 208 142 208 160 c 0,21,22
 208 164 208 164 208.5 168 c 128,-1,23
 209 172 209 172 210 177 c 2,24,-1
 260 411 l 1,25,-1
 362 411 l 1,26,-1
 386 524 l 1,27,-1
 284 524 l 1,28,-1
 320 693 l 1,29,-1
 171 693 l 1,30,-1
 135 524 l 1,31,-1
 72 524 l 1,32,-1
 47 411 l 1,33,-1
 111 411 l 1,34,-1
 50 126 l 2,35,36
 48 115 48 115 47 105.5 c 128,-1,37
 46 96 46 96 46 87 c 0,4,5
EndSplineSet
EndChar

StartChar: uni018F
Encoding: 399 399 318
Width: 722
GlyphClass: 1
Flags: W
LayerCount: 2
Fore
SplineSet
290 -5 m 0,0,1
 381 -5 381 -5 458 33 c 128,-1,2
 535 71 535 71 591 132.5 c 128,-1,3
 647 194 647 194 678.5 270.5 c 128,-1,4
 710 347 710 347 710 424 c 0,5,6
 710 480 710 480 693.5 532.5 c 128,-1,7
 677 585 677 585 643.5 625.5 c 128,-1,8
 610 666 610 666 560 690 c 128,-1,9
 510 714 510 714 445 714 c 0,10,11
 392 714 392 714 342 700.5 c 128,-1,12
 292 687 292 687 248 663 c 128,-1,13
 204 639 204 639 167 604.5 c 128,-1,14
 130 570 130 570 102 528 c 1,15,-1
 249 478 l 1,16,17
 260 501 260 501 278 519.5 c 128,-1,18
 296 538 296 538 318.5 551 c 128,-1,19
 341 564 341 564 365.5 571.5 c 128,-1,20
 390 579 390 579 414 579 c 0,21,22
 442 579 442 579 466 569 c 128,-1,23
 490 559 490 559 508 540.5 c 128,-1,24
 526 522 526 522 536 495 c 128,-1,25
 546 468 546 468 546 433 c 0,26,27
 546 426 546 426 545.5 418.5 c 128,-1,28
 545 411 545 411 544 403 c 1,29,-1
 45 403 l 1,30,31
 37 385 37 385 28.5 355.5 c 128,-1,32
 20 326 20 326 20 283 c 0,33,34
 20 229 20 229 37 177 c 128,-1,35
 54 125 54 125 88 85 c 128,-1,36
 122 45 122 45 172.5 20 c 128,-1,37
 223 -5 223 -5 290 -5 c 0,0,1
321 129 m 0,38,39
 289 129 289 129 262.5 138.5 c 128,-1,40
 236 148 236 148 217.5 164.5 c 128,-1,41
 199 181 199 181 188.5 203.5 c 128,-1,42
 178 226 178 226 178 253 c 0,43,44
 178 261 178 261 178.5 269.5 c 128,-1,45
 179 278 179 278 182 286 c 1,46,-1
 517 286 l 1,47,48
 506 252 506 252 486 222.5 c 128,-1,49
 466 193 466 193 440.5 172.5 c 128,-1,50
 415 152 415 152 384.5 140.5 c 128,-1,51
 354 129 354 129 321 129 c 0,38,39
EndSplineSet
EndChar

StartChar: florin
Encoding: 402 402 319
Width: 531
GlyphClass: 1
Flags: W
LayerCount: 2
Fore
SplineSet
55 -200 m 0,0,1
 93 -200 93 -200 129.5 -186 c 128,-1,2
 166 -172 166 -172 195.5 -146.5 c 128,-1,3
 225 -121 225 -121 247 -85.5 c 128,-1,4
 269 -50 269 -50 278 -7 c 2,5,-1
 354 350 l 1,6,-1
 471 350 l 1,7,-1
 495 463 l 1,8,-1
 378 463 l 1,9,-1
 393 532 l 2,10,11
 401 573 401 573 420 593.5 c 128,-1,12
 439 614 439 614 467 614 c 0,13,14
 483 614 483 614 501.5 609 c 128,-1,15
 520 604 520 604 533 597 c 1,16,-1
 584 709 l 1,17,18
 554 724 554 724 523 732 c 128,-1,19
 492 740 492 740 461 740 c 0,20,21
 422 740 422 740 387 725 c 128,-1,22
 352 710 352 710 323 682 c 128,-1,23
 294 654 294 654 273.5 615 c 128,-1,24
 253 576 253 576 243 526 c 2,25,-1
 229 463 l 1,26,-1
 166 463 l 1,27,-1
 141 350 l 1,28,-1
 205 350 l 1,29,-1
 128 -11 l 2,30,31
 125 -24 125 -24 119 -35.5 c 128,-1,32
 113 -47 113 -47 104.5 -54.5 c 128,-1,33
 96 -62 96 -62 85.5 -66.5 c 128,-1,34
 75 -71 75 -71 64 -71 c 0,35,36
 50 -71 50 -71 37.5 -65.5 c 128,-1,37
 25 -60 25 -60 17 -50 c 1,38,-1
 -67 -151 l 1,39,40
 -45 -175 -45 -175 -13.5 -187.5 c 128,-1,41
 18 -200 18 -200 55 -200 c 0,0,1
EndSplineSet
EndChar

StartChar: Aringacute
Encoding: 506 506 328
Width: 642
GlyphClass: 1
Flags: W
LayerCount: 2
Fore
SplineSet
-55 0 m 1,0,-1
 102 0 l 1,1,-1
 190 167 l 1,2,-1
 403 167 l 1,3,-1
 421 0 l 1,4,-1
 578 0 l 1,5,-1
 481 710 l 1,6,-1
 343 710 l 1,7,-1
 -55 0 l 1,0,-1
236 273 m 1,8,-1
 375 536 l 1,9,-1
 400 273 l 1,10,-1
 236 273 l 1,8,-1
620 964 m 1,11,-1
 475 964 l 1,12,-1
 391 812 l 1,13,-1
 473 812 l 1,14,-1
 620 964 l 1,11,-1
320 745 m 0,15,16
 320 713 320 713 343 696.5 c 128,-1,17
 366 680 366 680 406 680 c 0,18,19
 458 680 458 680 491.5 705.5 c 128,-1,20
 525 731 525 731 525 776 c 0,21,22
 525 807 525 807 502.5 823.5 c 128,-1,23
 480 840 480 840 440 840 c 0,24,25
 388 840 388 840 354 815 c 128,-1,26
 320 790 320 790 320 745 c 0,15,16
430 795 m 0,27,28
 444 795 444 795 453 787 c 128,-1,29
 462 779 462 779 462 767 c 0,30,31
 462 748 462 748 447.5 736.5 c 128,-1,32
 433 725 433 725 415 725 c 0,33,34
 401 725 401 725 392.5 733 c 128,-1,35
 384 741 384 741 384 754 c 0,36,37
 384 773 384 773 397.5 784 c 128,-1,38
 411 795 411 795 430 795 c 0,27,28
EndSplineSet
EndChar

StartChar: uni0237
Encoding: 567 567 370
Width: 262
GlyphClass: 1
Flags: W
LayerCount: 2
Fore
SplineSet
-83 -200 m 0,0,1
 -44 -200 -44 -200 -7.5 -185.5 c 128,-1,2
 29 -171 29 -171 59 -144 c 128,-1,3
 89 -117 89 -117 111 -80.5 c 128,-1,4
 133 -44 133 -44 142 0 c 2,5,-1
 253 524 l 1,6,-1
 103 524 l 1,7,-1
 -10 -11 l 2,8,9
 -13 -24 -13 -24 -19 -35.5 c 128,-1,10
 -25 -47 -25 -47 -34 -54.5 c 128,-1,11
 -43 -62 -43 -62 -53.5 -66.5 c 128,-1,12
 -64 -71 -64 -71 -74 -71 c 0,13,14
 -88 -71 -88 -71 -101 -65.5 c 128,-1,15
 -114 -60 -114 -60 -121 -50 c 1,16,-1
 -205 -151 l 1,17,18
 -183 -175 -183 -175 -151.5 -187.5 c 128,-1,19
 -120 -200 -120 -200 -83 -200 c 0,0,1
EndSplineSet
EndChar

StartChar: uni0259
Encoding: 601 601 371
Width: 581
GlyphClass: 1
Flags: W
LayerCount: 2
Fore
SplineSet
221 -10 m 0,0,1
 295 -10 295 -10 356.5 17.5 c 128,-1,2
 418 45 418 45 461 91 c 128,-1,3
 504 137 504 137 528.5 195.5 c 128,-1,4
 553 254 553 254 553 316 c 0,5,6
 553 361 553 361 539 400.5 c 128,-1,7
 525 440 525 440 498 469.5 c 128,-1,8
 471 499 471 499 430.5 516.5 c 128,-1,9
 390 534 390 534 336 534 c 0,10,11
 293 534 293 534 253.5 523.5 c 128,-1,12
 214 513 214 513 179.5 495 c 128,-1,13
 145 477 145 477 117 451.5 c 128,-1,14
 89 426 89 426 68 395 c 1,15,-1
 187 359 l 1,16,17
 196 374 196 374 209.5 386.5 c 128,-1,18
 223 399 223 399 239 407.5 c 128,-1,19
 255 416 255 416 273 421 c 128,-1,20
 291 426 291 426 308 426 c 0,21,22
 326 426 326 426 342.5 419.5 c 128,-1,23
 359 413 359 413 371 401 c 128,-1,24
 383 389 383 389 390.5 371.5 c 128,-1,25
 398 354 398 354 398 331 c 0,26,27
 398 325 398 325 397.5 319.5 c 128,-1,28
 397 314 397 314 396 309 c 1,29,-1
 26 309 l 1,30,31
 16 283 16 283 10.5 253.5 c 128,-1,32
 5 224 5 224 5 197 c 0,33,34
 5 154 5 154 18.5 116 c 128,-1,35
 32 78 32 78 59.5 50 c 128,-1,36
 87 22 87 22 127 6 c 128,-1,37
 167 -10 167 -10 221 -10 c 0,0,1
246 97 m 0,38,39
 226 97 226 97 210 104 c 128,-1,40
 194 111 194 111 182.5 124 c 128,-1,41
 171 137 171 137 165 155 c 128,-1,42
 159 173 159 173 159 195 c 0,43,44
 159 201 159 201 159 206 c 128,-1,45
 159 211 159 211 160 217 c 1,46,-1
 380 217 l 1,47,48
 373 190 373 190 359 168 c 128,-1,49
 345 146 345 146 327.5 130 c 128,-1,50
 310 114 310 114 289 105.5 c 128,-1,51
 268 97 268 97 246 97 c 0,38,39
EndSplineSet
EndChar

StartChar: uni02BC
Encoding: 700 700 375
Width: 243
GlyphClass: 1
Flags: W
LayerCount: 2
Fore
SplineSet
331 730 m 1,0,-1
 186 730 l 1,1,-1
 102 570 l 1,2,-1
 184 570 l 1,3,-1
 331 730 l 1,0,-1
EndSplineSet
EndChar

StartChar: uni02BE
Encoding: 702 702 376
Width: 135
GlyphClass: 1
Flags: W
LayerCount: 2
Fore
SplineSet
88 561 m 1,0,1
 110 561 110 561 129.5 569 c 128,-1,2
 149 577 149 577 163.5 591.5 c 128,-1,3
 178 606 178 606 186 626.5 c 128,-1,4
 194 647 194 647 194 672 c 0,5,6
 194 705 194 705 179.5 724 c 128,-1,7
 165 743 165 743 137 743 c 1,8,-1
 124 694 l 1,9,10
 130 694 130 694 134 685 c 128,-1,11
 138 676 138 676 138 663 c 0,12,13
 138 641 138 641 126 625.5 c 128,-1,14
 114 610 114 610 102 610 c 1,15,-1
 88 561 l 1,0,1
EndSplineSet
EndChar

StartChar: uni02BF
Encoding: 703 703 377
Width: 134
GlyphClass: 1
Flags: W
LayerCount: 2
Fore
SplineSet
177 610 m 1,0,1
 170 610 170 610 166.5 619.5 c 128,-1,2
 163 629 163 629 163 643 c 0,3,4
 163 665 163 665 174 679.5 c 128,-1,5
 185 694 185 694 198 694 c 1,6,-1
 212 743 l 1,7,8
 190 743 190 743 170.5 735 c 128,-1,9
 151 727 151 727 136.5 712.5 c 128,-1,10
 122 698 122 698 114 677.5 c 128,-1,11
 106 657 106 657 106 632 c 0,12,13
 106 600 106 600 120.5 580.5 c 128,-1,14
 135 561 135 561 164 561 c 1,15,-1
 177 610 l 1,0,1
EndSplineSet
EndChar

StartChar: uni02C8
Encoding: 712 712 380
Width: 219
GlyphClass: 1
Flags: W
LayerCount: 2
Fore
SplineSet
106 775 m 1,0,-1
 106 383 l 1,1,-1
 232 383 l 1,2,-1
 232 775 l 1,3,-1
 106 775 l 1,0,-1
EndSplineSet
EndChar

StartChar: uni02C9
Encoding: 713 713 381
Width: 399
GlyphClass: 1
Flags: W
LayerCount: 2
Fore
SplineSet
414 626 m 1,0,-1
 435 717 l 1,1,-1
 159 717 l 1,2,-1
 138 626 l 1,3,-1
 414 626 l 1,0,-1
EndSplineSet
EndChar

StartChar: uni02CB
Encoding: 715 715 382
Width: 238
GlyphClass: 1
Flags: W
LayerCount: 2
Fore
SplineSet
219 498 m 1,0,-1
 277 725 l 1,1,-1
 157 725 l 1,2,-1
 128 498 l 1,3,-1
 219 498 l 1,0,-1
EndSplineSet
EndChar

StartChar: uni02CC
Encoding: 716 716 383
Width: 219
GlyphClass: 1
Flags: W
LayerCount: 2
Fore
SplineSet
-3 262 m 1,0,-1
 -3 -130 l 1,1,-1
 123 -130 l 1,2,-1
 123 262 l 1,3,-1
 -3 262 l 1,0,-1
EndSplineSet
EndChar

StartChar: hungarumlaut
Encoding: 733 733 389
Width: 375
GlyphClass: 1
Flags: W
LayerCount: 2
Fore
SplineSet
462 730 m 1,0,-1
 326 730 l 1,1,-1
 228 570 l 1,2,-1
 301 570 l 1,3,-1
 462 730 l 1,0,-1
293 730 m 1,4,-1
 157 730 l 1,5,-1
 59 570 l 1,6,-1
 132 570 l 1,7,-1
 293 730 l 1,4,-1
EndSplineSet
EndChar

StartChar: gravecomb
Encoding: 768 768 390
Width: 263
GlyphClass: 1
Flags: W
LayerCount: 2
Fore
SplineSet
76 760 m 1,0,-1
 189 600 l 1,1,-1
 262 600 l 1,2,-1
 212 760 l 1,3,-1
 76 760 l 1,0,-1
EndSplineSet
EndChar

StartChar: acutecomb
Encoding: 769 769 391
Width: 263
GlyphClass: 1
Flags: W
LayerCount: 2
Fore
SplineSet
287 760 m 1,0,-1
 143 760 l 1,1,-1
 59 600 l 1,2,-1
 140 600 l 1,3,-1
 287 760 l 1,0,-1
EndSplineSet
EndChar

StartChar: uni0302
Encoding: 770 770 392
Width: 378
GlyphClass: 1
Flags: W
LayerCount: 2
Fore
SplineSet
67 600 m 1,0,-1
 140 600 l 1,1,-1
 246 684 l 1,2,-1
 317 600 l 1,3,-1
 390 600 l 1,4,-1
 330 752 l 1,5,-1
 192 752 l 1,6,-1
 67 600 l 1,0,-1
EndSplineSet
EndChar

StartChar: tildecomb
Encoding: 771 771 393
Width: 476
GlyphClass: 1
Flags: W
LayerCount: 2
Fore
SplineSet
372 612 m 0,0,1
 407 612 407 612 434.5 630.5 c 128,-1,2
 462 649 462 649 482 672.5 c 128,-1,3
 502 696 502 696 513 718 c 128,-1,4
 524 740 524 740 526 748 c 1,5,-1
 445 748 l 1,6,7
 445 747 445 747 441.5 739 c 128,-1,8
 438 731 438 731 431 721.5 c 128,-1,9
 424 712 424 712 412.5 705 c 128,-1,10
 401 698 401 698 385 698 c 256,11,12
 369 698 369 698 357 705.5 c 128,-1,13
 345 713 345 713 333 722 c 128,-1,14
 321 731 321 731 306 738.5 c 128,-1,15
 291 746 291 746 269 746 c 0,16,17
 236 746 236 746 209.5 728.5 c 128,-1,18
 183 711 183 711 164 688 c 128,-1,19
 145 665 145 665 134 642.5 c 128,-1,20
 123 620 123 620 120 610 c 1,21,-1
 202 610 l 1,22,23
 202 611 202 611 204.5 618.5 c 128,-1,24
 207 626 207 626 213 635 c 128,-1,25
 219 644 219 644 229.5 651 c 128,-1,26
 240 658 240 658 256 658 c 256,27,28
 272 658 272 658 284 650.5 c 128,-1,29
 296 643 296 643 308.5 634.5 c 128,-1,30
 321 626 321 626 336 619 c 128,-1,31
 351 612 351 612 372 612 c 0,0,1
EndSplineSet
EndChar

StartChar: uni0304
Encoding: 772 772 394
Width: 389
GlyphClass: 1
Flags: W
LayerCount: 2
Fore
SplineSet
416 625 m 1,0,-1
 435 716 l 1,1,-1
 146 716 l 1,2,-1
 127 625 l 1,3,-1
 416 625 l 1,0,-1
EndSplineSet
EndChar

StartChar: uni0306
Encoding: 774 774 395
Width: 371
GlyphClass: 1
Flags: W
LayerCount: 2
Fore
SplineSet
269 654 m 0,0,1
 250 654 250 654 238 670 c 128,-1,2
 226 686 226 686 226 709 c 0,3,4
 226 714 226 714 226.5 719 c 128,-1,5
 227 724 227 724 229 730 c 1,6,-1
 149 730 l 1,7,8
 147 721 147 721 146 712.5 c 128,-1,9
 145 704 145 704 145 695 c 0,10,11
 145 647 145 647 174.5 617.5 c 128,-1,12
 204 588 204 588 255 588 c 0,13,14
 285 588 285 588 312 599 c 128,-1,15
 339 610 339 610 361 628.5 c 128,-1,16
 383 647 383 647 398.5 673 c 128,-1,17
 414 699 414 699 421 730 c 1,18,-1
 342 730 l 1,19,20
 332 697 332 697 311 675.5 c 128,-1,21
 290 654 290 654 269 654 c 0,0,1
EndSplineSet
EndChar

StartChar: uni0307
Encoding: 775 775 396
Width: 234
GlyphClass: 1
Flags: W
LayerCount: 2
Fore
SplineSet
100 666 m 0,0,1
 93 633 93 633 111 610 c 128,-1,2
 129 587 129 587 162 587 c 0,3,4
 178 587 178 587 193.5 593 c 128,-1,5
 209 599 209 599 222.5 609.5 c 128,-1,6
 236 620 236 620 245 634.5 c 128,-1,7
 254 649 254 649 257 666 c 0,8,9
 264 698 264 698 246 721 c 128,-1,10
 228 744 228 744 195 744 c 0,11,12
 179 744 179 744 163 738 c 128,-1,13
 147 732 147 732 134.5 721.5 c 128,-1,14
 122 711 122 711 112.5 696.5 c 128,-1,15
 103 682 103 682 100 666 c 0,0,1
EndSplineSet
EndChar

StartChar: uni0308
Encoding: 776 776 397
Width: 487
GlyphClass: 1
Flags: W
LayerCount: 2
Fore
SplineSet
173 581 m 0,0,1
 190 581 190 581 205.5 587.5 c 128,-1,2
 221 594 221 594 234 604.5 c 128,-1,3
 247 615 247 615 256 629.5 c 128,-1,4
 265 644 265 644 269 660 c 0,5,6
 275 693 275 693 257 716 c 128,-1,7
 239 739 239 739 207 739 c 0,8,9
 190 739 190 739 174.5 732.5 c 128,-1,10
 159 726 159 726 146 715.5 c 128,-1,11
 133 705 133 705 124 691 c 128,-1,12
 115 677 115 677 111 660 c 0,13,14
 104 628 104 628 122 604.5 c 128,-1,15
 140 581 140 581 173 581 c 0,0,1
404 581 m 0,16,17
 421 581 421 581 436.5 587.5 c 128,-1,18
 452 594 452 594 465 604.5 c 128,-1,19
 478 615 478 615 487 629.5 c 128,-1,20
 496 644 496 644 500 660 c 0,21,22
 506 693 506 693 488 716 c 128,-1,23
 470 739 470 739 438 739 c 0,24,25
 421 739 421 739 405.5 732.5 c 128,-1,26
 390 726 390 726 377 715.5 c 128,-1,27
 364 705 364 705 355 691 c 128,-1,28
 346 677 346 677 342 660 c 0,29,30
 335 628 335 628 353 604.5 c 128,-1,31
 371 581 371 581 404 581 c 0,16,17
EndSplineSet
EndChar

StartChar: hookabovecomb
Encoding: 777 777 398
Width: 288
GlyphClass: 1
Flags: W
LayerCount: 2
Fore
SplineSet
176 684 m 1,0,1
 196 697 196 697 208 703 c 128,-1,2
 220 709 220 709 234 709 c 0,3,4
 247 709 247 709 251.5 700.5 c 128,-1,5
 256 692 256 692 251 680 c 0,6,7
 246 667 246 667 233.5 655.5 c 128,-1,8
 221 644 221 644 199 631 c 1,9,-1
 221 591 l 1,10,11
 266 619 266 619 291.5 643.5 c 128,-1,12
 317 668 317 668 330 700 c 0,13,14
 342 733 342 733 328 755 c 128,-1,15
 314 777 314 777 272 777 c 0,16,17
 244 777 244 777 214.5 765 c 128,-1,18
 185 753 185 753 148 727 c 1,19,-1
 176 684 l 1,0,1
EndSplineSet
EndChar

StartChar: uni030A
Encoding: 778 778 399
Width: 302
GlyphClass: 1
Flags: W
LayerCount: 2
Fore
SplineSet
132 635 m 0,0,1
 132 603 132 603 154.5 586.5 c 128,-1,2
 177 570 177 570 217 570 c 0,3,4
 269 570 269 570 302.5 595.5 c 128,-1,5
 336 621 336 621 336 666 c 0,6,7
 336 697 336 697 313.5 713.5 c 128,-1,8
 291 730 291 730 251 730 c 0,9,10
 199 730 199 730 165.5 705 c 128,-1,11
 132 680 132 680 132 635 c 0,0,1
241 685 m 0,12,13
 255 685 255 685 264 677 c 128,-1,14
 273 669 273 669 273 657 c 0,15,16
 273 638 273 638 258.5 626.5 c 128,-1,17
 244 615 244 615 226 615 c 0,18,19
 212 615 212 615 203.5 623 c 128,-1,20
 195 631 195 631 195 644 c 0,21,22
 195 663 195 663 209 674 c 128,-1,23
 223 685 223 685 241 685 c 0,12,13
EndSplineSet
EndChar

StartChar: uni030B
Encoding: 779 779 400
Width: 375
GlyphClass: 1
Flags: W
LayerCount: 2
Fore
SplineSet
507 760 m 1,0,-1
 362 760 l 1,1,-1
 261 600 l 1,2,-1
 343 600 l 1,3,-1
 507 760 l 1,0,-1
310 760 m 1,4,-1
 166 760 l 1,5,-1
 65 600 l 1,6,-1
 146 600 l 1,7,-1
 310 760 l 1,4,-1
EndSplineSet
EndChar

StartChar: uni030C
Encoding: 780 780 401
Width: 378
GlyphClass: 1
Flags: W
LayerCount: 2
Fore
SplineSet
99 752 m 1,0,-1
 160 600 l 1,1,-1
 297 600 l 1,2,-1
 423 752 l 1,3,-1
 349 752 l 1,4,-1
 243 668 l 1,5,-1
 173 752 l 1,6,-1
 99 752 l 1,0,-1
EndSplineSet
EndChar

StartChar: uni030F
Encoding: 783 783 402
Width: 375
GlyphClass: 1
Flags: W
LayerCount: 2
Fore
SplineSet
230 760 m 1,0,-1
 326 600 l 1,1,-1
 399 600 l 1,2,-1
 366 760 l 1,3,-1
 230 760 l 1,0,-1
35 760 m 1,4,-1
 131 600 l 1,5,-1
 205 600 l 1,6,-1
 172 760 l 1,7,-1
 35 760 l 1,4,-1
EndSplineSet
EndChar

StartChar: uni0311
Encoding: 785 785 403
Width: 371
GlyphClass: 1
Flags: W
LayerCount: 2
Fore
SplineSet
119 588 m 1,0,-1
 198 588 l 1,1,2
 206 629 206 629 225 646.5 c 128,-1,3
 244 664 244 664 271 664 c 0,4,5
 294 664 294 664 304 653 c 128,-1,6
 314 642 314 642 314 618 c 0,7,8
 314 611 314 611 313.5 604 c 128,-1,9
 313 597 313 597 312 588 c 1,10,-1
 390 588 l 1,11,12
 392 597 392 597 393 604.5 c 128,-1,13
 394 612 394 612 394 620 c 0,14,15
 394 667 394 667 365.5 698.5 c 128,-1,16
 337 730 337 730 284 730 c 0,17,18
 255 730 255 730 228 719.5 c 128,-1,19
 201 709 201 709 179 690 c 128,-1,20
 157 671 157 671 141.5 645.5 c 128,-1,21
 126 620 126 620 119 588 c 1,0,-1
EndSplineSet
EndChar

StartChar: uni0312
Encoding: 786 786 404
Width: 212
GlyphClass: 1
Flags: W
LayerCount: 2
Fore
SplineSet
61 580 m 1,0,-1
 197 580 l 1,1,-1
 295 741 l 1,2,-1
 221 741 l 1,3,-1
 61 580 l 1,0,-1
EndSplineSet
EndChar

StartChar: uni031B
Encoding: 795 795 405
Width: 313
GlyphClass: 1
Flags: W
LayerCount: 2
Fore
SplineSet
96 479 m 1,0,1
 122 479 122 479 148.5 483 c 128,-1,2
 175 487 175 487 199 493.5 c 128,-1,3
 223 500 223 500 243.5 509.5 c 128,-1,4
 264 519 264 519 278 531 c 0,5,6
 296 546 296 546 308.5 564 c 128,-1,7
 321 582 321 582 329 600 c 128,-1,8
 337 618 337 618 341.5 636.5 c 128,-1,9
 346 655 346 655 350 672 c 1,10,-1
 244 672 l 1,11,12
 239 652 239 652 234 635 c 128,-1,13
 229 618 229 618 214 605 c 0,14,15
 200 591 200 591 176.5 586.5 c 128,-1,16
 153 582 153 582 118 582 c 1,17,-1
 96 479 l 1,0,1
EndSplineSet
EndChar

StartChar: dotbelowcomb
Encoding: 803 803 406
Width: 234
GlyphClass: 1
Flags: W
LayerCount: 2
Fore
SplineSet
-59 -138 m 0,0,1
 -66 -171 -66 -171 -47.5 -194 c 128,-1,2
 -29 -217 -29 -217 3 -217 c 0,3,4
 20 -217 20 -217 35.5 -211 c 128,-1,5
 51 -205 51 -205 64 -194.5 c 128,-1,6
 77 -184 77 -184 86.5 -169.5 c 128,-1,7
 96 -155 96 -155 99 -138 c 0,8,9
 106 -106 106 -106 87.5 -83 c 128,-1,10
 69 -60 69 -60 37 -60 c 0,11,12
 21 -60 21 -60 5 -66 c 128,-1,13
 -11 -72 -11 -72 -24 -82.5 c 128,-1,14
 -37 -93 -37 -93 -46 -107.5 c 128,-1,15
 -55 -122 -55 -122 -59 -138 c 0,0,1
EndSplineSet
EndChar

StartChar: uni0324
Encoding: 804 804 407
Width: 487
GlyphClass: 1
Flags: W
LayerCount: 2
Fore
SplineSet
87 -220 m 0,0,1
 104 -220 104 -220 119.5 -213.5 c 128,-1,2
 135 -207 135 -207 148 -196.5 c 128,-1,3
 161 -186 161 -186 170 -172 c 128,-1,4
 179 -158 179 -158 183 -141 c 0,5,6
 189 -108 189 -108 171 -85 c 128,-1,7
 153 -62 153 -62 121 -62 c 0,8,9
 104 -62 104 -62 88.5 -68.5 c 128,-1,10
 73 -75 73 -75 60 -85.5 c 128,-1,11
 47 -96 47 -96 38 -110.5 c 128,-1,12
 29 -125 29 -125 25 -141 c 0,13,14
 18 -173 18 -173 36 -196.5 c 128,-1,15
 54 -220 54 -220 87 -220 c 0,0,1
318 -220 m 0,16,17
 335 -220 335 -220 350.5 -213.5 c 128,-1,18
 366 -207 366 -207 379 -196.5 c 128,-1,19
 392 -186 392 -186 401 -172 c 128,-1,20
 410 -158 410 -158 414 -141 c 0,21,22
 420 -108 420 -108 402 -85 c 128,-1,23
 384 -62 384 -62 352 -62 c 0,24,25
 335 -62 335 -62 319.5 -68.5 c 128,-1,26
 304 -75 304 -75 291 -85.5 c 128,-1,27
 278 -96 278 -96 269 -110.5 c 128,-1,28
 260 -125 260 -125 256 -141 c 0,29,30
 249 -173 249 -173 267 -196.5 c 128,-1,31
 285 -220 285 -220 318 -220 c 0,16,17
EndSplineSet
EndChar

StartChar: uni0326
Encoding: 806 806 408
Width: 212
GlyphClass: 1
Flags: W
LayerCount: 2
Fore
SplineSet
4 -271 m 1,0,-1
 150 -47 l 1,1,-1
 23 -47 l 1,2,-1
 -63 -271 l 1,3,-1
 4 -271 l 1,0,-1
EndSplineSet
EndChar

StartChar: uni0327
Encoding: 807 807 409
Width: 323
GlyphClass: 1
Flags: W
LayerCount: 2
Fore
SplineSet
-43 -185 m 1,0,1
 -20 -196 -20 -196 5.5 -200.5 c 128,-1,2
 31 -205 31 -205 56 -205 c 256,3,4
 81 -205 81 -205 108 -200 c 128,-1,5
 135 -195 135 -195 157.5 -182.5 c 128,-1,6
 180 -170 180 -170 194.5 -150 c 128,-1,7
 209 -130 209 -130 209 -99 c 256,8,9
 209 -68 209 -68 188 -54.5 c 128,-1,10
 167 -41 167 -41 138 -41 c 0,11,12
 131 -41 131 -41 124 -41.5 c 128,-1,13
 117 -42 117 -42 109 -44 c 1,14,-1
 154 8 l 1,15,-1
 102 25 l 1,16,-1
 16 -98 l 1,17,18
 36 -93 36 -93 55.5 -90 c 128,-1,19
 75 -87 75 -87 94 -87 c 0,20,21
 101 -87 101 -87 109 -87.5 c 128,-1,22
 117 -88 117 -88 123.5 -91 c 128,-1,23
 130 -94 130 -94 134.5 -99 c 128,-1,24
 139 -104 139 -104 139 -113 c 0,25,26
 139 -126 139 -126 133 -133.5 c 128,-1,27
 127 -141 127 -141 118 -145 c 128,-1,28
 109 -149 109 -149 98.5 -150.5 c 128,-1,29
 88 -152 88 -152 78 -152 c 0,30,31
 70 -152 70 -152 58.5 -151 c 128,-1,32
 47 -150 47 -150 36 -147.5 c 128,-1,33
 25 -145 25 -145 14.5 -141.5 c 128,-1,34
 4 -138 4 -138 -3 -132 c 1,35,36
 -13 -145 -13 -145 -23 -158.5 c 128,-1,37
 -33 -172 -33 -172 -43 -185 c 1,0,1
EndSplineSet
EndChar

StartChar: uni0328
Encoding: 808 808 410
Width: 249
GlyphClass: 1
Flags: W
LayerCount: 2
Fore
SplineSet
-30 -124 m 0,0,1
 -30 -152 -30 -152 -6.5 -174.5 c 128,-1,2
 17 -197 17 -197 64 -204 c 1,3,-1
 112 -122 l 1,4,5
 88 -121 88 -121 77.5 -113 c 128,-1,6
 67 -105 67 -105 67 -90 c 0,7,8
 67 -72 67 -72 86.5 -49.5 c 128,-1,9
 106 -27 106 -27 143 1 c 1,10,-1
 139 22 l 1,11,-1
 91 22 l 1,12,13
 31 -12 31 -12 0.5 -50 c 128,-1,14
 -30 -88 -30 -88 -30 -124 c 0,0,1
EndSplineSet
EndChar

StartChar: uni032E
Encoding: 814 814 411
Width: 314
GlyphClass: 1
Flags: W
LayerCount: 2
Fore
SplineSet
57 -194 m 0,0,1
 84 -194 84 -194 109.5 -183.5 c 128,-1,2
 135 -173 135 -173 156.5 -154 c 128,-1,3
 178 -135 178 -135 193.5 -109.5 c 128,-1,4
 209 -84 209 -84 216 -53 c 1,5,-1
 140 -53 l 1,6,7
 130 -85 130 -85 111 -106.5 c 128,-1,8
 92 -128 92 -128 72 -128 c 256,9,10
 52 -128 52 -128 42.5 -105.5 c 128,-1,11
 33 -83 33 -83 40 -53 c 1,12,-1
 -36 -53 l 1,13,14
 -51 -115 -51 -115 -25 -154.5 c 128,-1,15
 1 -194 1 -194 57 -194 c 0,0,1
EndSplineSet
EndChar

StartChar: uni0331
Encoding: 817 817 412
Width: 378
GlyphClass: 1
Flags: W
LayerCount: 2
Fore
SplineSet
234 -169 m 1,0,-1
 255 -78 l 1,1,-1
 -21 -78 l 1,2,-1
 -42 -169 l 1,3,-1
 234 -169 l 1,0,-1
EndSplineSet
EndChar

StartChar: uni0335
Encoding: 821 821 413
Width: 380
GlyphClass: 1
Flags: W
LayerCount: 2
Fore
SplineSet
325 245 m 1,0,-1
 345 333 l 1,1,-1
 67 333 l 1,2,-1
 46 245 l 1,3,-1
 325 245 l 1,0,-1
EndSplineSet
EndChar

StartChar: tonos
Encoding: 900 900 415
Width: 214
GlyphClass: 1
Flags: W
LayerCount: 2
Fore
SplineSet
195 827 m 1,0,-1
 114 581 l 1,1,-1
 190 569 l 1,2,-1
 298 804 l 1,3,-1
 195 827 l 1,0,-1
EndSplineSet
EndChar

StartChar: dieresistonos
Encoding: 901 901 416
Width: 549
GlyphClass: 1
Flags: W
LayerCount: 2
Fore
SplineSet
126 668 m 0,0,1
 116 629 116 629 135.5 601.5 c 128,-1,2
 155 574 155 574 192 574 c 0,3,4
 226 574 226 574 250 593.5 c 128,-1,5
 274 613 274 613 281 642 c 0,6,7
 290 683 290 683 271 709.5 c 128,-1,8
 252 736 252 736 214 736 c 0,9,10
 182 736 182 736 157 717.5 c 128,-1,11
 132 699 132 699 126 668 c 0,0,1
447 668 m 0,12,13
 439 629 439 629 459 601.5 c 128,-1,14
 479 574 479 574 516 574 c 0,15,16
 548 574 548 574 572.5 593.5 c 128,-1,17
 597 613 597 613 604 642 c 0,18,19
 613 683 613 683 593.5 709.5 c 128,-1,20
 574 736 574 736 537 736 c 0,21,22
 506 736 506 736 480.5 717.5 c 128,-1,23
 455 699 455 699 447 668 c 0,12,13
377 833 m 1,24,-1
 296 587 l 1,25,-1
 372 575 l 1,26,-1
 480 810 l 1,27,-1
 377 833 l 1,24,-1
EndSplineSet
EndChar

StartChar: Gamma
Encoding: 915 915 428
Width: 496
GlyphClass: 1
Flags: W
LayerCount: 2
Fore
SplineSet
142 714 m 1,0,-1
 620 714 l 1,1,-1
 584 581 l 1,2,-1
 258 581 l 1,3,-1
 106 10 l 1,4,-1
 -46 10 l 1,5,-1
 142 714 l 1,0,-1
EndSplineSet
EndChar

StartChar: uni0394
Encoding: 916 916 429
Width: 665
GlyphClass: 1
Flags: W
LayerCount: 2
Fore
SplineSet
-51 0 m 1,0,-1
 598 0 l 1,1,-1
 602 23 l 1,2,-1
 528 714 l 1,3,-1
 340 714 l 1,4,-1
 -47 23 l 1,5,-1
 -51 0 l 1,0,-1
148 121 m 1,6,-1
 293 372 l 1,7,-1
 408 594 l 1,8,-1
 412 594 l 1,9,-1
 428 372 l 1,10,-1
 452 121 l 1,11,-1
 148 121 l 1,6,-1
EndSplineSet
EndChar

StartChar: Eta
Encoding: 919 919 432
Width: 720
GlyphClass: 1
Flags: W
LayerCount: 2
Fore
SplineSet
-40 0 m 1,0,-1
 111 0 l 1,1,-1
 174 294 l 1,2,-1
 445 294 l 1,3,-1
 383 0 l 1,4,-1
 534 0 l 1,5,-1
 684 704 l 1,6,-1
 532 704 l 1,7,-1
 473 426 l 1,8,-1
 202 426 l 1,9,-1
 261 704 l 1,10,-1
 110 704 l 1,11,-1
 -40 0 l 1,0,-1
EndSplineSet
EndChar

StartChar: Theta
Encoding: 920 920 433
Width: 731
GlyphClass: 1
Flags: W
LayerCount: 2
Fore
SplineSet
229 292 m 1,0,-1
 491 292 l 1,1,-1
 519 425 l 1,2,-1
 258 425 l 1,3,-1
 229 292 l 1,0,-1
297 -6 m 0,4,5
 380 -6 380 -6 455.5 30 c 128,-1,6
 531 66 531 66 588 125 c 128,-1,7
 645 184 645 184 679 259.5 c 128,-1,8
 713 335 713 335 713 414 c 0,9,10
 713 471 713 471 696.5 524 c 128,-1,11
 680 577 680 577 646.5 618 c 128,-1,12
 613 659 613 659 564.5 683.5 c 128,-1,13
 516 708 516 708 452 708 c 0,14,15
 370 708 370 708 294 672.5 c 128,-1,16
 218 637 218 637 160.5 578.5 c 128,-1,17
 103 520 103 520 68.5 444 c 128,-1,18
 34 368 34 368 34 288 c 0,19,20
 34 231 34 231 51.5 178 c 128,-1,21
 69 125 69 125 102.5 84 c 128,-1,22
 136 43 136 43 185 18.5 c 128,-1,23
 234 -6 234 -6 297 -6 c 0,4,5
327 130 m 0,24,25
 292 130 292 130 266 143.5 c 128,-1,26
 240 157 240 157 223.5 180.5 c 128,-1,27
 207 204 207 204 198.5 235 c 128,-1,28
 190 266 190 266 190 300 c 0,29,30
 190 347 190 347 206 395.5 c 128,-1,31
 222 444 222 444 252.5 483.5 c 128,-1,32
 283 523 283 523 325.5 548 c 128,-1,33
 368 573 368 573 420 573 c 0,34,35
 456 573 456 573 481.5 559 c 128,-1,36
 507 545 507 545 524.5 522 c 128,-1,37
 542 499 542 499 550.5 468 c 128,-1,38
 559 437 559 437 559 404 c 0,39,40
 559 357 559 357 542.5 308.5 c 128,-1,41
 526 260 526 260 495.5 220 c 128,-1,42
 465 180 465 180 422.5 155 c 128,-1,43
 380 130 380 130 327 130 c 0,24,25
EndSplineSet
EndChar

StartChar: Lambda
Encoding: 923 923 436
Width: 691
GlyphClass: 1
Flags: W
LayerCount: 2
Fore
SplineSet
-50 0 m 1,0,-1
 101 0 l 1,1,-1
 306 370 l 1,2,-1
 419 580 l 1,3,-1
 423 580 l 1,4,-1
 442 369 l 1,5,-1
 476 0 l 1,6,-1
 622 0 l 1,7,-1
 544 714 l 1,8,-1
 354 714 l 1,9,-1
 -50 0 l 1,0,-1
EndSplineSet
EndChar

StartChar: Xi
Encoding: 926 926 439
Width: 659
GlyphClass: 1
Flags: W
LayerCount: 2
Fore
SplineSet
4 0 m 1,0,-1
 536 0 l 1,1,-1
 564 121 l 1,2,-1
 32 121 l 1,3,-1
 4 0 l 1,0,-1
145 296 m 1,4,-1
 529 296 l 1,5,-1
 557 416 l 1,6,-1
 173 416 l 1,7,-1
 145 296 l 1,4,-1
139 591 m 1,8,-1
 671 591 l 1,9,-1
 697 712 l 1,10,-1
 165 712 l 1,11,-1
 139 591 l 1,8,-1
EndSplineSet
EndChar

StartChar: Pi
Encoding: 928 928 441
Width: 672
GlyphClass: 1
Flags: W
LayerCount: 2
Fore
SplineSet
14 0 m 1,0,-1
 158 0 l 1,1,-1
 293 591 l 1,2,-1
 532 591 l 1,3,-1
 397 0 l 1,4,-1
 540 0 l 1,5,-1
 701 712 l 1,6,-1
 175 712 l 1,7,-1
 14 0 l 1,0,-1
EndSplineSet
EndChar

StartChar: Sigma
Encoding: 931 931 443
Width: 574
GlyphClass: 1
Flags: W
LayerCount: 2
Fore
SplineSet
-10 0 m 1,0,-1
 469 0 l 1,1,-1
 497 121 l 1,2,-1
 216 121 l 1,3,-1
 452 364 l 1,4,-1
 323 591 l 1,5,-1
 585 591 l 1,6,-1
 611 712 l 1,7,-1
 155 712 l 1,8,-1
 137 625 l 1,9,-1
 298 361 l 1,10,-1
 8 86 l 1,11,-1
 -10 0 l 1,0,-1
EndSplineSet
EndChar

StartChar: Upsilon
Encoding: 933 933 445
Width: 645
GlyphClass: 1
Flags: W
LayerCount: 2
Fore
SplineSet
191 0 m 1,0,-1
 336 0 l 1,1,-1
 387 225 l 2,2,3
 403 293 403 293 437.5 351.5 c 128,-1,4
 472 410 472 410 516.5 460 c 128,-1,5
 561 510 561 510 611 553.5 c 128,-1,6
 661 597 661 597 709 637 c 1,7,-1
 615 724 l 1,8,9
 564 683 564 683 525.5 649 c 128,-1,10
 487 615 487 615 457 583 c 128,-1,11
 427 551 427 551 405 518.5 c 128,-1,12
 383 486 383 486 366 448 c 1,13,-1
 358 436 l 1,14,15
 357 473 357 473 350 506 c 128,-1,16
 343 539 343 539 328.5 572 c 128,-1,17
 314 605 314 605 290.5 639.5 c 128,-1,18
 267 674 267 674 233 714 c 1,19,-1
 115 646 l 1,20,21
 143 607 143 607 173 565 c 128,-1,22
 203 523 203 523 224.5 474 c 128,-1,23
 246 425 246 425 254 366.5 c 128,-1,24
 262 308 262 308 246 238 c 2,25,-1
 191 0 l 1,0,-1
EndSplineSet
EndChar

StartChar: Phi
Encoding: 934 934 446
Width: 764
GlyphClass: 1
Flags: W
LayerCount: 2
Fore
SplineSet
337 189 m 1,0,1
 298 189 298 189 268 200.5 c 128,-1,2
 238 212 238 212 219.5 232.5 c 128,-1,3
 201 253 201 253 195 281.5 c 128,-1,4
 189 310 189 310 196 345 c 0,5,6
 206 384 206 384 227.5 417.5 c 128,-1,7
 249 451 249 451 279 475 c 128,-1,8
 309 499 309 499 345.5 512.5 c 128,-1,9
 382 526 382 526 421 526 c 1,10,-1
 440 644 l 1,11,12
 370 644 370 644 308.5 624.5 c 128,-1,13
 247 605 247 605 198.5 569 c 128,-1,14
 150 533 150 533 116 482.5 c 128,-1,15
 82 432 82 432 68 370 c 0,16,17
 54 304 54 304 64.5 249 c 128,-1,18
 75 194 75 194 108 154.5 c 128,-1,19
 141 115 141 115 194 93 c 128,-1,20
 247 71 247 71 317 71 c 1,21,-1
 337 189 l 1,0,1
383 -32 m 1,22,-1
 559 744 l 1,23,-1
 424 744 l 1,24,-1
 249 -32 l 1,25,-1
 383 -32 l 1,22,-1
372 71 m 1,26,27
 442 71 442 71 503 90.5 c 128,-1,28
 564 110 564 110 612.5 146.5 c 128,-1,29
 661 183 661 183 694 233 c 128,-1,30
 727 283 727 283 741 345 c 0,31,32
 755 411 755 411 745 466 c 128,-1,33
 735 521 735 521 703 561 c 128,-1,34
 671 601 671 601 618 622.5 c 128,-1,35
 565 644 565 644 495 644 c 1,36,-1
 476 526 l 1,37,38
 515 526 515 526 544 515 c 128,-1,39
 573 504 573 504 591 483.5 c 128,-1,40
 609 463 609 463 614.5 434 c 128,-1,41
 620 405 620 405 612 370 c 0,42,43
 603 331 603 331 582.5 298 c 128,-1,44
 562 265 562 265 532.5 240.5 c 128,-1,45
 503 216 503 216 467 202.5 c 128,-1,46
 431 189 431 189 392 189 c 1,47,-1
 372 71 l 1,26,27
EndSplineSet
EndChar

StartChar: Psi
Encoding: 936 936 448
Width: 805
GlyphClass: 1
Flags: W
LayerCount: 2
Fore
SplineSet
277 0 m 1,0,-1
 411 0 l 1,1,-1
 574 714 l 1,2,-1
 439 714 l 1,3,-1
 277 0 l 1,0,-1
120 450 m 2,4,5
 107 395 107 395 111.5 345 c 128,-1,6
 116 295 116 295 142.5 258 c 128,-1,7
 169 221 169 221 219 198.5 c 128,-1,8
 269 176 269 176 348 176 c 1,9,-1
 358 288 l 1,10,11
 316 288 316 288 290.5 298.5 c 128,-1,12
 265 309 265 309 253.5 327 c 128,-1,13
 242 345 242 345 241.5 369 c 128,-1,14
 241 393 241 393 247 420 c 0,15,16
 251 438 251 438 256 457.5 c 128,-1,17
 261 477 261 477 265.5 496 c 128,-1,18
 270 515 270 515 274.5 533.5 c 128,-1,19
 279 552 279 552 282 569 c 0,20,21
 293 611 293 611 299.5 648 c 128,-1,22
 306 685 306 685 301 707 c 1,23,-1
 169 721 l 1,24,25
 169 697 169 697 166.5 673.5 c 128,-1,26
 164 650 164 650 160 629 c 128,-1,27
 156 608 156 608 152 589.5 c 128,-1,28
 148 571 148 571 144 555 c 2,29,-1
 120 450 l 2,4,5
790 543 m 2,30,31
 795 560 795 560 799.5 579 c 128,-1,32
 804 598 804 598 810.5 618.5 c 128,-1,33
 817 639 817 639 824.5 661 c 128,-1,34
 832 683 832 683 843 707 c 1,35,-1
 706 721 l 1,36,37
 699 710 699 710 693 695 c 128,-1,38
 687 680 687 680 682.5 663 c 128,-1,39
 678 646 678 646 674 628.5 c 128,-1,40
 670 611 670 611 667 595 c 0,41,42
 663 574 663 574 658.5 552.5 c 128,-1,43
 654 531 654 531 650 511.5 c 128,-1,44
 646 492 646 492 643 475.5 c 128,-1,45
 640 459 640 459 637 446 c 0,46,47
 629 415 629 415 615 387 c 128,-1,48
 601 359 601 359 579 336.5 c 128,-1,49
 557 314 557 314 526 301 c 128,-1,50
 495 288 495 288 452 288 c 1,51,-1
 427 176 l 1,52,53
 506 176 506 176 564 196.5 c 128,-1,54
 622 217 622 217 663 252 c 128,-1,55
 704 287 704 287 729 334.5 c 128,-1,56
 754 382 754 382 765 437 c 2,57,-1
 790 543 l 2,30,31
EndSplineSet
EndChar

StartChar: uni03A9
Encoding: 937 937 449
Width: 721
GlyphClass: 1
Flags: W
LayerCount: 2
Fore
SplineSet
-26 0 m 1,0,-1
 262 0 l 1,1,-1
 310 226 l 1,2,3
 282 234 282 234 263 251.5 c 128,-1,4
 244 269 244 269 232.5 292.5 c 128,-1,5
 221 316 221 316 219 344.5 c 128,-1,6
 217 373 217 373 224 405 c 0,7,8
 233 443 233 443 253 477 c 128,-1,9
 273 511 273 511 300.5 535.5 c 128,-1,10
 328 560 328 560 363 574.5 c 128,-1,11
 398 589 398 589 436 589 c 0,12,13
 472 589 472 589 500 576 c 128,-1,14
 528 563 528 563 545.5 541 c 128,-1,15
 563 519 563 519 569 489.5 c 128,-1,16
 575 460 575 460 568 425 c 0,17,18
 561 392 561 392 543.5 358.5 c 128,-1,19
 526 325 526 325 502 297 c 128,-1,20
 478 269 478 269 448.5 249 c 128,-1,21
 419 229 419 229 390 223 c 1,22,-1
 338 0 l 1,23,-1
 628 0 l 1,24,-1
 656 123 l 1,25,-1
 407 123 l 1,26,-1
 460 73 l 1,27,-1
 487 198 l 1,28,-1
 429 125 l 1,29,30
 480 135 480 135 526 161.5 c 128,-1,31
 572 188 572 188 609.5 226 c 128,-1,32
 647 264 647 264 673.5 311.5 c 128,-1,33
 700 359 700 359 711 411 c 0,34,35
 726 475 726 475 713.5 531.5 c 128,-1,36
 701 588 701 588 666.5 630.5 c 128,-1,37
 632 673 632 673 577 697.5 c 128,-1,38
 522 722 522 722 452 722 c 0,39,40
 385 722 385 722 324.5 700 c 128,-1,41
 264 678 264 678 215 638.5 c 128,-1,42
 166 599 166 599 131.5 545 c 128,-1,43
 97 491 97 491 83 428 c 0,44,45
 71 377 71 377 76 330 c 128,-1,46
 81 283 81 283 100.5 243.5 c 128,-1,47
 120 204 120 204 153 174.5 c 128,-1,48
 186 145 186 145 232 128 c 1,49,-1
 207 198 l 1,50,-1
 180 73 l 1,51,-1
 254 123 l 1,52,-1
 4 123 l 1,53,-1
 -26 0 l 1,0,-1
EndSplineSet
EndChar

StartChar: Iotadieresis
Encoding: 938 938 450
Width: 356
GlyphClass: 1
Flags: W
LayerCount: 2
Fore
SplineSet
6 0 m 1,0,-1
 158 0 l 1,1,-1
 308 704 l 1,2,-1
 156 704 l 1,3,-1
 6 0 l 1,0,-1
275 839 m 0,4,5
 268 806 268 806 279.5 783.5 c 128,-1,6
 291 761 291 761 314 761 c 256,7,8
 337 761 337 761 358 783.5 c 128,-1,9
 379 806 379 806 387 839 c 0,10,11
 394 871 394 871 382.5 894 c 128,-1,12
 371 917 371 917 347 917 c 0,13,14
 324 917 324 917 303 894 c 128,-1,15
 282 871 282 871 275 839 c 0,4,5
129 839 m 0,16,17
 123 806 123 806 134 783.5 c 128,-1,18
 145 761 145 761 169 761 c 0,19,20
 192 761 192 761 213 783.5 c 128,-1,21
 234 806 234 806 241 839 c 0,22,23
 248 871 248 871 236.5 894 c 128,-1,24
 225 917 225 917 201 917 c 0,25,26
 178 917 178 917 157 894 c 128,-1,27
 136 871 136 871 129 839 c 0,16,17
EndSplineSet
EndChar

StartChar: alphatonos
Encoding: 940 940 452
Width: 655
GlyphClass: 1
Flags: W
LayerCount: 2
Fore
SplineSet
391 253 m 2,0,1
 380 233 380 233 366 209.5 c 128,-1,2
 352 186 352 186 333 165.5 c 128,-1,3
 314 145 314 145 290 131 c 128,-1,4
 266 117 266 117 235 117 c 0,5,6
 211 117 211 117 193 125.5 c 128,-1,7
 175 134 175 134 164 151 c 128,-1,8
 153 168 153 168 150 192.5 c 128,-1,9
 147 217 147 217 153 248 c 0,10,11
 163 286 163 286 179.5 315 c 128,-1,12
 196 344 196 344 217.5 364 c 128,-1,13
 239 384 239 384 262.5 395 c 128,-1,14
 286 406 286 406 308 406 c 0,15,16
 324 406 324 406 337.5 400 c 128,-1,17
 351 394 351 394 361.5 383 c 128,-1,18
 372 372 372 372 378.5 356 c 128,-1,19
 385 340 385 340 388.5 320 c 128,-1,20
 392 300 392 300 393 277 c 128,-1,21
 394 254 394 254 392 228 c 1,22,-1
 467 312 l 1,23,24
 470 364 470 364 459 405 c 128,-1,25
 448 446 448 446 426.5 474 c 128,-1,26
 405 502 405 502 374 517 c 128,-1,27
 343 532 343 532 306 532 c 0,28,29
 262 532 262 532 219 511.5 c 128,-1,30
 176 491 176 491 140.5 456 c 128,-1,31
 105 421 105 421 78 372.5 c 128,-1,32
 51 324 51 324 38 267 c 0,33,34
 25 208 25 208 31 157.5 c 128,-1,35
 37 107 37 107 59 70 c 128,-1,36
 81 33 81 33 118.5 12.5 c 128,-1,37
 156 -8 156 -8 205 -8 c 0,38,39
 246 -8 246 -8 285 6 c 128,-1,40
 324 20 324 20 358.5 45 c 128,-1,41
 393 70 393 70 422.5 104 c 128,-1,42
 452 138 452 138 474 178 c 2,43,-1
 666 524 l 1,44,-1
 542 524 l 1,45,-1
 391 253 l 2,0,1
584 106 m 1,46,-1
 560 113 l 2,47,48
 552 118 552 118 542 125 c 128,-1,49
 532 132 532 132 521.5 143.5 c 128,-1,50
 511 155 511 155 501.5 173.5 c 128,-1,51
 492 192 492 192 485 219 c 1,52,-1
 402 138 l 1,53,54
 399 107 399 107 404 83.5 c 128,-1,55
 409 60 409 60 419.5 43 c 128,-1,56
 430 26 430 26 444.5 15 c 128,-1,57
 459 4 459 4 476 -3 c 2,58,-1
 491 -8 l 1,59,-1
 584 106 l 1,46,-1
401 827 m 1,60,-1
 321 581 l 1,61,-1
 397 569 l 1,62,-1
 504 804 l 1,63,-1
 401 827 l 1,60,-1
EndSplineSet
EndChar

StartChar: epsilontonos
Encoding: 941 941 453
Width: 508
GlyphClass: 1
Flags: W
LayerCount: 2
Fore
SplineSet
406 141 m 1,0,1
 369 132 369 132 328 123 c 128,-1,2
 287 114 287 114 247 114 c 0,3,4
 196 114 196 114 171 126 c 128,-1,5
 146 138 146 138 149 159 c 0,6,7
 153 174 153 174 165 184.5 c 128,-1,8
 177 195 177 195 194.5 202 c 128,-1,9
 212 209 212 209 233.5 212 c 128,-1,10
 255 215 255 215 277 215 c 2,11,-1
 319 215 l 1,12,-1
 341 313 l 1,13,-1
 296 313 l 2,14,15
 276 314 276 314 259.5 317 c 128,-1,16
 243 320 243 320 231 324.5 c 128,-1,17
 219 329 219 329 213 336 c 128,-1,18
 207 343 207 343 209 351 c 0,19,20
 212 362 212 362 221.5 371.5 c 128,-1,21
 231 381 231 381 246.5 388.5 c 128,-1,22
 262 396 262 396 283.5 400.5 c 128,-1,23
 305 405 305 405 334 405 c 0,24,25
 351 405 351 405 368.5 403.5 c 128,-1,26
 386 402 386 402 401 399.5 c 128,-1,27
 416 397 416 397 430 393.5 c 128,-1,28
 444 390 444 390 453 385 c 1,29,-1
 512 503 l 1,30,31
 477 522 477 522 435.5 528 c 128,-1,32
 394 534 394 534 356 532 c 0,33,34
 301 533 301 533 256.5 523.5 c 128,-1,35
 212 514 212 514 179 495.5 c 128,-1,36
 146 477 146 477 125 451.5 c 128,-1,37
 104 426 104 426 97 395 c 0,38,39
 93 374 93 374 94.5 354 c 128,-1,40
 96 334 96 334 103 317.5 c 128,-1,41
 110 301 110 301 121.5 290 c 128,-1,42
 133 279 133 279 147 274 c 1,43,-1
 141 275 l 1,44,45
 121 269 121 269 101.5 257 c 128,-1,46
 82 245 82 245 66 229 c 128,-1,47
 50 213 50 213 39 194.5 c 128,-1,48
 28 176 28 176 24 155 c 0,49,50
 15 118 15 118 26.5 87 c 128,-1,51
 38 56 38 56 66.5 34.5 c 128,-1,52
 95 13 95 13 137.5 0.5 c 128,-1,53
 180 -12 180 -12 232 -12 c 0,54,55
 254 -12 254 -12 278.5 -10 c 128,-1,56
 303 -8 303 -8 328 -5 c 128,-1,57
 353 -2 353 -2 375 2.5 c 128,-1,58
 397 7 397 7 414 12 c 1,59,-1
 406 141 l 1,0,1
407 873 m 1,60,-1
 326 627 l 1,61,-1
 402 615 l 1,62,-1
 509 850 l 1,63,-1
 407 873 l 1,60,-1
EndSplineSet
EndChar

StartChar: etatonos
Encoding: 942 942 454
Width: 627
GlyphClass: 1
Flags: W
LayerCount: 2
Fore
SplineSet
136 -6 m 1,0,1
 169 90 169 90 194 168.5 c 128,-1,2
 219 247 219 247 235 323 c 0,3,4
 245 365 245 365 245.5 398 c 128,-1,5
 246 431 246 431 236.5 456.5 c 128,-1,6
 227 482 227 482 208.5 500 c 128,-1,7
 190 518 190 518 161 530 c 1,8,-1
 73 419 l 1,9,10
 88 412 88 412 95.5 400.5 c 128,-1,11
 103 389 103 389 105 372 c 128,-1,12
 107 355 107 355 103.5 331.5 c 128,-1,13
 100 308 100 308 93 276 c 0,14,15
 79 213 79 213 56 144 c 128,-1,16
 33 75 33 75 10 6 c 1,17,-1
 136 -6 l 1,0,1
402 -211 m 1,18,19
 423 -162 423 -162 445.5 -100.5 c 128,-1,20
 468 -39 468 -39 488.5 24 c 128,-1,21
 509 87 509 87 526.5 147 c 128,-1,22
 544 207 544 207 554 253 c 0,23,24
 587 399 587 399 562.5 465.5 c 128,-1,25
 538 532 538 532 451 532 c 0,26,27
 421 532 421 532 390 521.5 c 128,-1,28
 359 511 359 511 329 492 c 128,-1,29
 299 473 299 473 272.5 445 c 128,-1,30
 246 417 246 417 225 381 c 1,31,-1
 210 228 l 1,32,33
 221 261 221 261 240.5 290.5 c 128,-1,34
 260 320 260 320 283.5 343.5 c 128,-1,35
 307 367 307 367 333 381.5 c 128,-1,36
 359 396 359 396 382 396 c 0,37,38
 423 396 423 396 432.5 360.5 c 128,-1,39
 442 325 442 325 421 235 c 0,40,41
 413 198 413 198 400 154 c 128,-1,42
 387 110 387 110 368.5 57 c 128,-1,43
 350 4 350 4 326 -58.5 c 128,-1,44
 302 -121 302 -121 272 -195 c 1,45,-1
 402 -211 l 1,18,19
455 827 m 1,46,-1
 375 581 l 1,47,-1
 450 569 l 1,48,-1
 558 804 l 1,49,-1
 455 827 l 1,46,-1
EndSplineSet
EndChar

StartChar: iotatonos
Encoding: 943 943 455
Width: 332
GlyphClass: 1
Flags: W
LayerCount: 2
Fore
SplineSet
145 -8 m 0,0,1
 168 -8 168 -8 193 -5 c 128,-1,2
 218 -2 218 -2 239 6 c 1,3,-1
 240 139 l 1,4,5
 231 135 231 135 217 129 c 128,-1,6
 203 123 203 123 191 123 c 0,7,8
 184 123 184 123 180 125 c 128,-1,9
 176 127 176 127 174.5 134 c 128,-1,10
 173 141 173 141 175 153.5 c 128,-1,11
 177 166 177 166 181 189 c 0,12,13
 187 215 187 215 197.5 255.5 c 128,-1,14
 208 296 208 296 220.5 342 c 128,-1,15
 233 388 233 388 246 434.5 c 128,-1,16
 259 481 259 481 269 518 c 1,17,-1
 132 531 l 1,18,19
 119 478 119 478 107 430.5 c 128,-1,20
 95 383 95 383 85 339 c 128,-1,21
 75 295 75 295 65.5 253 c 128,-1,22
 56 211 56 211 47 168 c 0,23,24
 37 125 37 125 39 91.5 c 128,-1,25
 41 58 41 58 53.5 36 c 128,-1,26
 66 14 66 14 89 3 c 128,-1,27
 112 -8 112 -8 145 -8 c 0,0,1
255 843 m 1,28,-1
 175 596 l 1,29,-1
 251 584 l 1,30,-1
 358 819 l 1,31,-1
 255 843 l 1,28,-1
EndSplineSet
EndChar

StartChar: upsilondieresistonos
Encoding: 944 944 456
Width: 591
GlyphClass: 1
Flags: W
LayerCount: 2
Fore
SplineSet
57 200 m 0,0,1
 45 149 45 149 53 110.5 c 128,-1,2
 61 72 61 72 85.5 45.5 c 128,-1,3
 110 19 110 19 148.5 5.5 c 128,-1,4
 187 -8 187 -8 237 -8 c 0,5,6
 295 -8 295 -8 344 9.5 c 128,-1,7
 393 27 393 27 431 62.5 c 128,-1,8
 469 98 469 98 497 150.5 c 128,-1,9
 525 203 525 203 540 273 c 0,10,11
 547 304 547 304 554.5 338 c 128,-1,12
 562 372 562 372 568 405 c 128,-1,13
 574 438 574 438 577.5 467 c 128,-1,14
 581 496 581 496 581 518 c 1,15,-1
 449 531 l 1,16,17
 447 496 447 496 443 463 c 128,-1,18
 439 430 439 430 433.5 400.5 c 128,-1,19
 428 371 428 371 422.5 346 c 128,-1,20
 417 321 417 321 412 301 c 0,21,22
 392 205 392 205 351 163 c 128,-1,23
 310 121 310 121 250 120 c 0,24,25
 231 121 231 121 217.5 124.5 c 128,-1,26
 204 128 204 128 195.5 136 c 128,-1,27
 187 144 187 144 184 158 c 128,-1,28
 181 172 181 172 186 194 c 0,29,30
 189 206 189 206 193 220 c 128,-1,31
 197 234 197 234 201.5 250.5 c 128,-1,32
 206 267 206 267 211 286.5 c 128,-1,33
 216 306 216 306 221 328 c 0,34,35
 231 367 231 367 235.5 395.5 c 128,-1,36
 240 424 240 424 241.5 445.5 c 128,-1,37
 243 467 243 467 243 484 c 128,-1,38
 243 501 243 501 242 518 c 1,39,-1
 114 531 l 1,40,41
 115 505 115 505 114.5 464 c 128,-1,42
 114 423 114 423 99 357 c 0,43,44
 93 331 93 331 86.5 307 c 128,-1,45
 80 283 80 283 74 262.5 c 128,-1,46
 68 242 68 242 63.5 226 c 128,-1,47
 59 210 59 210 57 200 c 0,0,1
129 668 m 0,48,49
 120 629 120 629 139.5 601.5 c 128,-1,50
 159 574 159 574 196 574 c 0,51,52
 229 574 229 574 253.5 593 c 128,-1,53
 278 612 278 612 285 643 c 0,54,55
 293 683 293 683 275 709.5 c 128,-1,56
 257 736 257 736 218 736 c 0,57,58
 186 736 186 736 161 717.5 c 128,-1,59
 136 699 136 699 129 668 c 0,48,49
451 668 m 0,60,61
 443 629 443 629 462.5 601.5 c 128,-1,62
 482 574 482 574 520 574 c 0,63,64
 551 574 551 574 576 593 c 128,-1,65
 601 612 601 612 607 643 c 0,66,67
 617 683 617 683 597.5 709.5 c 128,-1,68
 578 736 578 736 541 736 c 0,69,70
 510 736 510 736 484.5 717.5 c 128,-1,71
 459 699 459 699 451 668 c 0,60,61
380 833 m 1,72,-1
 300 587 l 1,73,-1
 376 575 l 1,74,-1
 483 810 l 1,75,-1
 380 833 l 1,72,-1
EndSplineSet
EndChar

StartChar: alpha
Encoding: 945 945 457
Width: 643
GlyphClass: 1
Flags: W
LayerCount: 2
Fore
SplineSet
391 253 m 2,0,1
 380 233 380 233 366 209.5 c 128,-1,2
 352 186 352 186 333 165.5 c 128,-1,3
 314 145 314 145 290 131 c 128,-1,4
 266 117 266 117 235 117 c 0,5,6
 211 117 211 117 193 125.5 c 128,-1,7
 175 134 175 134 164 151 c 128,-1,8
 153 168 153 168 150 192.5 c 128,-1,9
 147 217 147 217 153 248 c 0,10,11
 163 286 163 286 179.5 315 c 128,-1,12
 196 344 196 344 217.5 364 c 128,-1,13
 239 384 239 384 262.5 395 c 128,-1,14
 286 406 286 406 308 406 c 0,15,16
 324 406 324 406 337.5 400 c 128,-1,17
 351 394 351 394 361.5 383 c 128,-1,18
 372 372 372 372 378.5 356 c 128,-1,19
 385 340 385 340 388.5 320 c 128,-1,20
 392 300 392 300 393 277 c 128,-1,21
 394 254 394 254 392 228 c 1,22,-1
 467 312 l 1,23,24
 470 364 470 364 459 405 c 128,-1,25
 448 446 448 446 426.5 474 c 128,-1,26
 405 502 405 502 374 517 c 128,-1,27
 343 532 343 532 306 532 c 0,28,29
 262 532 262 532 219 511.5 c 128,-1,30
 176 491 176 491 140.5 456 c 128,-1,31
 105 421 105 421 78 372.5 c 128,-1,32
 51 324 51 324 38 267 c 0,33,34
 25 208 25 208 31 157.5 c 128,-1,35
 37 107 37 107 59 70 c 128,-1,36
 81 33 81 33 118.5 12.5 c 128,-1,37
 156 -8 156 -8 205 -8 c 0,38,39
 246 -8 246 -8 285 6 c 128,-1,40
 324 20 324 20 358.5 45 c 128,-1,41
 393 70 393 70 422.5 104 c 128,-1,42
 452 138 452 138 474 178 c 2,43,-1
 666 524 l 1,44,-1
 542 524 l 1,45,-1
 391 253 l 2,0,1
584 106 m 1,46,-1
 560 113 l 2,47,48
 552 118 552 118 542 125 c 128,-1,49
 532 132 532 132 521.5 143.5 c 128,-1,50
 511 155 511 155 501.5 173.5 c 128,-1,51
 492 192 492 192 485 219 c 1,52,-1
 402 138 l 1,53,54
 399 107 399 107 404 83.5 c 128,-1,55
 409 60 409 60 419.5 43 c 128,-1,56
 430 26 430 26 444.5 15 c 128,-1,57
 459 4 459 4 476 -3 c 2,58,-1
 491 -8 l 1,59,-1
 584 106 l 1,46,-1
EndSplineSet
EndChar

StartChar: beta
Encoding: 946 946 458
Width: 681
GlyphClass: 1
Flags: W
LayerCount: 2
Fore
SplineSet
143 41 m 1,0,1
 157 29 157 29 177.5 20 c 128,-1,2
 198 11 198 11 221.5 4.5 c 128,-1,3
 245 -2 245 -2 270.5 -5 c 128,-1,4
 296 -8 296 -8 321 -8 c 0,5,6
 375 -8 375 -8 424 9.5 c 128,-1,7
 473 27 473 27 512 57 c 128,-1,8
 551 87 551 87 577.5 126 c 128,-1,9
 604 165 604 165 613 208 c 0,10,11
 622 244 622 244 619 276.5 c 128,-1,12
 616 309 616 309 601.5 335.5 c 128,-1,13
 587 362 587 362 560.5 380 c 128,-1,14
 534 398 534 398 495 405 c 1,15,-1
 504 408 l 1,16,17
 529 421 529 421 550.5 439.5 c 128,-1,18
 572 458 572 458 588 480 c 128,-1,19
 604 502 604 502 615 526 c 128,-1,20
 626 550 626 550 631 574 c 0,21,22
 639 613 639 613 630 648 c 128,-1,23
 621 683 621 683 596.5 708.5 c 128,-1,24
 572 734 572 734 534 749 c 128,-1,25
 496 764 496 764 447 763 c 0,26,27
 389 764 389 764 337 742.5 c 128,-1,28
 285 721 285 721 243.5 682 c 128,-1,29
 202 643 202 643 172 588.5 c 128,-1,30
 142 534 142 534 127 470 c 2,31,-1
 -26 -206 l 1,32,-1
 112 -213 l 1,33,34
 129 -116 129 -116 137 -55.5 c 128,-1,35
 145 5 145 5 146 36 c 1,36,-1
 173 139 l 2,37,38
 186 181 186 181 194.5 215 c 128,-1,39
 203 249 203 249 211.5 284 c 128,-1,40
 220 319 220 319 229.5 360 c 128,-1,41
 239 401 239 401 253 458 c 0,42,43
 262 499 262 499 278.5 532.5 c 128,-1,44
 295 566 295 566 318 590.5 c 128,-1,45
 341 615 341 615 368 628.5 c 128,-1,46
 395 642 395 642 425 641 c 0,47,48
 447 642 447 642 463 636 c 128,-1,49
 479 630 479 630 488.5 619.5 c 128,-1,50
 498 609 498 609 501 595 c 128,-1,51
 504 581 504 581 500 564 c 0,52,53
 495 541 495 541 480 520 c 128,-1,54
 465 499 465 499 442.5 482 c 128,-1,55
 420 465 420 465 393 454 c 128,-1,56
 366 443 366 443 336 438 c 1,57,-1
 321 342 l 1,58,59
 324 343 324 343 331 344 c 128,-1,60
 338 345 338 345 346.5 346 c 128,-1,61
 355 347 355 347 365 347.5 c 128,-1,62
 375 348 375 348 383 347 c 0,63,64
 414 348 414 348 438.5 340 c 128,-1,65
 463 332 463 332 478.5 318.5 c 128,-1,66
 494 305 494 305 500.5 286 c 128,-1,67
 507 267 507 267 502 245 c 0,68,69
 497 218 497 218 479 193.5 c 128,-1,70
 461 169 461 169 436 151 c 128,-1,71
 411 133 411 133 380 122.5 c 128,-1,72
 349 112 349 112 317 111 c 0,73,74
 300 112 300 112 280 115 c 128,-1,75
 260 118 260 118 239 124 c 128,-1,76
 218 130 218 130 198 140 c 128,-1,77
 178 150 178 150 162 164 c 1,78,-1
 143 41 l 1,0,1
EndSplineSet
EndChar

StartChar: gamma
Encoding: 947 947 459
Width: 616
GlyphClass: 1
Flags: W
LayerCount: 2
Fore
SplineSet
247 -213 m 1,0,1
 278 -103 278 -103 301 9.5 c 128,-1,2
 324 122 324 122 324.5 223 c 128,-1,3
 325 324 325 324 297 407.5 c 128,-1,4
 269 491 269 491 198 542 c 1,5,-1
 101 435 l 1,6,7
 136 412 136 412 155 372 c 128,-1,8
 174 332 174 332 181 280 c 128,-1,9
 188 228 188 228 185 168 c 128,-1,10
 182 108 182 108 172 45 c 128,-1,11
 162 -18 162 -18 148 -80.5 c 128,-1,12
 134 -143 134 -143 119 -199 c 1,13,-1
 247 -213 l 1,0,1
285 -8 m 1,14,15
 361 69 361 69 415.5 134 c 128,-1,16
 470 199 470 199 511.5 260.5 c 128,-1,17
 553 322 553 322 586 384 c 128,-1,18
 619 446 619 446 651 518 c 1,19,-1
 509 531 l 1,20,21
 491 478 491 478 466.5 425.5 c 128,-1,22
 442 373 442 373 413 325.5 c 128,-1,23
 384 278 384 278 352 236 c 128,-1,24
 320 194 320 194 287 161 c 1,25,-1
 285 -8 l 1,14,15
EndSplineSet
EndChar

StartChar: delta
Encoding: 948 948 460
Width: 606
GlyphClass: 1
Flags: W
LayerCount: 2
Fore
SplineSet
252 -8 m 0,0,1
 305 -8 305 -8 354.5 10 c 128,-1,2
 404 28 404 28 445 60.5 c 128,-1,3
 486 93 486 93 515.5 139.5 c 128,-1,4
 545 186 545 186 558 243 c 0,5,6
 571 302 571 302 563.5 345.5 c 128,-1,7
 556 389 556 389 537 421.5 c 128,-1,8
 518 454 518 454 492 475 c 128,-1,9
 466 496 466 496 442 511 c 0,10,11
 424 525 424 525 404 538 c 128,-1,12
 384 551 384 551 368 563 c 128,-1,13
 352 575 352 575 342.5 587 c 128,-1,14
 333 599 333 599 336 610 c 0,15,16
 340 628 340 628 358 639 c 128,-1,17
 376 650 376 650 406 650 c 0,18,19
 429 650 429 650 453.5 644.5 c 128,-1,20
 478 639 478 639 503 628 c 128,-1,21
 528 617 528 617 551.5 602 c 128,-1,22
 575 587 575 587 595 568 c 1,23,-1
 668 662 l 1,24,25
 650 679 650 679 624 697 c 128,-1,26
 598 715 598 715 566 729.5 c 128,-1,27
 534 744 534 744 494.5 753 c 128,-1,28
 455 762 455 762 410 761 c 0,29,30
 328 762 328 762 274 730.5 c 128,-1,31
 220 699 220 699 206 642 c 0,32,33
 198 604 198 604 208 576 c 128,-1,34
 218 548 218 548 239.5 525.5 c 128,-1,35
 261 503 261 503 289.5 485 c 128,-1,36
 318 467 318 467 345 450 c 0,37,38
 370 431 370 431 390.5 412.5 c 128,-1,39
 411 394 411 394 425.5 372.5 c 128,-1,40
 440 351 440 351 446 326 c 128,-1,41
 452 301 452 301 445 269 c 0,42,43
 437 234 437 234 418.5 205.5 c 128,-1,44
 400 177 400 177 375.5 158 c 128,-1,45
 351 139 351 139 322.5 128 c 128,-1,46
 294 117 294 117 265 117 c 0,47,48
 238 117 238 117 215 126.5 c 128,-1,49
 192 136 192 136 177.5 152.5 c 128,-1,50
 163 169 163 169 157.5 192.5 c 128,-1,51
 152 216 152 216 158 245 c 0,52,53
 165 277 165 277 183.5 306 c 128,-1,54
 202 335 202 335 228 357 c 128,-1,55
 254 379 254 379 285 391.5 c 128,-1,56
 316 404 316 404 349 404 c 0,57,58
 372 404 372 404 397.5 398.5 c 128,-1,59
 423 393 423 393 437 376 c 1,60,-1
 394 480 l 1,61,62
 384 486 384 486 361 491.5 c 128,-1,63
 338 497 338 497 311 498 c 0,64,65
 262 498 262 498 218 479 c 128,-1,66
 174 460 174 460 139 428.5 c 128,-1,67
 104 397 104 397 79 355 c 128,-1,68
 54 313 54 313 43 266 c 0,69,70
 31 212 31 212 39.5 162.5 c 128,-1,71
 48 113 48 113 75.5 75 c 128,-1,72
 103 37 103 37 147.5 14.5 c 128,-1,73
 192 -8 192 -8 252 -8 c 0,0,1
EndSplineSet
EndChar

StartChar: epsilon
Encoding: 949 949 461
Width: 503
GlyphClass: 1
Flags: W
LayerCount: 2
Fore
SplineSet
406 141 m 1,0,1
 369 132 369 132 328 123 c 128,-1,2
 287 114 287 114 247 114 c 0,3,4
 196 114 196 114 171 126 c 128,-1,5
 146 138 146 138 149 159 c 0,6,7
 153 174 153 174 165 184.5 c 128,-1,8
 177 195 177 195 194.5 202 c 128,-1,9
 212 209 212 209 233.5 212 c 128,-1,10
 255 215 255 215 277 215 c 2,11,-1
 319 215 l 1,12,-1
 341 313 l 1,13,-1
 296 313 l 2,14,15
 276 314 276 314 259.5 317 c 128,-1,16
 243 320 243 320 231 324.5 c 128,-1,17
 219 329 219 329 213 336 c 128,-1,18
 207 343 207 343 209 351 c 0,19,20
 212 362 212 362 221.5 371.5 c 128,-1,21
 231 381 231 381 246.5 388.5 c 128,-1,22
 262 396 262 396 283.5 400.5 c 128,-1,23
 305 405 305 405 334 405 c 0,24,25
 351 405 351 405 368.5 403.5 c 128,-1,26
 386 402 386 402 401 399.5 c 128,-1,27
 416 397 416 397 430 393.5 c 128,-1,28
 444 390 444 390 453 385 c 1,29,-1
 512 503 l 1,30,31
 477 522 477 522 435.5 528 c 128,-1,32
 394 534 394 534 356 532 c 0,33,34
 301 533 301 533 256.5 523.5 c 128,-1,35
 212 514 212 514 179 495.5 c 128,-1,36
 146 477 146 477 125 451.5 c 128,-1,37
 104 426 104 426 97 395 c 0,38,39
 93 374 93 374 94.5 354 c 128,-1,40
 96 334 96 334 103 317.5 c 128,-1,41
 110 301 110 301 121.5 290 c 128,-1,42
 133 279 133 279 147 274 c 1,43,-1
 141 275 l 1,44,45
 121 269 121 269 101.5 257 c 128,-1,46
 82 245 82 245 66 229 c 128,-1,47
 50 213 50 213 39 194.5 c 128,-1,48
 28 176 28 176 24 155 c 0,49,50
 15 118 15 118 26.5 87 c 128,-1,51
 38 56 38 56 66.5 34.5 c 128,-1,52
 95 13 95 13 137.5 0.5 c 128,-1,53
 180 -12 180 -12 232 -12 c 0,54,55
 254 -12 254 -12 278.5 -10 c 128,-1,56
 303 -8 303 -8 328 -5 c 128,-1,57
 353 -2 353 -2 375 2.5 c 128,-1,58
 397 7 397 7 414 12 c 1,59,-1
 406 141 l 1,0,1
EndSplineSet
EndChar

StartChar: zeta
Encoding: 950 950 462
Width: 530
GlyphClass: 1
Flags: W
LayerCount: 2
Fore
SplineSet
235 -202 m 0,0,1
 274 -202 274 -202 310.5 -189 c 128,-1,2
 347 -176 347 -176 377.5 -152.5 c 128,-1,3
 408 -129 408 -129 430 -97.5 c 128,-1,4
 452 -66 452 -66 460 -28 c 0,5,6
 468 4 468 4 464 31.5 c 128,-1,7
 460 59 460 59 446 78.5 c 128,-1,8
 432 98 432 98 408.5 109 c 128,-1,9
 385 120 385 120 355 120 c 0,10,11
 348 120 348 120 337.5 119.5 c 128,-1,12
 327 119 327 119 314.5 118 c 128,-1,13
 302 117 302 117 287.5 116 c 128,-1,14
 273 115 273 115 258 115 c 256,15,16
 243 115 243 115 224 116.5 c 128,-1,17
 205 118 205 118 189.5 125.5 c 128,-1,18
 174 133 174 133 166 150 c 128,-1,19
 158 167 158 167 165 197 c 0,20,21
 173 231 173 231 196 271 c 128,-1,22
 219 311 219 311 252.5 352 c 128,-1,23
 286 393 286 393 326 434 c 128,-1,24
 366 475 366 475 408.5 511 c 128,-1,25
 451 547 451 547 493 577 c 128,-1,26
 535 607 535 607 571 627 c 1,27,-1
 586 719 l 1,28,-1
 412 719 l 2,29,30
 403 719 403 719 392 718.5 c 128,-1,31
 381 718 381 718 372 720.5 c 128,-1,32
 363 723 363 723 358.5 728 c 128,-1,33
 354 733 354 733 356 743 c 0,34,35
 358 755 358 755 365 769 c 128,-1,36
 372 783 372 783 381 793 c 1,37,-1
 279 844 l 1,38,39
 258 817 258 817 247.5 797.5 c 128,-1,40
 237 778 237 778 231 759 c 0,41,42
 224 727 224 727 231 701 c 128,-1,43
 238 675 238 675 257.5 657 c 128,-1,44
 277 639 277 639 307.5 629.5 c 128,-1,45
 338 620 338 620 377 620 c 2,46,-1
 446 620 l 1,47,-1
 418 670 l 1,48,49
 357 628 357 628 295.5 574.5 c 128,-1,50
 234 521 234 521 181.5 460 c 128,-1,51
 129 399 129 399 91 334 c 128,-1,52
 53 269 53 269 38 205 c 0,53,54
 24 143 24 143 35 102 c 128,-1,55
 46 61 46 61 72 36.5 c 128,-1,56
 98 12 98 12 134.5 2 c 128,-1,57
 171 -8 171 -8 209 -8 c 0,58,59
 223 -8 223 -8 239 -7.5 c 128,-1,60
 255 -7 255 -7 270 -6 c 128,-1,61
 285 -5 285 -5 298 -4 c 128,-1,62
 311 -3 311 -3 319 -3 c 0,63,64
 335 -3 335 -3 340.5 -9.5 c 128,-1,65
 346 -16 346 -16 343 -22 c 0,66,67
 341 -36 341 -36 331 -46.5 c 128,-1,68
 321 -57 321 -57 304.5 -65.5 c 128,-1,69
 288 -74 288 -74 267.5 -78.5 c 128,-1,70
 247 -83 247 -83 223 -83 c 0,71,72
 205 -83 205 -83 187.5 -81 c 128,-1,73
 170 -79 170 -79 158 -77 c 1,74,-1
 139 -191 l 1,75,76
 168 -196 168 -196 192 -199.5 c 128,-1,77
 216 -203 216 -203 235 -202 c 0,0,1
EndSplineSet
EndChar

StartChar: eta
Encoding: 951 951 463
Width: 612
GlyphClass: 1
Flags: W
LayerCount: 2
Fore
SplineSet
136 -6 m 1,0,1
 169 90 169 90 194 168.5 c 128,-1,2
 219 247 219 247 235 323 c 0,3,4
 245 365 245 365 245.5 398 c 128,-1,5
 246 431 246 431 236.5 456.5 c 128,-1,6
 227 482 227 482 208.5 500 c 128,-1,7
 190 518 190 518 161 530 c 1,8,-1
 73 419 l 1,9,10
 88 412 88 412 95.5 400.5 c 128,-1,11
 103 389 103 389 105 372 c 128,-1,12
 107 355 107 355 103.5 331.5 c 128,-1,13
 100 308 100 308 93 276 c 0,14,15
 79 213 79 213 56 144 c 128,-1,16
 33 75 33 75 10 6 c 1,17,-1
 136 -6 l 1,0,1
402 -211 m 1,18,19
 423 -162 423 -162 445.5 -100.5 c 128,-1,20
 468 -39 468 -39 488.5 24 c 128,-1,21
 509 87 509 87 526.5 147 c 128,-1,22
 544 207 544 207 554 253 c 0,23,24
 587 399 587 399 562.5 465.5 c 128,-1,25
 538 532 538 532 451 532 c 0,26,27
 421 532 421 532 390 521.5 c 128,-1,28
 359 511 359 511 329 492 c 128,-1,29
 299 473 299 473 272.5 445 c 128,-1,30
 246 417 246 417 225 381 c 1,31,-1
 210 228 l 1,32,33
 221 261 221 261 240.5 290.5 c 128,-1,34
 260 320 260 320 283.5 343.5 c 128,-1,35
 307 367 307 367 333 381.5 c 128,-1,36
 359 396 359 396 382 396 c 0,37,38
 423 396 423 396 432.5 360.5 c 128,-1,39
 442 325 442 325 421 235 c 0,40,41
 413 198 413 198 400 154 c 128,-1,42
 387 110 387 110 368.5 57 c 128,-1,43
 350 4 350 4 326 -58.5 c 128,-1,44
 302 -121 302 -121 272 -195 c 1,45,-1
 402 -211 l 1,18,19
EndSplineSet
EndChar

StartChar: theta
Encoding: 952 952 464
Width: 669
GlyphClass: 1
Flags: W
LayerCount: 2
Fore
SplineSet
282 -8 m 0,0,1
 344 -8 344 -8 399 19 c 128,-1,2
 454 46 454 46 500 95.5 c 128,-1,3
 546 145 546 145 579.5 214 c 128,-1,4
 613 283 613 283 631 365 c 0,5,6
 652 456 652 456 649 529.5 c 128,-1,7
 646 603 646 603 621.5 655 c 128,-1,8
 597 707 597 707 552 735.5 c 128,-1,9
 507 764 507 764 444 763 c 0,10,11
 386 764 386 764 330.5 738.5 c 128,-1,12
 275 713 275 713 228.5 665 c 128,-1,13
 182 617 182 617 146.5 548 c 128,-1,14
 111 479 111 479 91 391 c 0,15,16
 70 300 70 300 73.5 226.5 c 128,-1,17
 77 153 77 153 102.5 100.5 c 128,-1,18
 128 48 128 48 173.5 20 c 128,-1,19
 219 -8 219 -8 282 -8 c 0,0,1
283 116 m 0,20,21
 251 116 251 116 230.5 136 c 128,-1,22
 210 156 210 156 200 190 c 128,-1,23
 190 224 190 224 192 269 c 128,-1,24
 194 314 194 314 207 364 c 0,25,26
 224 425 224 425 250 474.5 c 128,-1,27
 276 524 276 524 307 560 c 128,-1,28
 338 596 338 596 372 615.5 c 128,-1,29
 406 635 406 635 438 635 c 256,30,31
 470 635 470 635 491 617.5 c 128,-1,32
 512 600 512 600 522.5 568 c 128,-1,33
 533 536 533 536 531.5 491.5 c 128,-1,34
 530 447 530 447 515 394 c 0,35,36
 501 337 501 337 476.5 286.5 c 128,-1,37
 452 236 452 236 420.5 198 c 128,-1,38
 389 160 389 160 353.5 138 c 128,-1,39
 318 116 318 116 283 116 c 0,20,21
547 330 m 1,40,-1
 570 426 l 1,41,-1
 177 426 l 1,42,-1
 153 330 l 1,43,-1
 547 330 l 1,40,-1
EndSplineSet
EndChar

StartChar: iota
Encoding: 953 953 465
Width: 332
GlyphClass: 1
Flags: W
LayerCount: 2
Fore
SplineSet
145 -8 m 0,0,1
 168 -8 168 -8 193 -5 c 128,-1,2
 218 -2 218 -2 239 6 c 1,3,-1
 240 139 l 1,4,5
 231 135 231 135 217 129 c 128,-1,6
 203 123 203 123 191 123 c 0,7,8
 184 123 184 123 180 125 c 128,-1,9
 176 127 176 127 174.5 134 c 128,-1,10
 173 141 173 141 175 153.5 c 128,-1,11
 177 166 177 166 181 189 c 0,12,13
 187 215 187 215 197.5 255.5 c 128,-1,14
 208 296 208 296 220.5 342 c 128,-1,15
 233 388 233 388 246 434.5 c 128,-1,16
 259 481 259 481 269 518 c 1,17,-1
 132 531 l 1,18,19
 119 478 119 478 107 430.5 c 128,-1,20
 95 383 95 383 85 339 c 128,-1,21
 75 295 75 295 65.5 253 c 128,-1,22
 56 211 56 211 47 168 c 0,23,24
 37 125 37 125 39 91.5 c 128,-1,25
 41 58 41 58 53.5 36 c 128,-1,26
 66 14 66 14 89 3 c 128,-1,27
 112 -8 112 -8 145 -8 c 0,0,1
EndSplineSet
EndChar

